<?xml version="1.0" encoding="UTF-8"?>
<svg id="Layer_2" data-name="Layer 2" xmlns="http://www.w3.org/2000/svg" viewBox="0 0 276.6 135.63">
  <defs>
    <style>
      .cls-1, .cls-2, .cls-3, .cls-4 {
        stroke: #000;
        stroke-miterlimit: 10;
      }

      .cls-2 {
        fill: #eed6b2;
      }

      .cls-2, .cls-3, .cls-4 {
        stroke-width: 2px;
      }

      .cls-3 {
        fill: #472e02;
      }

      .cls-4 {
        fill: #f7f3e8;
      }

      .cls-5, .cls-6, .cls-7 {
        stroke-width: 0px;
      }

      .cls-6 {
        fill: #4f3205;
      }

      .cls-7 {
        fill: #fff;
      }
    </style>
  </defs>
  <g id="SO_1" data-name="SO 1">
    <g>
      <path class="cls-4" d="M105.16,126.56c-12.29.85-32.89.38-54.88-9.83-6.06-2.81-14.02-6.52-21.71-12.06-4.41-3.17-8.73-6.95-12.55-11.52-.02-.03-.05-.07-.07-.1-3.79-4.52-7.08-9.82-9.49-16.05-6.12-15.84-3.82-30.6-2.05-38.09,2.66-.02,8.54.03,16.28,1.26,3.88.62,8.23,1.53,12.87,2.87,12.21,3.53,26.47,10.06,39.66,22.08,4.14,3.78,7.75,7.7,10.88,11.67,3.67,4.62,6.7,9.3,9.21,13.86,8.84,16.09,11.16,30.64,11.85,35.91Z"/>
      <path class="cls-4" d="M266.53,100.75c-1.65,3.16-8.92,16.39-24.57,25.4-16.31,9.38-32.34,8.78-47.92,8.19-11.32-.43-20.53-2.21-26.62-3.69,1.74-3.87,5.12-10.76,10.81-18.65,2.6-3.61,5.68-7.44,9.31-11.28,6.02-6.38,13.55-12.81,22.88-18.4,11.31-6.78,22.46-10.65,32.3-12.81,4.64-1.02,8.99-1.66,12.93-2.05,7.91-.78,14.18-.54,17.85-.29.4,5.77.56,19.19-6.97,33.58Z"/>
      <path class="cls-3" d="M260.8,87.03c0,23.42-20.45,42.39-45.67,42.39-15.16,0-28.6-6.86-36.9-17.42,2.6-3.61,5.68-7.44,9.31-11.28,6.02-6.38,13.55-12.81,22.88-18.4,11.31-6.78,22.46-10.65,32.3-12.81,4.64-1.02,8.99-1.66,12.93-2.05,3.29,5.85,5.15,12.51,5.15,19.57Z"/>
      <path class="cls-1" d="M226.75,114.62c-14.9,5.86-31.58-.33-39.21-13.9,6.02-6.38,13.55-12.81,22.88-18.4,11.31-6.78,22.46-10.65,32.3-12.81.72,1.27,1.36,2.6,1.91,4,6.41,16.29-1.59,34.69-17.88,41.11Z"/>
      <path class="cls-3" d="M93.31,90.65c-7.91,12.61-22.63,21.09-39.49,21.09-9.34,0-18.02-2.6-25.25-7.07-4.94-3.04-9.21-6.96-12.55-11.52-.02-.03-.05-.07-.07-.1-4.93-6.77-7.8-14.92-7.8-23.7,0-11.31,4.77-21.58,12.54-29.18,3.88.62,8.23,1.53,12.87,2.87,12.21,3.53,26.47,10.06,39.66,22.08,4.14,3.78,7.75,7.7,10.88,11.67,3.67,4.62,6.7,9.3,9.21,13.86Z"/>
      <path class="cls-5" d="M84.1,76.79c-2.74,8.88-9.35,16.47-18.67,20.14-16.29,6.41-34.69-1.59-41.11-17.88-5.14-13.07-1-27.5,9.24-36.01,12.21,3.53,26.47,10.06,39.66,22.08,4.14,3.78,7.75,7.7,10.88,11.67Z"/>
      <path class="cls-7" d="M41.24,50.65c2.7,2.83,5.41,5.66,8.11,8.49-2.7,3.58-5.4,7.15-8.1,10.73-2.98-3.42-5.96-6.83-8.94-10.25,2.98-2.99,5.96-5.98,8.94-8.97Z"/>
      <path class="cls-7" d="M215.72,83.56c2.7,2.83,5.41,5.66,8.11,8.49-2.7,3.58-5.4,7.15-8.1,10.73-2.98-3.42-5.96-6.83-8.94-10.25,2.98-2.99,5.96-5.98,8.94-8.97Z"/>
      <path class="cls-2" d="M174.63,117.31c6.16-18.24,15.52-30.17,21.45-36.63,3.97-4.33,23.15-25.21,49.05-27.37,5.34-.45,14.29-1.06,22.04,4.62,4.14,3.04,6.48,6.8,7.75,9.32-9.94-.79-30.75-1.09-53.76,9.42-26.92,12.3-41.19,32.25-46.52,40.63Z"/>
      <path class="cls-2" d="M104.65,123.19c-.24-12.92-2.62-30.29-11.57-48.24-5.49-11.02-11.65-23.38-25.52-31.63-12.08-7.19-24.1-7.88-35.34-8.51-17-.94-31.28,2.26-31.22,3.21.04.68,7.37.06,19.69,2.15,0,0,6.3,1.18,12.87,2.87,13.12,3.36,27.12,10.77,34,15.55,27.08,18.82,36.42,61.38,37.09,64.6Z"/>
      <g>
        <path class="cls-6" d="M201,48.4c9.49-20.65,33.93-34.79,56.5-28.13,7.36,2.15,14,6.25,19.05,11.67-7.94-4.71-16.2-7.87-25.15-8.5-19.98-1.43-37.78,10.18-50.39,24.96h0Z"/>
        <path class="cls-6" d="M102.82,43.19c-5.46-6.57-11.31-12.53-17.72-17.72-6.39-5.2-13.36-9.55-20.74-13.03-3.71-1.7-7.5-3.21-11.39-4.47-3.89-1.27-7.87-2.24-11.91-3.04-8.1-1.58-16.42-2.16-24.96-2.08C24.27.3,33.04-.47,41.71.26c4.33.37,8.66,1.11,12.88,2.25,2.1.59,4.2,1.22,6.25,1.99,2.07.71,4.05,1.66,6.07,2.5,7.92,3.73,15.22,8.81,21.35,14.98,6.11,6.17,11.22,13.33,14.56,21.21Z"/>
      </g>
    </g>
  </g>
</svg>