<?xml version="1.0" encoding="UTF-8"?>
<svg id="Layer_2" data-name="Layer 2" xmlns="http://www.w3.org/2000/svg" xmlns:xlink="http://www.w3.org/1999/xlink" viewBox="0 0 355.24 413.19">
  <defs>
    <style>
      
    </style>
    <filter id="luminosity-invert-noclip" x="-120.28" y="-40.33" width="585.14" height="694.34" color-interpolation-filters="sRGB" filterUnits="userSpaceOnUse">
      <feColorMatrix result="cm" values="-1 0 0 0 1 0 -1 0 0 1 0 0 -1 0 1 0 0 0 1 0"/>
      <feFlood flood-color="#fff" result="bg"/>
      <feBlend in="cm" in2="bg"/>
    </filter>
    <mask id="mask" x="-120.28" y="-40.33" width="585.14" height="694.34" maskUnits="userSpaceOnUse">
      <g class="face-8">
        <path class="face-2" d="M-46.24,231.25c-.48,16.18-.88,29.39-2.94,43.31-3.74,25.32-13.37,51.28-26.35,73.25-11.94,20.21-27.38,38.59-35.67,60.77-8.48,22.69-12.24,47.95-5.91,71.68,5.99,22.49,20.24,41.85,35.61,58.89,11.48,12.74,26.92,25.11,28.17,43.53,1.04,15.35-6.82,33.94-22.13,39.45-7.69,2.77-15.01,1.37-19.07.22,1.11,2,5.9,10.14,16.26,13.75,12.22,4.26,19.62,1.11,24.53-10.67,14.06-33.72,30.85-66.31,50.13-97.34,17.15-27.61,36.74-65.31,68.77-77.7,10.98-4.24,22.98-4.98,34.33-8.11,21.35-5.87,31.89-22.86,35.51-43.91.24-1.39.44-2.83.07-4.18-.84-3.08-3.76-4.68-4.46-5.11-7.87-4.81-39.36-42.24-54.13-61.92-11.2-14.92-16.8-22.38-22.46-33.88-4.26-8.66-9.55-16.79-13.6-25.55-2.61-5.64-4.66-10.66-10.06-14.34-4.92-3.36-8.18-2.58-10.77-5.63-4.86-5.73-.81-17.08.84-20.26,17.45-33.42,48.02-58.67,82.56-72.99,26.28-10.9,54.62-15.01,81.86-22.76,13.08-3.72,25.68-8.86,38.43-13.34,12.77-4.49,25.33-10.33,35.41-19.54,13.66-12.53,21.4-26.45,25.77-36.16-1.77,32.51,5.99,61.92,22.04,90.16,11.62,20.43,25.74,39.33,37.88,59.46,1.07,1.77,2.15,3.63,2.35,5.69.26,2.63-.59,4.71-.86,5.38-5.84,14.44-4.01,29.12-28.34,72.4-8.49,15.1-16.66,29.63-29.8,45.81-13.9,17.12-41.21,45.76-88,68.13-1.35,3.18-2.57,7.66-.96,11.93,5.44,14.35,38.2,15.68,50.65,19.32,46.65,13.61,44.58,59.05,48.31,99.38,3.31,35.74,6.24,72.54,21.88,105.42,1.08,2.28,2.3,4.61,4.34,6.09,2.16,1.56,4.95,1.94,7.61,2.07,12.58.61,25.34-3.38,35.33-11.07-14.6-7.96-19.02-27.85-14.42-43.83,4.61-15.97,16.05-28.93,27.15-41.3-5.53,16.09-11.13,32.58-10.89,49.59.2,14.38,6.35,36.53,21.28,42.33,1.92-8.33-6.06-21.08-6.92-30.29-1.05-11.23,1.27-23.18,8.48-31.84,1.11,19.96,23.34,35.79,42.57,30.31-12.91-9.6-16.07-28.27-12.06-43.85,4.01-15.58,13.75-28.94,22.83-42.22,35.83-52.43,18.88-114.72-15.24-164.13-12.03-17.41-26.72-32.9-38.27-50.63-21.48-32.95-22.9-75.96-20.44-114.19,2.55-39.46,9.09-83.51-5.67-121.45-12.68-32.58-38.57-60.65-69.49-76.61-25.29-13.05-47.25-27.88-75.25-36.04-46.51-13.55-96.03-12.22-141.03,6.16C38.18-8.22,2.18,21.58-21.62,59.41c-23.02,36.6-31.93,76.15-27.06,118.68,2.03,17.69,2.95,35.33,2.41,53.14l.03.02Z"/>
      </g>
    </mask>
    <filter id="luminosity-invert-noclip-2" x="-121.28" y="-42.33" width="585.14" height="694.34" color-interpolation-filters="sRGB" filterUnits="userSpaceOnUse">
      <feColorMatrix result="cm" values="-1 0 0 0 1 0 -1 0 0 1 0 0 -1 0 1 0 0 0 1 0"/>
      <feFlood flood-color="#fff" result="bg"/>
      <feBlend in="cm" in2="bg"/>
    </filter>
    <mask id="mask-1" x="-121.28" y="-42.33" width="585.14" height="694.34" maskUnits="userSpaceOnUse">
      <g class="face-7">
        <path class="face-2" d="M-47.24,229.25c-.48,16.18-.88,29.39-2.94,43.31-3.74,25.32-13.37,51.28-26.35,73.25-11.94,20.21-27.38,38.59-35.67,60.77-8.48,22.69-12.24,47.95-5.91,71.68,5.99,22.49,20.24,41.85,35.61,58.89,11.48,12.74,26.92,25.11,28.17,43.53,1.04,15.35-6.82,33.94-22.13,39.45-7.69,2.77-15.01,1.37-19.07.22,1.11,2,5.9,10.14,16.26,13.75,12.22,4.26,19.62,1.11,24.53-10.67,14.06-33.72,30.85-66.31,50.13-97.34,17.15-27.61,36.74-65.31,68.77-77.7,10.98-4.24,22.98-4.98,34.33-8.11,21.35-5.87,31.89-22.86,35.51-43.91.24-1.39.44-2.83.07-4.18-.84-3.08-3.76-4.68-4.46-5.11-7.87-4.81-39.36-42.24-54.13-61.92-11.2-14.92-16.8-22.38-22.46-33.88-4.26-8.66-9.55-16.79-13.6-25.55-2.61-5.64-4.66-10.66-10.06-14.34-4.92-3.36-8.18-2.58-10.77-5.63-4.86-5.73-.81-17.08.84-20.26,17.45-33.42,48.02-58.67,82.56-72.99,26.28-10.9,54.62-15.01,81.86-22.76,13.08-3.72,25.68-8.86,38.43-13.34,12.77-4.49,25.33-10.33,35.41-19.54,13.66-12.53,21.4-26.45,25.77-36.16-1.77,32.51,5.99,61.92,22.04,90.16,11.62,20.43,25.74,39.33,37.88,59.46,1.07,1.77,2.15,3.63,2.35,5.69.26,2.63-.59,4.71-.86,5.38-5.84,14.44-4.01,29.12-28.34,72.4-8.49,15.1-16.66,29.63-29.8,45.81-13.9,17.12-41.21,45.76-88,68.13-1.35,3.18-2.57,7.66-.96,11.93,5.44,14.35,38.2,15.68,50.65,19.32,46.65,13.61,44.58,59.05,48.31,99.38,3.31,35.74,6.24,72.54,21.88,105.42,1.08,2.28,2.3,4.61,4.34,6.09,2.16,1.56,4.95,1.94,7.61,2.07,12.58.61,25.34-3.38,35.33-11.07-14.6-7.96-19.02-27.85-14.42-43.83,4.61-15.97,16.05-28.93,27.15-41.3-5.53,16.09-11.13,32.58-10.89,49.59.2,14.38,6.35,36.53,21.28,42.33,1.92-8.33-6.06-21.08-6.92-30.29-1.05-11.23,1.27-23.18,8.48-31.84,1.11,19.96,23.34,35.79,42.57,30.31-12.91-9.6-16.07-28.27-12.06-43.85,4.01-15.58,13.75-28.94,22.83-42.22,35.83-52.43,18.88-114.72-15.24-164.13-12.03-17.41-26.72-32.9-38.27-50.63-21.48-32.95-22.9-75.96-20.44-114.19,2.55-39.46,9.09-83.51-5.67-121.45-12.68-32.58-38.57-60.65-69.49-76.61-25.29-13.05-47.25-27.88-75.25-36.04-46.51-13.55-96.03-12.22-141.03,6.16C37.18-10.22,1.18,19.58-22.62,57.41c-23.02,36.6-31.93,76.15-27.06,118.68,2.03,17.69,2.95,35.33,2.41,53.14l.03.02Z"/>
      </g>
    </mask>
  </defs>
  <g id="SO_1" data-name="SO 1">
    <g>
      <g class="face-5">
        <g id="Layer_7" data-name="Layer 7">
          <g>
            <path class="face-3" d="M347.62,222.65c-7.05,30.68-20,54.59-30.07,73.16-10,18.45-26.88,45.82-53.62,73.17-19.02,19.45-31.7,27.3-41.09,32.07-6.79,3.44-14.42,7.31-23.16,9.73-6.35,1.76-13.3,2.77-20.94,2.29-16.83-1.03-29-8.72-42.55-18.77-1.66-1.22-3.34-2.49-5.06-3.78-1.67-1.26-3.28-2.52-4.85-3.78-20.28-16.31-32.69-33.02-44.26-48.83-3.44-4.7-28.29-38.68-41.59-70.16-1.25-2.95-2.27-5.61-3.96-8.66-.37-.68-.79-2.09-2.05-3.37-1.64-1.64-3.55-2.16-4.05-2.31-4.99-1.5-16.88-11.26-23.56-23.96-2.06-3.92-3.14-7.2-3.77-10.15-.92-4.31-1.68-7.9-.2-11.18,3.06-6.75,13.45-7.36,14.31-7.4.45-8.36,1.62-19.87,4.74-33.2,10.89-46.5,42.86-102.51,90.47-135.72,14.97-10.44,31.49-18.63,49.38-23.57,10.84-2.99,22.18-4.78,34-5.16,48.81-1.56,98.27,23.03,127.98,61.48,46.4,60.05,29.37,134.23,23.9,158.1h0Z"/>
            <path class="face-1" d="M347.62,222.65c-7.05,30.68-20,54.59-30.07,73.16-10,18.45-26.88,45.82-53.62,73.17-19.02,19.45-31.7,27.3-41.09,32.07-6.79,3.44-14.42,7.31-23.16,9.73-6.35,1.76-13.3,2.77-20.94,2.29-16.83-1.03-29-8.72-42.55-18.77-1.66-1.22-3.34-2.49-5.06-3.78-1.67-1.26-3.28-2.52-4.85-3.78-20.28-16.31-32.69-33.02-44.26-48.83-3.44-4.7-28.29-38.68-41.59-70.16-1.25-2.95-2.27-5.61-3.96-8.66-.37-.68-.79-2.09-2.05-3.37-1.64-1.64-3.55-2.16-4.05-2.31-4.99-1.5-16.88-11.26-23.56-23.96-2.06-3.92-3.14-7.2-3.77-10.15-.92-4.31-1.68-7.9-.2-11.18,3.06-6.75,13.45-7.36,14.31-7.4.45-8.36,1.62-19.87,4.74-33.2,10.89-46.5,42.86-102.51,90.47-135.72,14.97-10.44,31.49-18.63,49.38-23.57,10.84-2.99,22.18-4.78,34-5.16,48.81-1.56,98.27,23.03,127.98,61.48,46.4,60.05,29.37,134.23,23.9,158.1h0Z"/>
          </g>
        </g>
      </g>
      <g class="face-9">
        <g id="Layer_7-2" data-name="Layer 7">
          <g>
            <path class="face-4" d="M347.81,210.61c-.79,3.81-1.54,7.1-2.16,9.78v.04c-7.04,30.6-19.76,54.06-29.98,72.91-14.75,27.21-32.73,51.75-53.46,72.95-19.18,19.61-31.89,27.34-40.88,31.9-6.7,3.4-14.3,7.24-22.92,9.63-7.03,1.95-13.77,2.69-20.61,2.26-17.08-1.05-29.62-9.38-42.02-18.58-1.3-.96-2.62-1.94-3.95-2.95l-1.1-.82c-1.56-1.17-3.14-2.41-4.83-3.76-20.62-16.58-33.08-33.61-44.08-48.64-6.43-8.79-27.94-39.08-40.45-67.59-.46.6-.92,1.19-1.39,1.79,12.65,28.4,33.84,58.25,40.23,66.98,11.07,15.13,23.62,32.27,44.44,49.02,1.71,1.37,3.3,2.61,4.88,3.8l1.1.83c1.34,1.01,2.66,2,3.97,2.96,12.64,9.38,25.45,17.89,43.08,18.96,1.3.08,2.6.12,3.89.12,5.75,0,11.47-.81,17.38-2.45,8.81-2.44,16.51-6.34,23.35-9.8,9.07-4.61,21.97-12.44,41.35-32.26,20.85-21.33,38.95-46.02,53.78-73.39,10.28-18.96,23.07-42.55,30.17-73.41v-.04c.49-2.1,1.06-4.58,1.66-7.38-.51-.93-1-1.87-1.44-2.84Z"/>
            <path class="face-6" d="M181.56,412.19c-1.29,0-2.59-.04-3.89-.12-17.63-1.08-30.44-9.59-43.08-18.96-1.3-.96-2.62-1.95-3.97-2.96l-1.1-.83c-1.58-1.19-3.17-2.43-4.88-3.8-20.83-16.75-33.37-33.89-44.44-49.02-6.65-9.08-29.29-40.98-41.7-70.36l-.65-1.55c-.98-2.34-1.9-4.55-3.26-7.01-.1-.19-.2-.41-.32-.67-.31-.69-.73-1.64-1.57-2.49-1.39-1.39-3.02-1.87-3.56-2.03-5.67-1.71-17.57-11.82-24.23-24.47-1.89-3.59-3.11-6.9-3.86-10.41-.94-4.41-1.75-8.21-.13-11.8,2.86-6.3,11.34-7.64,14.27-7.92.64-10.92,2.22-21.85,4.72-32.5C29.33,125.08,58.78,65.26,110.78,28.98c15.74-10.98,32.46-18.96,49.69-23.71C171.62,2.19,183.14.44,194.7.07c23.92-.77,48.69,4.71,71.62,15.84,22.62,10.97,42.39,26.89,57.18,46.03,46.67,60.39,29.68,134.53,24.09,158.9v.04c-7.1,30.86-19.89,54.46-30.17,73.41-14.83,27.37-32.93,52.06-53.78,73.39-19.38,19.82-32.28,27.65-41.35,32.26-6.84,3.46-14.53,7.36-23.35,9.8-5.91,1.64-11.63,2.45-17.38,2.45ZM199.03,2c-1.42,0-2.84.02-4.26.07-11.41.37-22.77,2.09-33.77,5.12-17.01,4.7-33.52,12.58-49.07,23.43C60.39,66.57,31.2,125.88,21.86,165.75c-2.53,10.82-4.12,21.93-4.71,33.03l-.05.9-.9.04c-.43.02-10.61.56-13.45,6.81-1.35,2.99-.64,6.33.27,10.56.71,3.33,1.88,6.47,3.68,9.89,6.79,12.92,18.56,22.14,22.96,23.47.72.21,2.71.81,4.47,2.56,1.09,1.11,1.62,2.29,1.98,3.08.09.2.17.38.25.52,1.41,2.55,2.36,4.81,3.36,7.21l.65,1.54c12.33,29.18,34.86,60.93,41.48,69.96,11,15.03,23.46,32.06,44.08,48.64,1.69,1.36,3.27,2.59,4.83,3.76l1.1.82c1.34,1,2.65,1.99,3.95,2.95,12.4,9.19,24.94,17.53,42.02,18.58,6.84.43,13.58-.31,20.61-2.26,8.62-2.39,16.22-6.24,22.92-9.63,8.99-4.57,21.7-12.29,40.88-31.9,20.72-21.2,38.71-45.74,53.46-72.95,10.22-18.85,22.94-42.31,29.97-72.91v-.04c5.54-24.14,22.37-97.58-23.72-157.23C292.97,25.69,245.13,2,199.03,2Z"/>
            <path class="face-4" d="M347.81,210.61c-.79,3.81-1.54,7.1-2.16,9.78v.04c-7.04,30.6-19.76,54.06-29.98,72.91-14.75,27.21-32.73,51.75-53.46,72.95-19.18,19.61-31.89,27.34-40.88,31.9-6.7,3.4-14.3,7.24-22.92,9.63-7.03,1.95-13.77,2.69-20.61,2.26-17.08-1.05-29.62-9.38-42.02-18.58-1.3-.96-2.62-1.94-3.95-2.95l-1.1-.82c-1.56-1.17-3.14-2.41-4.83-3.76-20.62-16.58-33.08-33.61-44.08-48.64-6.43-8.79-27.94-39.08-40.45-67.59-.46.6-.92,1.19-1.39,1.79,12.65,28.4,33.84,58.25,40.23,66.98,11.07,15.13,23.62,32.27,44.44,49.02,1.71,1.37,3.3,2.61,4.88,3.8l1.1.83c1.34,1.01,2.66,2,3.97,2.96,12.64,9.38,25.45,17.89,43.08,18.96,1.3.08,2.6.12,3.89.12,5.75,0,11.47-.81,17.38-2.45,8.81-2.44,16.51-6.34,23.35-9.8,9.07-4.61,21.97-12.44,41.35-32.26,20.85-21.33,38.95-46.02,53.78-73.39,10.28-18.96,23.07-42.55,30.17-73.41v-.04c.49-2.1,1.06-4.58,1.66-7.38-.51-.93-1-1.87-1.44-2.84Z"/>
          </g>
        </g>
      </g>
    </g>
  </g>
</svg>