<?xml version="1.0" encoding="UTF-8"?>
<svg id="Layer_2" data-name="Layer 2" xmlns="http://www.w3.org/2000/svg" viewBox="0 0 585.14 708.62">
  <defs>
    <style>
      .cls-1 {
        fill: #f7ef8d;
        stroke-width: 0px;
      }
    </style>
  </defs>
  <g id="SO_1" data-name="SO 1">
    <g>
      <path class="cls-1" d="M371.14,618.82c-.82,7.11-2.83,26.84-.85,43.52.47,3.94,1.28,8.7,4.46,13.59,3.57,5.48,8.41,8.46,11.4,9.97-.12-8.56-.92-18.7-3.12-29.92-2.95-15.05-7.54-27.56-11.89-37.15h0Z"/>
      <path class="cls-1" d="M74.04,271.58c-.48,16.18-.88,29.39-2.94,43.31-3.74,25.32-13.37,51.28-26.35,73.25-11.94,20.21-27.38,38.59-35.67,60.77-8.48,22.69-12.24,47.95-5.91,71.68,5.99,22.49,20.24,41.85,35.61,58.89,11.48,12.74,26.92,25.11,28.17,43.53,1.04,15.35-6.82,33.94-22.13,39.45-7.69,2.77-15.01,1.37-19.07.22,1.11,2,5.9,10.14,16.26,13.75,12.22,4.26,19.62,1.11,24.53-10.67,14.06-33.72,30.85-66.31,50.13-97.34,17.15-27.61,36.74-65.31,68.77-77.7,10.98-4.24,22.98-4.98,34.33-8.11,21.35-5.87,31.89-22.86,35.51-43.91.24-1.39.44-2.83.07-4.18-.84-3.08-3.76-4.68-4.46-5.11-7.87-4.81-39.36-42.24-54.13-61.92-11.2-14.92-16.8-22.38-22.46-33.88-4.26-8.66-9.55-16.79-13.6-25.55-2.61-5.64-4.66-10.66-10.06-14.34-4.92-3.36-8.18-2.58-10.77-5.63-4.86-5.73-.81-17.08.84-20.26,17.45-33.42,48.02-58.67,82.56-72.99,26.28-10.9,54.62-15.01,81.86-22.76,13.08-3.72,25.68-8.86,38.43-13.34,12.77-4.49,25.33-10.33,35.41-19.54,13.66-12.53,21.4-26.45,25.77-36.16-1.77,32.51,5.99,61.92,22.04,90.16,11.62,20.43,25.74,39.33,37.88,59.46,1.07,1.77,2.15,3.63,2.35,5.69.26,2.63-.59,4.71-.86,5.38-5.84,14.44-4.01,29.12-28.34,72.4-8.49,15.1-16.66,29.63-29.8,45.81-13.9,17.12-41.21,45.76-88,68.13-1.35,3.18-2.57,7.66-.96,11.93,5.44,14.35,38.2,15.68,50.65,19.32,46.65,13.61,44.58,59.05,48.31,99.38,3.31,35.74,6.24,72.54,21.88,105.42,1.08,2.28,2.3,4.61,4.34,6.09,2.16,1.56,4.95,1.94,7.61,2.07,12.58.61,25.34-3.38,35.33-11.07-14.6-7.96-19.02-27.85-14.42-43.83,4.61-15.97,16.05-28.93,27.15-41.3-5.53,16.09-11.13,32.58-10.89,49.59.2,14.38,6.35,36.53,21.28,42.33,1.92-8.33-6.06-21.08-6.92-30.29-1.05-11.23,1.27-23.18,8.48-31.84,1.11,19.96,23.34,35.79,42.57,30.31-12.91-9.6-16.07-28.27-12.06-43.85,4.01-15.58,13.75-28.94,22.83-42.22,35.83-52.43,18.88-114.72-15.24-164.13-12.03-17.41-26.72-32.9-38.27-50.63-21.48-32.95-22.9-75.96-20.44-114.19,2.55-39.46,9.09-83.51-5.67-121.45-12.68-32.58-38.57-60.65-69.49-76.61-25.29-13.05-47.25-27.88-75.25-36.04-46.51-13.55-96.03-12.22-141.03,6.16-41.34,16.89-77.34,46.69-101.14,84.52-23.02,36.6-31.93,76.15-27.06,118.68,2.03,17.69,2.95,35.33,2.41,53.14l.03.02Z"/>
      <path class="cls-1" d="M187.97,580.99c5.23-.64,10.44,2.04,43.14,45.52,13.68,18.19,20.11,27.49,17.26,36.89-2.09,6.89-9.59,15.2-10.12,15.77-6.02,6.59-10.1,7.8-12.2,13.09-2.19,5.53-.64,11.54,1.49,16.36-3.75-2.92-9.22-8.12-11.01-15.77-2.87-12.26,5.05-25,5.06-24.99,0,0-2.93,15.27-14.28,25.29-2.51,2.21-7.89,6.83-15.77,7.85-14.8,1.9-25.8-10.53-27.08-12.01,3.19.15,15.21.32,26.18-8.33,3.06-2.41,12.75-10.8,14.28-24.4,1.59-14.08-6.17-28.38-19.64-36.6,1.5,7.01,3.53,21.72-2.98,37.79-2.93,7.24-10.51,25.97-29.46,31.24-14.42,4.01-27.07-2.1-30.94-4.17,6.64.35,12.79-3.63,15.17-9.82,2.41-6.24.47-13.37-4.76-17.55,8.12-12.61,20.61-31.89,36.6-56.23,8.38-12.76,12.7-19.16,19.04-19.93h.02Z"/>
    </g>
  </g>
</svg>