<?xml version="1.0" encoding="UTF-8"?>
<svg id="Layer_2" data-name="Layer 2" xmlns="http://www.w3.org/2000/svg" viewBox="0 0 588.14 714.96">
  <g id="SO_1" data-name="SO 1">
    <g>
      <path class="hair-outline-2" d="M372.64,620.32c-.82,7.11-2.83,26.84-.85,43.52.47,3.94,1.28,8.7,4.46,13.59,3.57,5.48,8.41,8.46,11.4,9.97-.12-8.56-.92-18.7-3.12-29.92-2.95-15.05-7.54-27.56-11.89-37.15h0Z"/>
      <path class="hair-outline-2" d="M75.54,273.08c-.48,16.18-.88,29.39-2.94,43.31-3.74,25.32-13.37,51.28-26.35,73.25-11.94,20.21-27.38,38.59-35.67,60.77-8.48,22.69-12.24,47.95-5.91,71.68,5.99,22.49,20.24,41.85,35.61,58.89,11.48,12.74,26.92,25.11,28.17,43.53,1.04,15.35-6.82,33.94-22.13,39.45-7.69,2.77-15.01,1.37-19.07.22,1.11,2,5.9,10.14,16.26,13.75,12.22,4.26,19.62,1.11,24.53-10.67,14.06-33.72,30.85-66.31,50.13-97.34,17.15-27.61,36.74-65.31,68.77-77.7,10.98-4.24,22.98-4.98,34.33-8.11,21.35-5.87,31.89-22.86,35.51-43.91.24-1.39.44-2.83.07-4.18-.84-3.08-3.76-4.68-4.46-5.11-7.87-4.81-39.36-42.24-54.13-61.92-11.2-14.92-16.8-22.38-22.46-33.88-4.26-8.66-9.55-16.79-13.6-25.55-2.61-5.64-4.66-10.66-10.06-14.34-4.92-3.36-8.18-2.58-10.77-5.63-4.86-5.73-.81-17.08.84-20.26,17.45-33.42,48.02-58.67,82.56-72.99,26.28-10.9,54.62-15.01,81.86-22.76,13.08-3.72,25.68-8.86,38.43-13.34,12.77-4.49,25.33-10.33,35.41-19.54,13.66-12.53,21.4-26.45,25.77-36.16-1.77,32.51,5.99,61.92,22.04,90.16,11.62,20.43,25.74,39.33,37.88,59.46,1.07,1.77,2.15,3.63,2.35,5.69.26,2.63-.59,4.71-.86,5.38-5.84,14.44-4.01,29.12-28.34,72.4-8.49,15.1-16.66,29.63-29.8,45.81-13.9,17.12-41.21,45.76-88,68.13-1.35,3.18-2.57,7.66-.96,11.93,5.44,14.35,38.2,15.68,50.65,19.32,46.65,13.61,44.58,59.05,48.31,99.38,3.31,35.74,6.24,72.54,21.88,105.42,1.08,2.28,2.3,4.61,4.34,6.09,2.16,1.56,4.95,1.94,7.61,2.07,12.58.61,25.34-3.38,35.33-11.07-14.6-7.96-19.02-27.85-14.42-43.83,4.61-15.97,16.05-28.93,27.15-41.3-5.53,16.09-11.13,32.58-10.89,49.59.2,14.38,6.35,36.53,21.28,42.33,1.92-8.33-6.06-21.08-6.92-30.29-1.05-11.23,1.27-23.18,8.48-31.84,1.11,19.96,23.34,35.79,42.57,30.31-12.91-9.6-16.07-28.27-12.06-43.85,4.01-15.58,13.75-28.94,22.83-42.22,35.83-52.43,18.88-114.72-15.24-164.13-12.03-17.41-26.72-32.9-38.27-50.63-21.48-32.95-22.9-75.96-20.44-114.19,2.55-39.46,9.09-83.51-5.67-121.45-12.68-32.58-38.57-60.65-69.49-76.61-25.29-13.05-47.25-27.88-75.25-36.04-46.51-13.55-96.03-12.22-141.03,6.16-41.34,16.89-77.34,46.69-101.14,84.52-23.02,36.6-31.93,76.15-27.06,118.68,2.03,17.69,2.95,35.33,2.41,53.14l.03.02Z"/>
      <path class="hair-outline-1" d="M368.38,109.13c-19.28,13.82-40.65,25.19-63.58,31.63-15.29,4.18-30.8,7.3-45.87,12.22-22.57,6.92-45.17,14.95-64.83,28.22-19.45,13.16-37.09,29.73-49.02,50.12-20.56,34.59-25.52,75.41-7.98,112.35l-2.79.89c-8.41-43.22,4.82-87.9,38.17-117.26,12.76-11.51,27.57-20.43,42.82-28.18,7.62-3.91,15.65-7.16,23.99-9.32,16.64-4.07,33.6-5.38,50.08-9.96,16.44-4.19,32.56-9.69,48.4-15.83,15.75-6.19,31.5-13.11,44.93-23.55,13.49-10.3,23.49-25.4,25.72-42.42-3,27.01-23.77,45.22-46.79,56.82-30.56,15.04-63.25,26.25-96.8,32.32-8.4,1.49-16.81,2.69-24.94,4.91-8.14,2.16-15.93,5.45-23.44,9.3-22.49,11.4-44.14,25.95-59.07,46.61-23.56,32.07-26.59,69.43-18.09,107.36l-4.86-10.45c-6.76-14.53-10.59-30.47-10.85-46.51-.65-32.1,12.69-63.59,33.21-87.89,10.44-12.07,22.8-22.37,36.09-31.19,20-13.25,42.77-21.14,65.57-27.93,15.1-4.82,30.75-7.73,46.06-11.69,22.94-6.11,44.35-17.18,63.86-30.58h.01Z"/>
      <path class="hair-outline-1" d="M298.51,86.98c-28.84-.44-57.77,5.1-84.16,16.77-50.21,22.29-96.57,65.91-102.13,123.07-2.03,18.03.44,36.21,3.85,53.96,1.09,5.99,2.34,11.85,3.97,17.67,3.21,11.64,7.72,22.89,12.95,33.8,5.38,10.86,11.38,21.66,15.42,33.19,12.74,34.33,13.93,73.84-1.5,107.49-4.9,11.24-12.31,21.12-16.28,32.59-3.99,11.14-4,25.22,4.83,34.08-9.13-8.7-9.44-23.03-5.59-34.34,3.82-11.7,11.08-21.77,15.69-32.94,14.88-33.41,13.09-72.2.41-106-4.08-11.49-10-21.97-15.45-32.89-8.07-16.45-14.21-34.04-17.35-52.12-3.57-17.99-5.93-36.45-3.81-54.81,6.02-58.49,52.67-101.97,104.32-124.25,26.66-11.36,55.95-16.47,84.81-15.28h.02Z"/>
      <path class="hair-outline-1" d="M407.12,65.75C372.42,23.73,323.39.2,268.62,3.29c-39.53,2-77.7,16.84-110.28,38.94-10.96,7.34-21.24,15.65-31.05,24.5,7.13-6.88,14.63-13.39,22.5-19.42,80.48-62.15,191.28-66.61,257.33,18.44h0Z"/>
      <path class="hair-outline-1" d="M406.46,81.93c-20.83-20.4-46.17-36.21-73.79-45.57-81.23-26.4-184.59.64-234.07,72.38-22.03,32.06-30.19,71.9-26.9,110.34,1.96,29.02,8.11,58.01,7.58,87.31.11,39.75-18.29,75.93-35.07,110.86-12.48,25.94-24.21,53.76-22.32,83.11,1.4,21.22,10.28,35.62,23,52.05,5.84,7.76,11.89,15.49,16.54,24.14,6.96,12.89,10.59,27.68,10.03,42.34-.55,14.67-6.25,28.98-16,39.96,9.55-11.08,14.98-25.38,15.38-39.98.56-26.9-10.86-45.47-27.11-65.56-9.82-12.44-19.05-26.03-22.17-41.85-4.68-23.02.42-46.84,8.7-68.43,24.95-61.09,53.31-95,44.87-165.67-2.81-28.95-8.61-58.12-6.63-87.44,3.32-60.86,39.87-112.65,93.78-140,43.51-22.06,94.32-30.44,142.46-22.04,38.46,6.7,74.35,26.37,101.73,54.04h0Z"/>
      <path class="hair-outline-1" d="M409.21,86.31c-33.74-16.78-70.87-26.9-108.35-30.48-3.62-.39-9.56-.77-13.26-1.02-2.38-.04-7.71-.31-9.97-.35-1.96-.04-7.9.02-9.97,0-2.35.11-7.72.25-9.96.35-1.98.12-7.85.58-9.94.72-3.81.42-9.46.99-13.18,1.61-46.56,6.7-89.93,27.32-117.92,66.13-25.37,35.15-39.13,82.35-26.17,124.79,4.88,17.06,12.1,33.38,17.34,50.39,7.91,25.65,10.27,53.18,5.56,79.69-3.05,17.68-10.04,34.69-20.1,49.49-14.23,22.19-33.11,42.77-37.43,69.46-2.94,17.82,5,34.84,14.6,49.43,4.73,7.53,9.79,14.96,13.19,23.22,6.95,16.55,7.81,34.88,6.24,52.55,1.72-21.99-.95-45.11-13.16-63.96-7.06-11.33-15.21-22.1-19.76-34.84-13.19-36.46,16.08-68.56,34.38-97.12,25.09-36.97,26.84-85.35,13.81-127.11-9.27-29.51-24.86-58.52-22.5-90.37,2.64-47.02,27.03-92.46,64.84-120.52,25.32-18.53,55.86-29.09,86.8-33.27,1.62-.25,5-.7,6.64-.83l6.66-.69,6.68-.43c1.63-.11,5.04-.3,6.68-.31l6.69-.18,6.69.06c3.84-.05,9.51.33,13.36.46,1.84.19,8.13.59,10,.77,7.32.75,15.94,1.81,23.17,3.11,30.61,5.26,60.78,14.88,88.35,29.25h0Z"/>
      <path class="hair-outline-1" d="M422.59,74.82c5.84-8.77,18.55-12.44,27.96-7.46-10.11-2.02-20.08.93-27.96,7.46h0Z"/>
      <path class="hair-outline-1" d="M427.56,81.03c18.65-7.55,39.67,2.41,48.46,19.88-11.55-15.7-28.97-24.26-48.46-19.88h0Z"/>
      <path class="hair-outline-1" d="M426.93,101.53c14.68-5.87,29.69-3.98,42.16,5.88,17.16,13.63,25.09,36.17,26.18,57.49-2.99-21.36-11.13-43.52-28.67-57.02-12.01-8.91-25.44-10.62-39.67-6.35h0Z"/>
      <path class="hair-outline-2" d="M434.02,144.37c42.65,29.35,58.69,77.54,56.65,127.67-2.08,50.99-17.02,99.56,13.48,145.71,18.92,28.64,43.3,53.86,47.13,89.55,3.84,35.76-9.2,72.05-26.23,102.92-3.61,6.55-7.5,12.93-11.66,19.14"/>
      <path class="hair-outline-1" d="M407.95,98.06c-3.84,26.18-1.42,53.68,9.32,77.99,5.33,12.22,13.66,22.66,21,33.71,16.42,25.07,28.4,53.12,35.07,82.35,3.54,16.28,5.56,33.03,4.82,49.7-.48,13.35-4.42,26.3-6.29,39.39-.87,6.52-.94,13.13-.41,19.69.54,6.55,1.38,13.15,2.99,19.51,1.51,6.39,4.32,12.36,7.07,18.42,8.42,18.11,15.03,37.01,21.21,55.97,4.13,12.65,8.33,25.28,11.63,38.19,4.33,17.17,6.08,32.4-.35,49.4-2.06,5.7-6.19,12.51-9.1,17.81-7.97,14.56-11.19,31.19-13.19,47.52-2.39,20.91,3.43,40.91,24.81,48.8-21.6-7.69-27.68-27.75-25.54-48.87,1.78-16.51,4.91-33.26,12.86-48.02,2.9-5.26,6.9-12.17,8.91-17.71,3.39-9.25,4.76-19.28,3.65-29.08-2.27-19.76-9.35-38.62-15.36-57.49-6.22-18.91-12.83-37.7-21.27-55.74-2.75-6.01-5.65-12.15-7.22-18.73-3.09-13.05-4.34-26.6-2.62-39.93.87-6.66,2.47-13.15,3.76-19.64,1.99-9.68,3.01-19.63,2.75-29.5-1.14-43.02-16.19-85.23-39.22-121.36-7.26-11.11-15.6-21.7-20.83-34.01-10.49-24.58-12.59-52.16-8.43-78.39h0l-.02.02Z"/>
      <path class="hair-outline-2" d="M189.47,582.49c5.23-.64,10.44,2.04,43.14,45.52,13.68,18.19,20.11,27.49,17.26,36.89-2.09,6.89-9.59,15.2-10.12,15.77-6.02,6.59-10.1,7.8-12.2,13.09-2.19,5.53-.64,11.54,1.49,16.36-3.75-2.92-9.22-8.12-11.01-15.77-2.87-12.26,5.05-25,5.06-24.99,0,0-2.93,15.27-14.28,25.29-2.51,2.21-7.89,6.83-15.77,7.85-14.8,1.9-25.8-10.53-27.08-12.01,3.19.15,15.21.32,26.18-8.33,3.06-2.41,12.75-10.8,14.28-24.4,1.59-14.08-6.17-28.38-19.64-36.6,1.5,7.01,3.53,21.72-2.98,37.79-2.93,7.24-10.51,25.97-29.46,31.24-14.42,4.01-27.07-2.1-30.94-4.17,6.64.35,12.79-3.63,15.17-9.82,2.41-6.24.47-13.37-4.76-17.55,8.12-12.61,20.61-31.89,36.6-56.23,8.38-12.76,12.7-19.16,19.04-19.93h.02Z"/>
    </g>
  </g>
</svg>