<?xml version="1.0" encoding="UTF-8"?>
<svg id="Layer_2" data-name="Layer 2" xmlns="http://www.w3.org/2000/svg" xmlns:xlink="http://www.w3.org/1999/xlink" viewBox="0 0 521.15 845.46">
  <defs>
    <style>
      .cls-1, .cls-2, .cls-3, .cls-4, .cls-5, .cls-6, .cls-7, .cls-8 {
        stroke: #000;
        stroke-miterlimit: 10;
      }

      .cls-1, .cls-4, .cls-5 {
        fill: none;
      }

      .cls-1, .cls-6, .cls-7, .cls-8 {
        stroke-width: 3px;
      }

      .cls-9 {
        clip-path: url(#clippath);
      }

      .cls-10, .cls-3 {
        fill: #f978ad;
      }

      .cls-11, .cls-2, .cls-8 {
        fill: #eed6b2;
      }

      .cls-2, .cls-3, .cls-4 {
        stroke-width: 2px;
      }

      .cls-12 {
        clip-path: url(#clippath-1);
      }

      .cls-13 {
        clip-path: url(#clippath-4);
      }

      .cls-14 {
        clip-path: url(#clippath-3);
      }

      .cls-15 {
        clip-path: url(#clippath-2);
      }

      .cls-6 {
        fill: #e0800e;
      }

      .cls-7 {
        fill: #281400;
      }

      .cls-16, .cls-17, .cls-18, .cls-19 {
        stroke-width: 0px;
      }

      .cls-17 {
        fill: #c63c7e;
      }

      .cls-18 {
        fill: #e1bc8f;
      }

      .cls-19 {
        fill: #e5c396;
      }
    </style>
    <clipPath id="clippath">
      <path class="cls-3" d="M221.95,603.49c-11.11,2.28-27.89,7.14-45.65,18.32-21.94,13.81-34.99,30.75-41.72,40.99,6.34,2.06,19.45,7.27,31,19.93,9.59,10.51,13.81,21.43,15.69,27.62,1.44-1.57,3.75-3.54,6.83-3.93,5.75-.72,10.73,4.56,17.11,11.97,15.14,17.59,19.19,23.88,19.19,23.88,13.71,21.32,20.66,31.95,23.84,42.24,2.74,8.88,6.06,23.81,4.18,43.08,24.6.38,49.49.58,74.66.61,17.44.02,34.75-.05,51.92-.21-5.15-12-7.7-22.64-9.05-30.49-3.84-22.34-.99-39.63.92-50.63,2.4-13.8,3.71-20.85,9.13-28.23,3.63-4.94,6.82-6.98,9.35-12.61,3.65-8.13,2.68-16.56,1.22-22.55,6.95-4.98,13.9-9.97,20.85-14.95-.8-15.3-3.69-27.24-6.23-35.34-3.06-9.77-5.22-12.74-6.88-14.62-3.77-4.25-8.6-6.9-26.81-11.62-6.97-1.81-16.03-3.95-26.76-5.94,2.74,3.48,13.3,17.72,11.78,37.83-.33,4.38-1.71,22.71-16.26,34.18-17.4,13.71-41.77,8.26-55.36,1.01-8.62-4.6-12.23-9.57-27.01-27.65-7.89-9.65-20.16-24.49-35.93-42.88Z"/>
    </clipPath>
    <clipPath id="clippath-1">
      <path class="cls-2" d="M256.37,546.75c-3.26,4.47,1.4,8.68-1.24,22.01-.78,3.95-2.68,12.96-9.61,21.08-8.13,9.52-18.74,12.59-23.56,13.64,5.21,5.29,13.54,14.08,22.94,25.73,19.41,24.07,21.97,33.78,36.59,42.79,5.05,3.12,19.15,11.53,37.21,8.99,3.67-.52,24.37-3.85,33.49-20.77,4.03-7.47,4.19-14.6,4.34-21.39.11-4.84-.2-16.5-6.51-29.15-1.88-3.76-3.82-6.69-5.27-8.68-5.11.19-12.16-.43-17.67-4.96-10.21-8.39-4.58-21.52-11.78-34.11-12.01-21-51.25-25.68-58.91-15.19Z"/>
    </clipPath>
    <clipPath id="clippath-2">
      <path class="cls-2" d="M390.12,682c3.04,9.5,2.14,16.19.67,20.63-2.89,8.71-8.25,9.53-12.98,20.3-4.02,9.15-4.02,17.37-3.99,20.3.1,9.24,2.82,12.86,5.99,23.96,3.87,13.52,4.49,24.44,4.99,33.27,1.39,24.47-4.33,28.16.33,34.93,11.37,16.53,53.91,6.9,55.56-.67.19-.86.87-6.38.87-6.37h0c-18.89-63.84-20.84-81.46-20.84-81.46-1.84-16.64-.67-21.99-3.85-49.48-1.46-12.62-3.03-22.93-4.13-29.7-7.54,4.77-15.08,9.54-22.62,14.31Z"/>
    </clipPath>
    <clipPath id="clippath-3">
      <path class="cls-2" d="M134.59,662.8c-4.6,8.04-20.91,36.52-30.41,53.12-7.2,12.57-24.51,42.78-35.13,69.39-3.93,9.86-5.75,17.9-9.38,33.97-2.05,9.07-2.02,10.57-1.33,12.29,6.95,17.19,59.34,4.33,70.25.86,1.73-.55,4.32-1.47,5.14-3.66,2.16-5.8-11.44-11.85-13.28-22.9-1-5.98,1.9-10.72,7.71-19.7,21.54-33.29,37.2-54.24,37.2-54.24,3.5-4.68,9.07-12.17,15.91-21.58-.97-4.33-2.95-10.78-7.28-17.56-4.49-7.02-9.41-11.12-14.14-14.99-5.29-4.33-13.62-10.21-25.27-14.99Z"/>
    </clipPath>
    <clipPath id="clippath-4">
      <path class="cls-8" d="M467.39,387.74c-7.05,30.68-20,54.59-30.07,73.16-10,18.45-26.88,45.82-53.62,73.17-19.02,19.45-31.7,27.3-41.09,32.07-6.79,3.44-14.42,7.31-23.16,9.73-6.35,1.76-13.3,2.77-20.94,2.29-16.83-1.03-29-8.72-42.55-18.77-1.66-1.22-3.34-2.49-5.06-3.78-1.67-1.26-3.28-2.52-4.85-3.78-20.28-16.31-32.69-33.02-44.26-48.83-3.44-4.7-28.29-38.68-41.59-70.16-1.25-2.95-2.27-5.61-3.96-8.66-.37-.68-.79-2.09-2.05-3.37-1.64-1.64-3.55-2.16-4.05-2.31-4.99-1.5-16.88-11.26-23.56-23.96-2.06-3.92-3.14-7.2-3.77-10.15-.92-4.31-1.68-7.9-.2-11.18,3.06-6.75,13.45-7.36,14.31-7.4.45-8.36,1.62-19.87,4.74-33.2,10.89-46.5,42.86-102.51,90.47-135.72,14.97-10.44,31.49-18.63,49.38-23.57,10.84-2.99,22.18-4.78,34-5.16,48.81-1.56,98.27,23.03,127.98,61.48,46.4,60.05,29.37,134.23,23.9,158.1Z"/>
    </clipPath>
  </defs>
  <g id="SO_2" data-name="SO 2">
    <g>
      <g>
        <path class="cls-10" d="M221.95,603.49c-11.11,2.28-27.89,7.14-45.65,18.32-21.94,13.81-34.99,30.75-41.72,40.99,6.34,2.06,19.45,7.27,31,19.93,9.59,10.51,13.81,21.43,15.69,27.62,1.44-1.57,3.75-3.54,6.83-3.93,5.75-.72,10.73,4.56,17.11,11.97,15.14,17.59,19.19,23.88,19.19,23.88,13.71,21.32,20.66,31.95,23.84,42.24,2.74,8.88,6.06,23.81,4.18,43.08,24.6.38,49.49.58,74.66.61,17.44.02,34.75-.05,51.92-.21-5.15-12-7.7-22.64-9.05-30.49-3.84-22.34-.99-39.63.92-50.63,2.4-13.8,3.71-20.85,9.13-28.23,3.63-4.94,6.82-6.98,9.35-12.61,3.65-8.13,2.68-16.56,1.22-22.55,6.95-4.98,13.9-9.97,20.85-14.95-.8-15.3-3.69-27.24-6.23-35.34-3.06-9.77-5.22-12.74-6.88-14.62-3.77-4.25-8.6-6.9-26.81-11.62-6.97-1.81-16.03-3.95-26.76-5.94,2.74,3.48,13.3,17.72,11.78,37.83-.33,4.38-1.71,22.71-16.26,34.18-17.4,13.71-41.77,8.26-55.36,1.01-8.62-4.6-12.23-9.57-27.01-27.65-7.89-9.65-20.16-24.49-35.93-42.88Z"/>
        <g class="cls-9">
          <path class="cls-17" d="M187.34,722.35c5.26,2.6,10.26,5.6,14.99,9.07,1.13.83-.64-.61,1.18.93,1.17.99,2.33,1.96,3.47,2.98,2.09,1.87,4.09,3.83,6.03,5.86,7.36,7.71,12.82,15.66,18.21,26.46,11.36,22.75,14.43,48.72,13.98,74.3-.14,7.85,7,15.36,15,15s14.85-6.59,15-15c1-56.32-18.78-118.88-72.71-145.51-7.26-3.58-16.23-1.95-20.52,5.38-3.87,6.62-1.91,16.92,5.38,20.52h0Z"/>
        </g>
        <path class="cls-4" d="M221.95,603.49c-11.11,2.28-27.89,7.14-45.65,18.32-21.94,13.81-34.99,30.75-41.72,40.99,6.34,2.06,19.45,7.27,31,19.93,9.59,10.51,13.81,21.43,15.69,27.62,1.44-1.57,3.75-3.54,6.83-3.93,5.75-.72,10.73,4.56,17.11,11.97,15.14,17.59,19.19,23.88,19.19,23.88,13.71,21.32,20.66,31.95,23.84,42.24,2.74,8.88,6.06,23.81,4.18,43.08,24.6.38,49.49.58,74.66.61,17.44.02,34.75-.05,51.92-.21-5.15-12-7.7-22.64-9.05-30.49-3.84-22.34-.99-39.63.92-50.63,2.4-13.8,3.71-20.85,9.13-28.23,3.63-4.94,6.82-6.98,9.35-12.61,3.65-8.13,2.68-16.56,1.22-22.55,6.95-4.98,13.9-9.97,20.85-14.95-.8-15.3-3.69-27.24-6.23-35.34-3.06-9.77-5.22-12.74-6.88-14.62-3.77-4.25-8.6-6.9-26.81-11.62-6.97-1.81-16.03-3.95-26.76-5.94,2.74,3.48,13.3,17.72,11.78,37.83-.33,4.38-1.71,22.71-16.26,34.18-17.4,13.71-41.77,8.26-55.36,1.01-8.62-4.6-12.23-9.57-27.01-27.65-7.89-9.65-20.16-24.49-35.93-42.88Z"/>
      </g>
      <path class="cls-16" d="M307.76,737c13.19-4.56,26.97-7.19,40.11-11.93,3.21-1.16,6.41-2.43,9.42-4.05,1.7-.92.19-3.51-1.51-2.59-5.61,3.04-11.85,4.93-17.93,6.76-6.98,2.1-14.04,3.95-21.06,5.92-3.29.93-6.58,1.88-9.82,2.99-1.81.63-1.03,3.53.8,2.89h0Z"/>
      <g>
        <path class="cls-11" d="M256.37,546.75c-3.26,4.47,1.4,8.68-1.24,22.01-.78,3.95-2.68,12.96-9.61,21.08-8.13,9.52-18.74,12.59-23.56,13.64,5.21,5.29,13.54,14.08,22.94,25.73,19.41,24.07,21.97,33.78,36.59,42.79,5.05,3.12,19.15,11.53,37.21,8.99,3.67-.52,24.37-3.85,33.49-20.77,4.03-7.47,4.19-14.6,4.34-21.39.11-4.84-.2-16.5-6.51-29.15-1.88-3.76-3.82-6.69-5.27-8.68-5.11.19-12.16-.43-17.67-4.96-10.21-8.39-4.58-21.52-11.78-34.11-12.01-21-51.25-25.68-58.91-15.19Z"/>
        <g class="cls-12">
          <ellipse class="cls-18" cx="270.92" cy="566.54" rx="45.13" ry="25.05"/>
        </g>
        <path class="cls-4" d="M256.37,546.75c-3.26,4.47,1.4,8.68-1.24,22.01-.78,3.95-2.68,12.96-9.61,21.08-8.13,9.52-18.74,12.59-23.56,13.64,5.21,5.29,13.54,14.08,22.94,25.73,19.41,24.07,21.97,33.78,36.59,42.79,5.05,3.12,19.15,11.53,37.21,8.99,3.67-.52,24.37-3.85,33.49-20.77,4.03-7.47,4.19-14.6,4.34-21.39.11-4.84-.2-16.5-6.51-29.15-1.88-3.76-3.82-6.69-5.27-8.68-5.11.19-12.16-.43-17.67-4.96-10.21-8.39-4.58-21.52-11.78-34.11-12.01-21-51.25-25.68-58.91-15.19Z"/>
      </g>
      <g>
        <path class="cls-11" d="M390.12,682c3.04,9.5,2.14,16.19.67,20.63-2.89,8.71-8.25,9.53-12.98,20.3-4.02,9.15-4.02,17.37-3.99,20.3.1,9.24,2.82,12.86,5.99,23.96,3.87,13.52,4.49,24.44,4.99,33.27,1.39,24.47-4.33,28.16.33,34.93,11.37,16.53,53.91,6.9,55.56-.67.19-.86.87-6.38.87-6.37h0c-18.89-63.84-20.84-81.46-20.84-81.46-1.84-16.64-.67-21.99-3.85-49.48-1.46-12.62-3.03-22.93-4.13-29.7-7.54,4.77-15.08,9.54-22.62,14.31Z"/>
        <g class="cls-15">
          <path class="cls-19" d="M382.5,684.99c3.35,12.85-5.37,26.35-7.74,38.77-2.57,13.48-1.38,26.98,1.42,40.33,5.02,23.93,17.14,49.12,11.41,73.96l17.55-4.63c-3.77-4.83-5.68-10.68-6.71-16.63-.96-5.59-7.83-8.73-12.92-7.33-5.91,1.62-8.3,7.31-7.33,12.92,1.68,9.75,6.08,18.17,12.11,25.9,4.89,6.27,15.91,2.47,17.55-4.63,6.5-28.19-4.56-54.9-10.73-82.02-2.78-12.23-4.25-24.83-.98-37.11,4.01-15.08,10.76-29.18,6.62-45.09-3.4-13.07-23.66-7.53-20.25,5.58h0Z"/>
        </g>
        <path class="cls-4" d="M390.12,682c3.04,9.5,2.14,16.19.67,20.63-2.89,8.71-8.25,9.53-12.98,20.3-4.02,9.15-4.02,17.37-3.99,20.3.1,9.24,2.82,12.86,5.99,23.96,3.87,13.52,4.49,24.44,4.99,33.27,1.39,24.47-4.33,28.16.33,34.93,11.37,16.53,53.91,6.9,55.56-.67.19-.86.87-6.38.87-6.37h0c-18.89-63.84-20.84-81.46-20.84-81.46-1.84-16.64-.67-21.99-3.85-49.48-1.46-12.62-3.03-22.93-4.13-29.7-7.54,4.77-15.08,9.54-22.62,14.31Z"/>
      </g>
      <g>
        <path class="cls-11" d="M134.59,662.8c-4.6,8.04-20.91,36.52-30.41,53.12-7.2,12.57-24.51,42.78-35.13,69.39-3.93,9.86-5.75,17.9-9.38,33.97-2.05,9.07-2.02,10.57-1.33,12.29,6.95,17.19,59.34,4.33,70.25.86,1.73-.55,4.32-1.47,5.14-3.66,2.16-5.8-11.44-11.85-13.28-22.9-1-5.98,1.9-10.72,7.71-19.7,21.54-33.29,37.2-54.24,37.2-54.24,3.5-4.68,9.07-12.17,15.91-21.58-.97-4.33-2.95-10.78-7.28-17.56-4.49-7.02-9.41-11.12-14.14-14.99-5.29-4.33-13.62-10.21-25.27-14.99Z"/>
        <g class="cls-14">
          <path class="cls-19" d="M126.51,656.68c-19.7,28.23-34.12,59.52-47.45,91.14-13.68,32.44-30.26,65.92-25.2,102.06.86,6.16,8.71,9.52,14.15,8.03,6.63-1.82,8.9-7.97,8.03-14.15-2.23-15.89,2.49-32.12,7.82-46.91,5.29-14.71,11.52-29.15,17.65-43.53,12.58-29.53,26.45-58.64,44.87-85.03,3.56-5.1.93-12.78-4.13-15.73-5.73-3.35-12.17-.98-15.73,4.13h0Z"/>
          <path class="cls-16" d="M392.55,658.62v71.22c0,23.74,0,47.48,0,71.22v39.98c0,1.93,3,1.93,3,0v-182.43c0-1.93-3-1.93-3,0h0Z"/>
          <path class="cls-16" d="M402.96,764.43c3.7,27.25,8.03,54.41,12.99,81.45,1.39,7.61,2.84,15.21,4.33,22.81.37,1.89,3.26,1.09,2.89-.8-5.3-26.98-9.99-54.08-14.04-81.28-1.14-7.65-2.23-15.32-3.27-22.98-.11-.81-1.14-1.23-1.85-1.05-.87.23-1.16,1.05-1.05,1.85h0Z"/>
        </g>
        <path class="cls-4" d="M134.59,662.8c-4.6,8.04-20.91,36.52-30.41,53.12-7.2,12.57-24.51,42.78-35.13,69.39-3.93,9.86-5.75,17.9-9.38,33.97-2.05,9.07-2.02,10.57-1.33,12.29,6.95,17.19,59.34,4.33,70.25.86,1.73-.55,4.32-1.47,5.14-3.66,2.16-5.8-11.44-11.85-13.28-22.9-1-5.98,1.9-10.72,7.71-19.7,21.54-33.29,37.2-54.24,37.2-54.24,3.5-4.68,9.07-12.17,15.91-21.58-.97-4.33-2.95-10.78-7.28-17.56-4.49-7.02-9.41-11.12-14.14-14.99-5.29-4.33-13.62-10.21-25.27-14.99Z"/>
      </g>
      <g>
        <path class="cls-11" d="M467.39,387.74c-7.05,30.68-20,54.59-30.07,73.16-10,18.45-26.88,45.82-53.62,73.17-19.02,19.45-31.7,27.3-41.09,32.07-6.79,3.44-14.42,7.31-23.16,9.73-6.35,1.76-13.3,2.77-20.94,2.29-16.83-1.03-29-8.72-42.55-18.77-1.66-1.22-3.34-2.49-5.06-3.78-1.67-1.26-3.28-2.52-4.85-3.78-20.28-16.31-32.69-33.02-44.26-48.83-3.44-4.7-28.29-38.68-41.59-70.16-1.25-2.95-2.27-5.61-3.96-8.66-.37-.68-.79-2.09-2.05-3.37-1.64-1.64-3.55-2.16-4.05-2.31-4.99-1.5-16.88-11.26-23.56-23.96-2.06-3.92-3.14-7.2-3.77-10.15-.92-4.31-1.68-7.9-.2-11.18,3.06-6.75,13.45-7.36,14.31-7.4.45-8.36,1.62-19.87,4.74-33.2,10.89-46.5,42.86-102.51,90.47-135.72,14.97-10.44,31.49-18.63,49.38-23.57,10.84-2.99,22.18-4.78,34-5.16,48.81-1.56,98.27,23.03,127.98,61.48,46.4,60.05,29.37,134.23,23.9,158.1Z"/>
        <g class="cls-13">
          <path class="cls-18" d="M297.13,153.68c-22.69,26.96-60.68,79.79-77.19,156.15-26.43,122.31,20.58,220.32,36.02,249.56-15.43.06-55.15-1.97-86.59-30.42-21.91-19.82-29.4-42.5-39.04-77.19-12.35-44.47-24.07-86.67-9.76-139.29,14.61-53.71,47.62-86.26,60.33-98.48,44.8-43.08,94.84-56.07,116.22-60.33Z"/>
        </g>
        <path class="cls-1" d="M467.39,387.74c-7.05,30.68-20,54.59-30.07,73.16-10,18.45-26.88,45.82-53.62,73.17-19.02,19.45-31.7,27.3-41.09,32.07-6.79,3.44-14.42,7.31-23.16,9.73-6.35,1.76-13.3,2.77-20.94,2.29-16.83-1.03-29-8.72-42.55-18.77-1.66-1.22-3.34-2.49-5.06-3.78-1.67-1.26-3.28-2.52-4.85-3.78-20.28-16.31-32.69-33.02-44.26-48.83-3.44-4.7-28.29-38.68-41.59-70.16-1.25-2.95-2.27-5.61-3.96-8.66-.37-.68-.79-2.09-2.05-3.37-1.64-1.64-3.55-2.16-4.05-2.31-4.99-1.5-16.88-11.26-23.56-23.96-2.06-3.92-3.14-7.2-3.77-10.15-.92-4.31-1.68-7.9-.2-11.18,3.06-6.75,13.45-7.36,14.31-7.4.45-8.36,1.62-19.87,4.74-33.2,10.89-46.5,42.86-102.51,90.47-135.72,14.97-10.44,31.49-18.63,49.38-23.57,10.84-2.99,22.18-4.78,34-5.16,48.81-1.56,98.27,23.03,127.98,61.48,46.4,60.05,29.37,134.23,23.9,158.1Z"/>
      </g>
    </g>
    <g>
      <path class="cls-7" d="M416.37,249.91c3.19,6.77,7.88,17.23,12.77,30.38,6.6,17.75,6.11,20.37,10.57,29.94,4.45,9.55,11.68,18.68,25.97,36.54,17.66,22.07,21.23,24.28,24.57,33.89,1.52,4.37,6.25,17.99,1.9,32.95-3.64,12.5-10.11,13.91-28.23,37.49-11.19,14.57-16.79,22-16.73,29.06.15,17.42,20.2,32.7,24.65,36.1,10.89,8.3,16.31,7.82,19.37,14.97,4.44,10.36-1.83,23.33-8.36,30.38-4.92,5.3-14.18,11.75-18.49,8.8-2.72-1.86-2.54-6.83-2.2-9.69-2.68,2.39-6.23,6.33-5.72,10.57,1.05,8.79,19.3,16.6,33.46,11.89,13.85-4.61,18.71-19.52,19.81-22.89.91-2.79,5.3-15.87-.88-27.74-5.2-9.96-12.24-8.31-20.69-18.49-7.99-9.62-12.18-23.7-10.13-35.66,2.26-13.17,10.36-13.77,22.89-32.58,5.21-7.83,16.63-25.39,18.49-49.31,1.33-17.16-2.42-35.52-8.8-42.26-.54-.57-2.17-2.19-3.52-4.84-2.96-5.82-1.97-11.44-1.67-15.79.51-7.42-.9-12.91-2.95-20.83-1.69-6.57-5.94-23.06-16.62-32.61-1.4-1.25-4.38-3.7-5.89-8-1.55-4.42-.61-8.13-.21-10.94,1.19-8.29-1.39-15.07-4.84-24.15-4.49-11.81-7.97-10.16-12.83-22.77-3.49-9.05-2.04-10.8-5.89-17.25-1.31-2.21-5.57-9.17-13.89-14.1-7.57-4.49-9.13-1.74-14.94-5.89-7.88-5.64-5.98-11.39-14.1-16.2-5.25-3.11-8.37-2.09-10.31-5.47-1.89-3.29,0-6.1.21-12.84.18-5.86-1.07-10.23-2.1-13.89-3.34-11.76-8.51-11.76-11.15-22.3-1.36-5.42.09-5.06-1.26-15.36-1.2-9.08-1.8-13.62-4.21-18.73-1.18-2.49-8.01-16.18-20.62-18.94-7.26-1.59-10.44,1.77-14.73-1.26-4.57-3.23-3.14-8.56-6.73-15.99-3.11-6.44-7.73-9.8-14.52-14.73-14.84-10.79-30.19-14.62-38.51-16.62,0,0-22.2-5.34-47.13-2.31-13.64,1.65-17.51,4.57-19.5,6.53-3.7,3.63-4.79,7.73-9.74,9.67-3.99,1.57-7.6.6-10.62,0,0,0-4.6-.93-25.88-.35-15.79.44-28.49,10.39-34.17,14.84-15.55,12.19-14.6,22.07-39,49.7-7.69,8.71-13.03,13.66-18.29,12.42-7.15-1.68-9.79-13.77-10.35-16.57-.54.25-13.21,6.32-14.49,20.02-1.17,12.46,8.09,20.38,9.32,21.4,7.72,6.37,16.57,6.01,18.64,5.87-6.84,2.46-29.26,11.5-43.14,35.55-4.72,8.18-16.47,28.52-10.01,47.97,3.2,9.65,9.14,13.82,10.35,26.92.42,4.58,1.45,15.67-5.18,20.36-4.46,3.15-12.4,3.42-14.49-.35-1.87-3.36,1.72-8.49,2.07-8.97-1.17.07-8.24.6-11.04,5.52-3.64,6.39,2.88,14.98,6.21,18.29,8.06,8.02,19.49,7.12,21.74,6.9,0,0,3.11,14.49,3.11,14.49h0c-19.42,18.98-20.71,20.36-20.71,20.36-9.82,10.57-21.99,23.67-24.85,40.72-4.41,26.36,15.49,49.88,18.64,53.49,16.13,18.49,32.38,18.42,35.55,34.17,2.18,10.84-3.43,21.29-5.52,25.19-5.02,9.35-10.46,11.83-20.71,21.74-11.49,11.11-19.17,18.54-23.12,28.64-8.3,21.25.95,51.63,17.26,59.7,14.83,7.35,24.5,7.25,24.5,7.25,2.11-.02,6.2-.26,10.35,2.07,3.86,2.17,5.47,5.27,7.25,7.94,2.07,3.11,7.71,7.59,18.98,16.57,13.85,11.03,14.86,10.75,16.22,13.8,4.37,9.82-.68,24.74-7.59,25.88-4.99.82-9.97-5.69-11.39-7.59-1.67,1.87-6.18,7.44-4.83,13.11,2.05,8.64,16.28,11.71,25.54,9.32,1.98-.51,8.56-2.21,10.7-7.25,1.17-2.74-.02-4.04,1.38-6.21,2.38-3.7,7.27-2.23,12.23-5.24,3.69-2.24,5.27-5.64,7.1-9.6,6.1-13.21,1.22-28.8,0-32.44,1.02,1.01,13.35,12.81,30.02,9.32,2.14-.45,19.39-4.36,23.12-20.02,2.51-10.53-2.14-21.98-11.73-28.64,3.43,5.26,2.46,11.53-1.04,14.15-4.08,3.05-10.19.08-13.14-2.53-5.26-4.65-4.85-12-4.8-12.66.62-8.8,8.46-11.4,21.4-24.16,9.2-9.07,22.42-22.11,20.36-35.2-.83-5.26-3.84-8.74-5.18-10.35-7.86-9.49-19.54-28.9-36.49-72.28-.86-2.04-1.81-5.08-1.57-8.7.7-10.63,10.9-14.77,16.99-23.5,8.05-11.54,1.02-19.79,3.55-41.16.9-7.6,3.91-33.08,21.99-49.11,14.24-12.63,31.9-14.13,51.93-15.84,16.22-1.38,20.55.59,44.95,1.98,44.06,2.51,67.63,3.58,90.39-8.4,7.74-4.08,19.53-11.84,30.96-27.26Z"/>
      <path class="cls-16" d="M370.23,216.07c12.82-4.91,28.72-4.52,39.9,4.22,13.89,9.87,11.24,26.27-.94,36.3,9.13-10.71,12.1-24.85-.85-33.9-10.74-8.41-25.05-9-38.11-6.62h0Z"/>
      <path class="cls-16" d="M368.15,254.2c-23.09,21.13-48.86,24.67-78.75,27.18-10.49.74-39.82,2.91-50.74,3.77-2.82.15-5.61.52-8.36,1.13-20.37,4.27-46.27,14.59-51.27,37.12-1.17,8.35,1.49,16.79,1.18,25.23-.05,5.74-.7,11.46-1.83,17.05-2.1,11.19-5.03,22.46-10.79,32.42-4.3,7.48-9.92,14.27-16.69,19.66-2.26,1.77-4.59,3.45-6.92,5.06-4.39,3.1-9.18,6.25-11.01,11.44-3.85,10.73,2.78,21.41,8.67,30.07,3.2,4.57,6.45,9.23,10.03,13.51,5.32,6.61,11.9,11.82,18.15,17.6,6.7,6.03,9.33,15.71,8.48,24.41-1.56,20.88-18.84,34.62-39.52,32.11-7.56-1.11-14.25-5.37-16.94-12.75-3.44-8.38-3.17-23.78,9.82-19.42-6.3,3.55-9.03,9.83-1.89,14.45,5.09,3.34,11.98,2.9,16.33-1.52,0,0,.21.21.21.21-2.14,2.16-4.97,3.75-8.07,4.08-7.59.93-18.04-6.22-12.07-14.23.95-1.28,2.11-2.36,3.41-3.28l.22,1.24c-10.22-2.53-8.95,11.86-6.23,17.74,2.23,5.82,7.5,9.68,13.52,10.83,7.36,1.49,15.21.13,21.86-3.27,9.89-4.93,15.76-15.6,16.43-26.43.38-5.4-.44-11-2.84-15.69-2.39-4.72-6.88-8.14-11.15-11.89-8.82-7.32-15.88-16.52-22.26-26.01-6.43-9.37-13.16-21.14-8.79-32.76,3.26-8.54,12.38-12.1,18.93-17.53,6.57-5.15,12-11.61,16.22-18.82,5.69-9.7,8.59-20.65,10.72-31.65,1.73-8.24,2.34-16.65,1.53-25.03-.46-5.67-1.64-11.42-.63-17.16,5.26-25.11,38.49-37.37,61.31-39.33,0,0,33.94-2.3,33.94-2.3,9.71-.56,24.23-1.4,33.82-2.71,26.2-2.8,41.64-8.36,61.95-24.54h0Z"/>
      <path class="cls-16" d="M137.46,335.75c4.96-20.86,22.01-36.33,39.75-47.03,13.74-7.88,28.95-12.6,43.93-17.5,10.04-3.19,20.47-4.88,30.63-7.61,5.08-1.33,10.12-2.81,15.16-4.32,31.14-8.39,60.76-23.1,83.78-45.98-1.54,11.08-6.2,21.99-14.49,29.7-7.58,7.31-17.67,11.27-27.65,14.01-22.36,6.1-44.81,12.02-66.91,18.93-7.31,2.56-15.03,4.16-22.58,5.64-14.48,3.27-31.13,4.93-44.6,11.21-4.58,2.24-8.67,5.17-12.62,8.41-9.49,7.45-19.3,18.28-16.84,31.21,1.59,7.49,7.05,13.44,10.3,20.29,3.61,7.02,5.47,14.81,6.52,22.57,1.19,7.82,1.11,16.19-2.51,23.47-4.45,10.38-14.95,14.34-23.78,20.02-6.35,4.04-11.53,9.72-15.05,16.34-5.8,10.82-9.08,24.14-4.44,35.91,1.82,4.58,4.8,8.68,8.04,12.58,5.72,6.89,14.87,15.87,21.15,22.42,8.7,8.62,11.88,18.62,4.78,29.54,0,0-2.79,4.31-2.79,4.31l.04-5.12c.07-7.4-1.97-15-6.96-20.53-3.35-3.76-8.05-5.86-12.45-8.29-9.08-5.09-18.02-10.87-25.32-18.42-7.5-7.75-11.56-18.52-9.59-29.27,2.37-12.94,9.95-24.61,19.68-33.24,5.87-5.16,12.2-9.69,18.73-13.92,2.17-1.41,4.36-2.77,6.36-4.35,4.1-3.05,6.86-7.58,8.5-12.4,1.62-4.82,1.95-10.17.37-15.02-1.58-4.89-5.55-8.56-7.9-13.23-5.12-9.37-3.89-20.48-1.23-30.38h0ZM137.75,335.82c-2.56,9.85-3.72,20.83,1.41,30.06,2.37,4.6,6.36,8.26,8.04,13.27,2.85,8.81-.05,18.83-6.01,25.68-2.66,2.89-6.04,5.01-9.26,7.17-6.41,4.29-12.68,8.9-18.38,14.06-9.36,8.54-16.57,19.94-18.7,32.51-2.2,13.31,4.85,24.47,15.02,32.45,5.99,4.71,12.47,8.98,19.23,12.58,4.62,2.47,9.62,4.73,13.26,8.75,1.86,2.03,3.37,4.31,4.54,6.76,2.37,4.9,3.35,10.34,3.35,15.67l-2.76-.81c6.38-9.83,3.24-18.2-4.44-25.87-6.46-6.7-15.37-15.52-21.27-22.57-3.33-4.01-6.5-8.35-8.51-13.38-5.45-13.97-.96-29.61,6.6-41.87,3.63-5.54,8.49-10.43,14.06-13.92,8.45-5.48,18.65-9.04,22.88-18.78,3.39-6.71,3.46-14.56,2.38-21.92-.98-7.54-2.71-14.99-6.16-21.8-3.34-7.03-8.85-13.12-10.42-20.97-2.63-13.87,7.62-25.58,17.8-33.47,4.05-3.31,8.36-6.35,13.08-8.64,13.75-6.37,30.47-8.01,45.17-11.23,7.63-1.47,15.07-2.98,22.39-5.51,22.15-6.84,44.69-12.7,67.04-18.71,9.8-2.67,19.56-6.42,27-13.52,7.46-6.93,12.03-16.56,13.73-26.54,0,0,1.26.68,1.26.68-28.45,27.13-60.85,38.92-98.14,48.36-10.18,2.66-20.6,4.27-30.66,7.41-5.03,1.52-10.01,3.22-14.99,4.89-14.9,4.99-29.73,11.11-41.9,21.28-12.27,9.72-23.09,22.32-26.66,37.9h0Z"/>
      <path class="cls-16" d="M137.77,363.81c-9.01-1.63-17.89-7.26-21.62-15.98-2.59-5.75-2.83-12.21-2.91-18.37-.03-3.03.07-6.18.54-9.24.92-6.14,2.77-12.14,5.7-17.55l.28.11c-2.14,8.85-3.27,17.67-3.55,26.76-.36,5.92-.43,11.99,1.74,17.55,3.22,8.49,11.21,14.14,19.89,16.44,0,0-.07.29-.07.29h0Z"/>
      <path class="cls-16" d="M143.46,327.04c-12.79-4.08-23.95-14.55-27.7-27.78-3.88-13.27-.9-27.37,4.19-39.87,3.47-8.34,8.68-15.9,15.15-22-11.01,13.72-17.47,30.85-18.13,48.35-.59,18.28,10.17,33.48,26.49,41.31h0Z"/>
      <path class="cls-16" d="M147.03,610.53c-8.72-3.89-16-10.8-21.21-18.81-7.41-10.64-10.87-25.52-2.19-36.49,1.99-2.55,4.39-4.72,7.07-6.4-4.55,4.35-8.03,9.73-9.09,15.66-1.75,8.99,1.83,18.11,6.6,25.69,4.82,8.05,11.09,14.85,18.83,20.34h0Z"/>
      <path class="cls-16" d="M112.55,656.51c20.41-35.22-11.41-65-15-99.47-1.41-14.24,3.12-28.29,9.55-40.76,3.23-6.2,6.64-12.28,10.21-18.28-5.89,12.5-12.53,24.94-15.66,38.43-3.21,13.51-1.25,27.34,3.7,40.2,9.84,26.14,25.65,53.33,7.2,79.88h0Z"/>
      <path class="cls-1" d="M457.16,335.59c32.45,10.75,52.74,44.61,41.41,78.03-6.9,20.35-20.46,37.54-32.21,55.17-4.23,6.35-7.26,14.41-4.56,21.55,1.45,3.82,4.36,6.87,7.32,9.68,9.6,9.14,20.47,16.94,32.19,23.13"/>
      <path class="cls-16" d="M426.33,272.87c4.97,8.23,10.98,15.82,17.88,22.44,3.42,3.34,7.08,6.42,10.96,9.19,3.86,2.8,7.95,5.31,12.02,7.89,4.08,2.57,8.16,5.22,12.08,8.1,3.91,2.9,7.66,6.02,11.14,9.42,3.49,3.39,6.77,6.98,9.83,10.75,3.07,3.76,5.88,7.71,8.42,11.83l-.24.18c-6.4-7.23-12.96-14.2-20.06-20.57-7.08-6.38-14.47-12.38-22.49-17.7-3.98-2.7-8.03-5.36-11.87-8.34-3.86-2.95-7.5-6.2-10.86-9.7-6.72-7-12.44-14.9-17.08-23.35l.26-.15Z"/>
      <path class="cls-16" d="M438.76,264.73c22.69,7.52,46.67,24.46,58.5,45.58,4.05,7.44,6.94,15.52,8.18,23.82l-.29.07c-2.84-7.86-6.24-15.39-10.5-22.4-8.28-14.27-20.18-26.24-33.94-35.32-6.89-4.6-14.3-8.45-22.06-11.47l.1-.28h0Z"/>
      <path class="cls-16" d="M115.32,337c-8.29,13.46-13.76,29.03-14.86,44.77-.54,11.82,1.84,23.55,5.99,34.56,1.43,3.68,3.07,7.31,4.9,10.88l-.25.16c-16.1-19.79-16.45-46.36-7.26-69.26,2.85-7.55,6.63-14.71,11.23-21.27l.25.17h0Z"/>
      <path class="cls-16" d="M118.72,305.22c-5.43,9.02-12.78,17.26-21.93,22.71-5.94,3.54-12.6,5.97-17.36,11-11.97,12.41-15.06,31.31-12.25,47.88,3.43,19.07,15.01,35.11,25.81,50.77,5.01,8.8,1.88,18.23-2.62,26.4-8.36,15.53-18.43,29.97-28.12,44.63-3.68,5.81-5.97,12.38-7.62,19.03-2.43,9.83-2.74,20.67,2.05,29.82,2.53,5.26,7.46,12.22,14.07,9.35,5.12-2.01,5.02-6.65.91-9.75-1.21-.92-2.67-1.55-4.19-1.91l-12.08-2.91c5.19.19,15.2-.82,20.06,1.15,7.88,2.71,13.08,11.18,8.45,18.91-5.02,8.52-14.89,14.17-24.78,13.35,7.34.04,14.21-3.18,19.1-8.51,3.03-3.21,5.97-7.59,5.12-12.11-1.4-6.84-9.18-9.83-15.51-9.85,0,0,.31-2.96.31-2.96,5.76,1.07,12.12,7.58,8.53,13.57-2.45,3.51-6.6,5.12-10.76,4.52-4.01-.7-6.98-3.68-9.15-6.8-7.59-10.68-8.22-24.25-5.05-36.59,1.72-6.96,4.14-13.83,7.98-19.91,1.9-3.03,3.91-5.91,5.87-8.82,7.79-11.58,15.5-23.39,22.14-35.63,2.31-4.54,4.63-9.13,4.85-14.2.08-3.21-.56-6.52-2.18-9.34-2.68-4.41-6.17-8.48-8.9-12.94-7.69-11.85-14.71-24.65-17.24-38.77-3.02-17.55.44-37.29,13.01-50.57,5.1-5.31,12.34-7.3,18.57-10.59,9.29-4.84,16.84-12.44,22.91-20.96h0Z"/>
      <path class="cls-16" d="M164.73,188.31c-7.99,7.25-14.51,15.84-20.26,24.93-2.91,4.48-5.64,9.14-6.71,14.25-1.26,5.14-.25,10.33,1.64,15.22,1.85,4.97,4.13,9.86,6.35,14.76,3.16,7.46,7.43,14.43,9.95,22.22,2.28,7.91,2.63,16.36,1.17,24.39,0,0-.3-.03-.3-.03.15-5.39-.28-10.73-1.31-15.93-1.02-5.24-2.77-10.09-5.31-14.8-2.49-4.77-4.87-9.69-6.92-14.68-2.91-7.58-6.7-15.03-7.82-23.23-.95-8.42,3.36-16.47,8.01-23.01,6.1-8.9,13.02-17.36,21.3-24.32,0,0,.2.22.2.22h0Z"/>
      <path class="cls-16" d="M222.34,141.54c-38.77,9.47-77.34,51.69-49.2,90.46,5.61,7.2,12.92,13.5,19.36,20.04,4.1,3.95,8.08,8.36,10.2,13.74,1.4,3.58,2.13,7.39,2.09,11.17h-.3c-.41-3.7-1.37-7.34-3.04-10.61-3.21-6.81-9.36-11.28-14.78-16.32-2.78-2.53-5.55-5.07-8.28-7.68-11.52-10.29-18.66-25.56-17.26-41.17,1.4-15.04,10.22-29.45,21.34-39.36,11.26-10.07,25.08-17.21,39.79-20.56,0,0,.07.29.07.29h0Z"/>
      <path class="cls-16" d="M230.03,138.78c-8.33,4.88-15.52,11.43-21.32,19.11-7.95,9.86-13.04,22.26-12.28,35.05.5,17.37,9.02,29.14,20.23,41.53,3.08,3.74,6.86,6.95,9.57,11.08,4.42,7.14,4.5,16.18,2.12,23.98,0,0-.29-.07-.29-.07,1.02-6.31.86-12.89-1.61-18.59-2.44-5.96-7.85-9.65-12.01-14.41-4.39-4.78-8.65-9.77-12.1-15.33-6.97-11.19-9.5-24.99-7.34-37.95,1.65-9.73,6.46-18.61,12.79-26.05,6.07-7.55,13.6-14,22.11-18.62,0,0,.15.26.15.26h0Z"/>
      <path class="cls-16" d="M235.14,137.09c-5.04,3.41-8.3,9.39-7.71,15.5.58,5.89,3.63,11.76,8.5,15.22,4.99,3.45,10.84,5.8,16.01,9.08,10.71,6.33,19.74,15.22,28.01,24.37,4.11,4.57,8.45,9.05,11.78,14.54,6.79,10.94,5.45,25.44-.76,36.25,0,0-.27-.13-.27-.13,2.25-5.72,3.54-11.77,3.44-17.76-.09-9.56-4.22-17.01-10.4-23.96-9.89-11.6-19.74-23.56-32.84-31.65-7.48-5.21-17.72-7.98-21.86-16.86-2.89-5.53-3.61-12.56-.44-18.13,1.52-2.75,3.77-5.03,6.36-6.72l.17.25h0Z"/>
      <path class="cls-16" d="M282.1,124.71c-8.68,6.48-7.09,12.46.77,18.68,2.9,2.46,5.79,4.68,8.6,7.07,8.92,7.51,17.5,15.44,25.62,23.81,6.02,6.16,12.21,13.28,12.84,22.42.11,3.9-.8,8.97-1.14,12.86-1,8.4-2.11,16.79-3.5,25.15l-.3-.03c.19-10.51.8-21.21,1.59-31.7.11-2.08.35-4.26.25-6.11-.37-3.91-1.8-7.78-3.89-11.14-2.1-3.47-4.85-6.65-7.67-9.75-7.11-7.77-14.64-15.18-22.46-22.24,0,0-4.65-4.17-4.65-4.17l-.07-.05c-1.99-1.75-4.01-3.47-5.99-5.27-2.83-2.69-6.34-5.77-6.58-10-.17-4.25,3.16-7.61,6.41-9.79,0,0,.17.24.17.24h0Z"/>
      <path class="cls-16" d="M294.74,125.31c16.74,14.44,30.24,14.18,49.89,20.19,8.7,2.81,17.19,6.46,25.21,10.89,9.06,4.63,16.44,11.66,14.3,22.73-1.09,6.32-3.88,11.74-4.99,17.54-1.2,5.75-1.08,11.92,1.53,17.42l-.26.14c-3.41-5.25-4.23-11.81-3.35-17.92,1.58-11.64,9.54-23.28-1.35-32.55-2.11-1.94-4.61-3.54-7.18-5.05-7.79-4.61-15.98-8.36-24.53-11.36-11.37-4.02-23.73-5.66-34.57-11.29-5.4-2.86-10.38-6.44-14.88-10.52l.2-.23h0Z"/>
      <path class="cls-16" d="M338.5,126.85c17.16,7.58,34.48,15.49,49.63,26.72,10.39,8.35,21.26,20.27,19.98,34.62-.43,5.61-5.01,9.6-6.13,14.92-1.09,5.1.44,10.43,2.53,15.15,0,0-.26.14-.26.14-3.77-5.68-6.03-13.17-3.27-19.8,1.54-3.6,3.95-6.87,4.15-10.77.52-5.03-1.29-10.08-3.36-14.62-7.2-14.29-21.48-23.35-34.95-31.18-9.25-5.36-18.75-10.33-28.45-14.91l.12-.27h0Z"/>
      <path class="cls-16" d="M375.87,146.27c9.57,3.52,19.2,6.9,28.92,9.94,6.05,1.91,13.45,4.16,15.92,10.78,3.59,12.49,13.67,6.52,13.19,22.42-.16,5.22-.32,10.32-1.33,15.46-2.01,10.32-7.52,19.86-15.27,26.59l-.21-.21c8.27-9.83,12.81-21.77,13.36-34.35.16-4.69,1.31-10.16-.17-14.54-.88-2.27-2.73-3.42-4.8-4.78-2.27-1.5-4.13-3.7-5.33-6.17-1.12-2.37-1.37-4.77-3.04-6.74-3.09-3.83-8.23-5.38-12.79-7.03-9.63-3.42-19.13-7.18-28.56-11.08l.11-.28h0Z"/>
      <path class="cls-16" d="M425.9,176.24c17.84,3.98,37.24,19.35,35.74,39.32-1.01,6.09-4.04,10.71-6.68,15.92-3,4.76-4.48,9.84-3.65,15.59,0,0-.29.07-.29.07-3.13-8.81.42-14.14,3.87-21.96,4.91-9.83,5.64-15.39.87-25.59-5.76-11.21-17.91-19.62-29.93-23.06,0,0,.07-.29.07-.29h0Z"/>
      <path class="cls-16" d="M463.54,215.87c6.57,8.24,11.27,17.78,15.11,27.56,1.96,5.02,4.32,10.05,3.87,15.69-.31,2.63-1.36,5.03-1.52,7.66-.23,2.48-.03,5.02.57,7.58l-.28.12c-1.42-2.26-2.22-4.96-2.4-7.71-.31-2.64.49-5.26.63-7.84,0-4.9-1.57-9.94-3.13-14.66-1.71-4.9-3.39-9.84-5.59-14.55-2.13-4.74-4.69-9.29-7.52-13.68l.24-.17h0Z"/>
      <path class="cls-16" d="M430.46,240.3c22.46,3.53,45.86,17.78,55.39,39.02,0,0-.25.16-.25.16-11.12-13.07-22.97-26.08-38.87-33.22-5.2-2.46-10.69-4.31-16.32-5.67l.06-.29h0Z"/>
      <path class="cls-5" d="M335.72,127.16c-18.59-2.09-46.13-3.02-78.33,3.89-35.55,7.63-62.29,21.72-78.85,32.16,17.15-16.24,33.93-25.6,45.24-30.87,13.03-6.07,35.49-16.31,65.77-15.3,19.48.65,35.31,5.58,46.17,10.12Z"/>
      <path class="cls-6" d="M178.55,163.21c5.03-9.19,15.59-25.48,35.01-38.65,23-15.59,44.87-17.63,58.88-18.93,14.36-1.34,29.73-2.55,43.05,7,4.15,2.97,7.01,6.21,8.82,8.56-13.82-3.16-44.43-8.21-80.59,2.81-33.59,10.24-55.21,29.22-65.17,39.2Z"/>
      <path class="cls-16" d="M227.89,111.46c-9.24-12.93-23.85-22.04-39.56-24.43-7.84-1.04-15.95.49-23.06,3.83-13.94,7.12-13.16,16.17-13.3,29.91-.14,5.74.32,12.14,1,17.87.95,6.24-1.66,12.79-6.59,16.75-3.14,2.7-6.68,4.73-10.26,6.6-7.22,3.63-14.73,6.64-22.56,8.68-7.74,2.07-15.9,2.44-23.65,4.09-7.68,1.68-14.71,5.43-21.03,10.04-17.83,13.13-25.08,29.42-13.99,49.99,1.8,3.43,4.16,6.42,7,9.04,2.94,2.69,6.34,5.2,8.78,8.5,3.59,5.09,6.5,10.86,7.18,17.15,1.02,8.54-6.71,18.52-15.85,16.29-5.35-1.33-9.44-6.31-9.76-11.78-.31-5.38,2.78-10.54,7.3-13.3,0,0,.67,1.33.67,1.33-9.46,3.31-15.51,13.52-13.93,23.45,0,0-.3.05-.3.05-.48-2.49-.53-5.06-.15-7.59,1.13-7.7,6.58-14.45,13.84-17.31,0,0,6.73-2.69,6.73-2.69-2.75,1.93-8.33,4.96-10.09,7.98-4.59,6.49-1.65,15.7,6.21,17.61,5.57,1.36,10.51-3.45,12.13-8.41,1.1-3.46.53-7.31-.83-10.86-1.38-3.51-3.18-7.11-5.51-10.1-2.39-3.13-5.54-5.39-8.49-8.08-3.05-2.77-5.73-6.15-7.66-9.8-1.97-3.62-3.51-7.47-4.5-11.5-4.64-17.72,5.76-32.26,19.68-42.11,6.62-4.72,14.05-8.55,22.06-10.23,3.99-.87,8.01-1.27,11.95-1.79,7.89-.95,15.58-2.79,22.98-5.66,7.26-2.89,14.77-6.03,20.83-11.01,4.58-3.67,6.92-9.37,6.11-15.21,0,0-.55-5.97-.55-5.97-.35-4.01-.39-8.06-.3-12.06.23-6-.12-12.22,1.73-18.06,3.59-9.97,14.44-14.75,24.2-16.37,18.78-3.25,42.34,9.62,51.53,25.13h0Z"/>
      <path class="cls-16" d="M216.15,118.42c-9.04-3.41-21.77-7.34-29.66.29-2.34,2.58-3.13,6.16-4.22,9.41-2.05,6.75-4.36,13.42-6.7,20.08-2.43,6.66-4.84,13.46-9.2,19.19-1.09,1.45-2.32,2.75-3.67,4-4.33,3.36-9.67,4.73-14.69,6.58-6.71,2.24-13.48,4.23-20.28,6.14-6.79,1.92-13.69,3.58-20.51,5.24-3.4.87-6.74,1.75-9.74,3.33-8.84,4.94-17.28,12.2-21.57,21.4-3.03,6.54-2.73,12.74.26,19.3,4.15,9.56,9.76,18.66,14.63,27.98,3.31,6.33,6.02,12.97,7.99,19.85,1.09,4.28,2.58,9.22,1.04,13.79-2.46,6.47-9.97,8.78-16.02,9.92-14.28,3.05-30.41-1.65-36.4-15.91,0,0,.27-.13.27-.13,3.15,6.23,8.66,11.18,15.28,13.36,6.53,2.21,13.73,2.19,20.38.63,4.89-1.23,10.07-2.53,13.03-6.7,4.15-5.38-1.61-18.05-3.85-23.97-4-9.75-9.78-18.61-14.52-28.03-5.32-10.44-10.18-19.58-4.54-31.22,4.86-9.93,13.55-17.14,22.98-22.33,3.28-1.67,6.83-2.56,10.25-3.4,6.89-1.6,13.72-3.17,20.52-5.01,6.79-1.83,13.57-3.75,20.25-5.9,6.53-2.27,13.57-3.9,17.72-9.87,4.26-5.44,6.76-12.13,9.25-18.68,2.42-6.61,4.82-13.23,6.97-19.94,1.17-3.34,2.03-6.97,4.53-9.65,5.24-5.26,13.54-5,20.26-3.37,3.45.8,6.79,1.98,10.06,3.31l-.11.28h0Z"/>
      <path class="cls-16" d="M161,182.99c-20,2.95-39.99,13.61-49.49,32.05-5.94,11.36-7.45,24.4-7.32,37.07-.21,12.88,5.76,25.32,3.2,38.29-2.82,13.27-15.52,20.71-25.72,28.06-10.28,7.5-20.55,15.31-29.64,24.15-3.54,3.58-6.7,7.55-9.02,11.96-6.45,11.56-3.65,24.47,2.71,35.41,3.71,6.66,7.95,13.02,12.56,19.08,6.15,8.26,13.7,15.33,19.16,24.22,2.74,4.6,5,9.7,5.06,15.17,0,10.84-6.96,20.1-13.65,28.02-6.88,7.68-12.69,16.01-18.87,24.14-5.31,7.12-10.25,14.52-13.32,22.86-7.47,20.49.26,44.09,14.92,59.57,0,0-.21.21-.21.21-7.39-7.15-12.99-16.16-16.33-25.96-7.48-22.39-.74-40.14,12.86-58.22,6.11-8.27,11.95-16.85,18.66-24.54,5.88-7.04,11.92-14.86,12.78-24.27.84-15.09-15.2-27.87-23.3-39.5-4.64-6.21-8.88-12.72-12.6-19.52-3.79-6.88-6.61-14.49-6.55-22.5.63-21.89,22.02-35.11,37.44-47.29,11.18-8.9,28.04-16.33,31.48-31.39,2.55-12.62-3.28-25.24-2.89-37.95-.01-12.83,1.66-26.04,7.8-37.49,9.79-18.55,30.04-29.14,50.24-31.93,0,0,.04.3.04.3h0Z"/>
      <path class="cls-16" d="M250.67,108.71c6.29-25.94-6.81-54.43-33.2-62.18-9.11-2.87-19.24-3.47-28.31-.21-10.39,4.17-17.84,12.91-27.64,18.28-6.88,3.97-14.1,7.24-21.46,10.17-2.04.83-5.2,1.95-7.14,2.94-5.68,2.68-10.26,7.25-13.14,12.79,0,0-1.79,3.48-1.79,3.48-1.76,3.48-5.36,10.52-7.12,14.01-2.28,4.74-5.31,9.79-10.16,12.36-7.04,4-15.53,4.17-23.32,3.49,0,0,.02-.3.02-.3,7.63.04,15.8-.55,22.4-4.67,4.5-2.67,6.8-7.36,8.93-11.94,0,0,3.37-7.09,3.37-7.09,2.09-4.19,4.64-10.33,7.13-14.22,3.04-4.59,7.39-8.31,12.3-10.71,4.71-2.19,9.91-3.79,14.64-5.92,4.79-2.02,9.49-4.23,14.02-6.73,8-4.3,14.81-10.78,22.71-15.39,5.81-3.41,12.7-4.81,19.4-4.68,21.79.28,41.69,14.35,47.9,35.42,3.17,10.09,3.31,21,.75,31.18l-.29-.07h0Z"/>
      <path class="cls-16" d="M266.74,106.16c2.53-24.49-6.64-50.27-24.91-66.81-13.71-12.47-31.96-18.43-50.21-19.57-6.13-.4-12.32-.22-18.49.52l-.06-.29c6.04-1.55,12.32-2.35,18.61-2.34,19.23-.25,37.89,6.42,51.78,19.92,18.03,17.07,27.65,44.69,23.28,68.57h0Z"/>
      <path class="cls-16" d="M290.11,83.97c6.63-17.08-7.35-23.53-18.79-32.48-5.63-4.22-11.24-8.48-16.62-13.04-2.71-2.33-5.46-4.68-7.73-7.51-1.19-1.43-2.44-3.46-2.54-5.49-.5-10.85,11.63-21.91,21.04-25.32,0,0,.13.27.13.27-6.01,3.51-10.92,8.51-14.69,14.24-2.16,3.51-4.18,7.71-3.08,11.83.74,1.85,2.32,3.62,3.74,5.14,3.09,3.35,6.61,6.43,10.13,9.47,7.09,6.12,14.59,11.65,21.75,17.73,5.65,4.73,9.99,10.77,8.88,18.5-.28,2.36-.98,4.64-1.94,6.79l-.28-.12h0Z"/>
      <path class="cls-16" d="M288.07,6.16c-10.51,5.81-12.28,13.84-5.58,23.71,2.58,4.07,5.58,7.93,8.52,11.81,4.36,5.94,9.61,11.04,14.02,17,2.22,3.06,3.79,6.66,4.87,10.27,4.68,13.72-1.79,28.54-13.39,36.45,0,0-.19-.23-.19-.23,10.88-10.68,15.18-24.25,9.58-38.74-1.52-4.54-4.34-8.31-7.4-12-6.26-7.53-12.14-15.4-17.3-23.79-4.18-6.79-5.87-14.59.64-20.6,1.8-1.72,3.9-3.05,6.08-4.15l.14.27h0Z"/>
      <path class="cls-16" d="M316.01,108.1c11.14-4.4,20.48-12.71,25.85-23.37,8.69-17.83,5.44-39.73-5.26-56,0,0,.23-.19.23-.19,5.67,5.76,9.73,13.22,11.7,21.23,3.07,13.29.39,27.72-6.91,39.15-5.98,9.14-15.26,15.99-25.51,19.46,0,0-.1-.28-.1-.28h0Z"/>
      <path class="cls-16" d="M326.35,118.1c16.81-8.84,40.33-2.45,46.52,16.54.82,2.55,1.31,5.2,1.23,7.84l-.3.04c-1.55-4.97-3.84-9.45-6.93-13.32-8.22-10.93-19.54-15.22-33.03-12.95-2.51.45-4.99,1.17-7.38,2.13l-.12-.27h0Z"/>
    </g>
  </g>
</svg>