<?xml version="1.0" encoding="UTF-8"?>
<svg id="Layer_2" data-name="Layer 2" xmlns="http://www.w3.org/2000/svg" viewBox="0 0 442.37 320.5">
  <defs>
    <style>
      .cls-1 {
        fill: none;
      }

      .cls-1, .cls-2, .cls-3 {
        stroke-width: 0px;
      }

      .cls-2 {
        fill: #000;
      }

      .cls-3 {
        fill: #fff;
      }
    </style>
  </defs>
  <g id="Layer_1-2" data-name="Layer 1">
    <g>
      <path class="cls-3" d="M436.36,87.37v120.19c0,44.87-36.5,81.37-81.37,81.37H117.08c-8.06,0-15.86-1.18-23.22-3.38,10.27-1.31,20.61-2.19,30.97-2.62,10.27-.43,20.58-.44,30.88,0h199.28c20.04,0,38.94-7.86,53.22-22.15,14.29-14.28,22.16-33.18,22.16-53.22v-120.19c0-20.04-7.87-38.94-22.16-53.22-14.28-14.29-33.18-22.15-53.22-22.15H117.08c-20.04,0-38.94,7.86-53.22,22.15-14.29,14.28-22.15,33.18-22.15,53.22v104.57c.09.99.09,1.98.12,2.86.16,5.63.05,11.26,0,16.89-.01.15-.01.31-.01.46-.01,1.36-.39,2.48-1.02,3.36-.34,5.34-.84,10.66-1.5,15.97-1.35-4.37-2.34-8.91-2.94-13.56-.43-3.39-.65-6.85-.65-10.36v-120.19C35.71,42.5,72.21,6,117.08,6h237.91c44.87,0,81.37,36.5,81.37,81.37Z"/>
      <path class="cls-2" d="M354.99,0H117.08C69.02,0,29.71,39.32,29.71,87.37v120.19c0,1.5.04,3,.11,4.48h0c.03.41.05.8.08,1.2.69,10.76,3.36,21,7.64,30.37.68-4.03,1.27-8.08,1.76-12.13.66-5.31,1.16-10.63,1.5-15.97.63-.88,1.01-2,1.02-3.36,0-.15,0-.31.01-.46-.08-1.37-.12-2.75-.12-4.13v-120.19c0-20.04,7.86-38.94,22.15-53.22,14.28-14.29,33.18-22.15,53.22-22.15h237.91c20.04,0,38.94,7.86,53.22,22.15,14.29,14.28,22.16,33.18,22.16,53.22v120.19c0,20.04-7.87,38.94-22.16,53.22-14.28,14.29-33.18,22.15-53.22,22.15H124.83c-10.36.43-20.7,1.31-30.97,2.62-4.12.52-8.22,1.11-12.32,1.78,10.87,4.88,22.9,7.6,35.54,7.6h237.91c48.06,0,87.38-39.31,87.38-87.37v-120.19c0-48.05-39.32-87.37-87.38-87.37Z"/>
    </g>
    <g>
      <path class="cls-1" d="M430.37,87.37v120.19c0,20.04-7.87,38.94-22.16,53.22-14.28,14.29-33.18,22.15-53.22,22.15h-199.28c-10.3-.44-20.61-.43-30.88,0-10.36.43-20.7,1.31-30.97,2.62-4.12.52-8.22,1.11-12.32,1.78-21.38,3.44-42.45,8.76-62.94,15.91,9.08-18.7,15.39-38.62,18.87-59.18.03-.15.05-.3.07-.45.68-4.03,1.27-8.08,1.76-12.13.66-5.31,1.16-10.63,1.5-15.97.63-.88,1.01-2,1.02-3.36,0-.15,0-.31.01-.46.05-5.63.16-11.26,0-16.89-.03-.88-.03-1.87-.12-2.86v-104.57c0-20.04,7.86-38.94,22.15-53.22,14.28-14.29,33.18-22.15,53.22-22.15h237.91c20.04,0,38.94,7.86,53.22,22.15,14.29,14.28,22.16,33.18,22.16,53.22Z"/>
      <path class="cls-2" d="M159.4,283.1c-1.23-.06-2.46-.12-3.69-.17-10.3-.44-20.61-.43-30.88,0-10.36.43-20.7,1.31-30.97,2.62-4.12.52-8.22,1.11-12.32,1.78-21.38,3.44-42.45,8.76-62.94,15.91,9.08-18.7,15.39-38.62,18.87-59.18.03-.15.05-.3.07-.45.68-4.03,1.27-8.08,1.76-12.13.66-5.31,1.16-10.63,1.5-15.97.63-.88,1.01-2,1.02-3.36,0-.15,0-.31.01-.46.05-5.63.16-11.26,0-16.89-.03-.88-.03-1.87-.12-2.86-.15-1.65-.58-3.28-1.86-4.3-1.26-1-2.7-1.6-4.14-1.67-1.51-.1-3.03.41-4.34,1.67-.8.78-1.33,1.84-1.66,3.06-1.05,3.77-.26,9.06-.34,12.11-.26,11.28-1.1,22.58-2.78,33.75-3.99,26.4-12.44,51.66-25.88,74.75-2.42,4.16,1.7,10.82,6.77,8.82,37.86-14.98,77.81-23.52,118.3-25.2,9.98-.42,19.99-.42,30.01,0,1.2.05,2.41.11,3.61.17.67.03,1.28-.02,1.83-.17,2.8-.68,4.11-3.37,3.93-6-.19-2.85-2.12-5.64-5.76-5.83ZM29.71,192.44v.29c.03.23.08.48.07.58-.03-.1-.06-.19-.07-.27-.05-.23-.06-.44,0-.6Z"/>
    </g>
  </g>
</svg>