<?xml version="1.0" encoding="UTF-8"?>
<svg id="Layer_2" data-name="Layer 2" xmlns="http://www.w3.org/2000/svg" xmlns:xlink="http://www.w3.org/1999/xlink" viewBox="0 0 385.64 305.12">
  <defs>
    <clipPath id="clippath">
      <path class="bust-2" d="M165.04,63.13c-11.11,2.28-27.89,7.14-45.65,18.32-21.94,13.81-34.99,30.75-41.72,40.99,6.34,2.06,19.45,7.27,31,19.93,9.59,10.51,13.81,21.43,15.69,27.62,1.44-1.57,3.75-3.54,6.83-3.93,5.75-.72,10.73,4.56,17.11,11.97,15.14,17.59,19.19,23.88,19.19,23.88,13.71,21.32,20.66,31.95,23.84,42.24,2.74,8.88,6.06,23.81,4.18,43.08,24.6.38,49.49.58,74.66.61,17.44.02,34.75-.05,51.92-.21-5.15-12-7.7-22.64-9.05-30.49-3.84-22.34-.99-39.63.92-50.63,2.4-13.8,3.71-20.85,9.13-28.23,3.63-4.94,6.82-6.98,9.35-12.61,3.65-8.13,2.68-16.56,1.22-22.55,6.95-4.98,13.9-9.97,20.85-14.95-.8-15.3-3.69-27.24-6.23-35.34-3.06-9.77-5.22-12.74-6.88-14.62-3.77-4.25-8.6-6.9-26.81-11.62-6.97-1.81-16.03-3.95-26.76-5.94,2.74,3.48,13.3,17.72,11.78,37.83-.33,4.38-1.71,22.71-16.26,34.18-17.4,13.71-41.77,8.26-55.36,1.01-8.62-4.6-12.23-9.57-27.01-27.65-7.89-9.65-20.16-24.49-35.93-42.88h-.01Z"/>
    </clipPath>
    <clipPath id="clippath-1">
      <path class="bust-2" d="M199.46,6.4c-3.26,4.47,1.4,8.68-1.24,22.01-.78,3.95-2.68,12.96-9.61,21.08-8.13,9.52-18.74,12.59-23.56,13.64,5.21,5.29,13.54,14.08,22.94,25.73,19.41,24.07,21.97,33.78,36.59,42.79,5.05,3.12,19.15,11.53,37.21,8.99,3.67-.52,24.37-3.85,33.49-20.77,4.03-7.47,4.19-14.6,4.34-21.39.11-4.84-.2-16.5-6.51-29.15-1.88-3.76-3.82-6.69-5.27-8.68-5.11.19-12.16-.43-17.67-4.96-10.21-8.39-4.58-21.52-11.78-34.11-12.01-21-51.25-25.68-58.91-15.19h-.02Z"/>
    </clipPath>
    <clipPath id="clippath-2">
      <path class="bust-2" d="M333.2,141.64c3.04,9.5,2.14,16.19.67,20.63-2.89,8.71-8.25,9.53-12.98,20.3-4.02,9.15-4.02,17.37-3.99,20.3.1,9.24,2.82,12.86,5.99,23.96,3.87,13.52,4.49,24.44,4.99,33.27,1.39,24.47-4.33,28.16.33,34.93,11.37,16.53,53.91,6.9,55.56-.67.19-.86.87-6.38.87-6.37h0c-18.89-63.84-20.84-81.46-20.84-81.46-1.84-16.64-.67-21.99-3.85-49.48-1.46-12.62-3.03-22.93-4.13-29.7-7.54,4.77-15.08,9.54-22.62,14.31v-.02Z"/>
    </clipPath>
    <clipPath id="clippath-3">
      <path class="bust-2" d="M77.67,122.45c-4.6,8.04-20.91,36.52-30.41,53.12-7.2,12.57-24.51,42.78-35.13,69.39-3.93,9.86-5.75,17.9-9.38,33.97-2.05,9.07-2.02,10.57-1.33,12.29,6.95,17.19,59.34,4.33,70.25.86,1.73-.55,4.32-1.47,5.14-3.66,2.16-5.8-11.44-11.85-13.28-22.9-1-5.98,1.9-10.72,7.71-19.7,21.54-33.29,37.2-54.24,37.2-54.24,3.5-4.68,9.07-12.17,15.91-21.58-.97-4.33-2.95-10.78-7.28-17.56-4.49-7.02-9.41-11.12-14.14-14.99-5.29-4.33-13.62-10.21-25.27-14.99h.01Z"/>
    </clipPath>
  </defs>
  <g id="SO_1" data-name="SO 1">
    <g>
      <g>
        <path class="bust-7" d="M165.04,63.13c-11.11,2.28-27.89,7.14-45.65,18.32-21.94,13.81-34.99,30.75-41.72,40.99,6.34,2.06,19.45,7.27,31,19.93,9.59,10.51,13.81,21.43,15.69,27.62,1.44-1.57,3.75-3.54,6.83-3.93,5.75-.72,10.73,4.56,17.11,11.97,15.14,17.59,19.19,23.88,19.19,23.88,13.71,21.32,20.66,31.95,23.84,42.24,2.74,8.88,6.06,23.81,4.18,43.08,24.6.38,49.49.58,74.66.61,17.44.02,34.75-.05,51.92-.21-5.15-12-7.7-22.64-9.05-30.49-3.84-22.34-.99-39.63.92-50.63,2.4-13.8,3.71-20.85,9.13-28.23,3.63-4.94,6.82-6.98,9.35-12.61,3.65-8.13,2.68-16.56,1.22-22.55,6.95-4.98,13.9-9.97,20.85-14.95-.8-15.3-3.69-27.24-6.23-35.34-3.06-9.77-5.22-12.74-6.88-14.62-3.77-4.25-8.6-6.9-26.81-11.62-6.97-1.81-16.03-3.95-26.76-5.94,2.74,3.48,13.3,17.72,11.78,37.83-.33,4.38-1.71,22.71-16.26,34.18-17.4,13.71-41.77,8.26-55.36,1.01-8.62-4.6-12.23-9.57-27.01-27.65-7.89-9.65-20.16-24.49-35.93-42.88h-.01Z"/>
        <g class="bust-1">
          <path class="bust-8" d="M130.43,181.99c5.26,2.6,10.26,5.6,14.99,9.07,1.13.83-.64-.61,1.18.93,1.17.99,2.33,1.96,3.47,2.98,2.09,1.87,4.09,3.83,6.03,5.86,7.36,7.71,12.82,15.66,18.21,26.46,11.36,22.75,14.43,48.72,13.98,74.3-.14,7.85,7,15.36,15,15,8.25-.37,14.85-6.59,15-15,1-56.32-18.78-118.88-72.71-145.51-7.26-3.58-16.23-1.95-20.52,5.38-3.87,6.62-1.91,16.92,5.38,20.52h-.01Z"/>
        </g>
        <path class="bust-3" d="M165.04,63.13c-11.11,2.28-27.89,7.14-45.65,18.32-21.94,13.81-34.99,30.75-41.72,40.99,6.34,2.06,19.45,7.27,31,19.93,9.59,10.51,13.81,21.43,15.69,27.62,1.44-1.57,3.75-3.54,6.83-3.93,5.75-.72,10.73,4.56,17.11,11.97,15.14,17.59,19.19,23.88,19.19,23.88,13.71,21.32,20.66,31.95,23.84,42.24,2.74,8.88,6.06,23.81,4.18,43.08,24.6.38,49.49.58,74.66.61,17.44.02,34.75-.05,51.92-.21-5.15-12-7.7-22.64-9.05-30.49-3.84-22.34-.99-39.63.92-50.63,2.4-13.8,3.71-20.85,9.13-28.23,3.63-4.94,6.82-6.98,9.35-12.61,3.65-8.13,2.68-16.56,1.22-22.55,6.95-4.98,13.9-9.97,20.85-14.95-.8-15.3-3.69-27.24-6.23-35.34-3.06-9.77-5.22-12.74-6.88-14.62-3.77-4.25-8.6-6.9-26.81-11.62-6.97-1.81-16.03-3.95-26.76-5.94,2.74,3.48,13.3,17.72,11.78,37.83-.33,4.38-1.71,22.71-16.26,34.18-17.4,13.71-41.77,8.26-55.36,1.01-8.62-4.6-12.23-9.57-27.01-27.65-7.89-9.65-20.16-24.49-35.93-42.88h-.01Z"/>
      </g>
      <path class="bust-6" d="M250.85,196.64c13.19-4.56,26.97-7.19,40.11-11.93,3.21-1.16,6.41-2.43,9.42-4.05,1.7-.92.19-3.51-1.51-2.59-5.61,3.04-11.85,4.93-17.93,6.76-6.98,2.1-14.04,3.95-21.06,5.92-3.29.93-6.58,1.88-9.82,2.99-1.81.63-1.03,3.53.8,2.89h0Z"/>
      <g>
        <path class="bust-4" d="M199.46,6.4c-3.26,4.47,1.4,8.68-1.24,22.01-.78,3.95-2.68,12.96-9.61,21.08-8.13,9.52-18.74,12.59-23.56,13.64,5.21,5.29,13.54,14.08,22.94,25.73,19.41,24.07,21.97,33.78,36.59,42.79,5.05,3.12,19.15,11.53,37.21,8.99,3.67-.52,24.37-3.85,33.49-20.77,4.03-7.47,4.19-14.6,4.34-21.39.11-4.84-.2-16.5-6.51-29.15-1.88-3.76-3.82-6.69-5.27-8.68-5.11.19-12.16-.43-17.67-4.96-10.21-8.39-4.58-21.52-11.78-34.11-12.01-21-51.25-25.68-58.91-15.19h-.02Z"/>
        <g class="bust-10">
          <ellipse class="bust-9" cx="214.01" cy="26.19" rx="45.13" ry="25.05"/>
        </g>
        <path class="bust-3" d="M199.46,6.4c-3.26,4.47,1.4,8.68-1.24,22.01-.78,3.95-2.68,12.96-9.61,21.08-8.13,9.52-18.74,12.59-23.56,13.64,5.21,5.29,13.54,14.08,22.94,25.73,19.41,24.07,21.97,33.78,36.59,42.79,5.05,3.12,19.15,11.53,37.21,8.99,3.67-.52,24.37-3.85,33.49-20.77,4.03-7.47,4.19-14.6,4.34-21.39.11-4.84-.2-16.5-6.51-29.15-1.88-3.76-3.82-6.69-5.27-8.68-5.11.19-12.16-.43-17.67-4.96-10.21-8.39-4.58-21.52-11.78-34.11-12.01-21-51.25-25.68-58.91-15.19h-.02Z"/>
      </g>
      <g>
        <path class="bust-4" d="M333.2,141.64c3.04,9.5,2.14,16.19.67,20.63-2.89,8.71-8.25,9.53-12.98,20.3-4.02,9.15-4.02,17.37-3.99,20.3.1,9.24,2.82,12.86,5.99,23.96,3.87,13.52,4.49,24.44,4.99,33.27,1.39,24.47-4.33,28.16.33,34.93,11.37,16.53,53.91,6.9,55.56-.67.19-.86.87-6.38.87-6.37h0c-18.89-63.84-20.84-81.46-20.84-81.46-1.84-16.64-.67-21.99-3.85-49.48-1.46-12.62-3.03-22.93-4.13-29.7-7.54,4.77-15.08,9.54-22.62,14.31v-.02Z"/>
        <g class="bust-12">
          <path class="bust-5" d="M325.58,144.64c3.35,12.85-5.37,26.35-7.74,38.77-2.57,13.48-1.38,26.98,1.42,40.33,5.02,23.93,17.14,49.12,11.41,73.96,5.85-1.54,11.7-3.09,17.55-4.63-3.77-4.83-5.68-10.68-6.71-16.63-.96-5.59-7.83-8.73-12.92-7.33-5.91,1.62-8.3,7.31-7.33,12.92,1.68,9.75,6.08,18.17,12.11,25.9,4.89,6.27,15.91,2.47,17.55-4.63,6.5-28.19-4.56-54.9-10.73-82.02-2.78-12.23-4.25-24.83-.98-37.11,4.01-15.08,10.76-29.18,6.62-45.09-3.4-13.07-23.66-7.53-20.25,5.58h0v-.02Z"/>
        </g>
        <path class="bust-3" d="M333.2,141.64c3.04,9.5,2.14,16.19.67,20.63-2.89,8.71-8.25,9.53-12.98,20.3-4.02,9.15-4.02,17.37-3.99,20.3.1,9.24,2.82,12.86,5.99,23.96,3.87,13.52,4.49,24.44,4.99,33.27,1.39,24.47-4.33,28.16.33,34.93,11.37,16.53,53.91,6.9,55.56-.67.19-.86.87-6.38.87-6.37h0c-18.89-63.84-20.84-81.46-20.84-81.46-1.84-16.64-.67-21.99-3.85-49.48-1.46-12.62-3.03-22.93-4.13-29.7-7.54,4.77-15.08,9.54-22.62,14.31v-.02Z"/>
      </g>
      <g>
        <path class="bust-4" d="M77.67,122.45c-4.6,8.04-20.91,36.52-30.41,53.12-7.2,12.57-24.51,42.78-35.13,69.39-3.93,9.86-5.75,17.9-9.38,33.97-2.05,9.07-2.02,10.57-1.33,12.29,6.95,17.19,59.34,4.33,70.25.86,1.73-.55,4.32-1.47,5.14-3.66,2.16-5.8-11.44-11.85-13.28-22.9-1-5.98,1.9-10.72,7.71-19.7,21.54-33.29,37.2-54.24,37.2-54.24,3.5-4.68,9.07-12.17,15.91-21.58-.97-4.33-2.95-10.78-7.28-17.56-4.49-7.02-9.41-11.12-14.14-14.99-5.29-4.33-13.62-10.21-25.27-14.99h.01Z"/>
        <g class="bust-11">
          <g>
            <path class="bust-5" d="M69.59,116.32c-19.7,28.23-34.12,59.52-47.45,91.14-13.68,32.44-30.26,65.92-25.2,102.06.86,6.16,8.71,9.52,14.15,8.03,6.63-1.82,8.9-7.97,8.03-14.15-2.23-15.89,2.49-32.12,7.82-46.91,5.29-14.71,11.52-29.15,17.65-43.53,12.58-29.53,26.45-58.64,44.87-85.03,3.56-5.1.93-12.78-4.13-15.73-5.73-3.35-12.17-.98-15.73,4.13h0Z"/>
            <path class="bust-6" d="M335.64,118.27v182.43c0,1.93,3,1.93,3,0V118.27c0-1.93-3-1.93-3,0h0Z"/>
            <path class="bust-6" d="M346.05,224.08c3.7,27.25,8.03,54.41,12.99,81.45,1.39,7.61,2.84,15.21,4.33,22.81.37,1.89,3.26,1.09,2.89-.8-5.3-26.98-9.99-54.08-14.04-81.28-1.14-7.65-2.23-15.32-3.27-22.98-.11-.81-1.14-1.23-1.85-1.05-.87.23-1.16,1.05-1.05,1.85h0Z"/>
          </g>
        </g>
        <path class="bust-3" d="M77.67,122.45c-4.6,8.04-20.91,36.52-30.41,53.12-7.2,12.57-24.51,42.78-35.13,69.39-3.93,9.86-5.75,17.9-9.38,33.97-2.05,9.07-2.02,10.57-1.33,12.29,6.95,17.19,59.34,4.33,70.25.86,1.73-.55,4.32-1.47,5.14-3.66,2.16-5.8-11.44-11.85-13.28-22.9-1-5.98,1.9-10.72,7.71-19.7,21.54-33.29,37.2-54.24,37.2-54.24,3.5-4.68,9.07-12.17,15.91-21.58-.97-4.33-2.95-10.78-7.28-17.56-4.49-7.02-9.41-11.12-14.14-14.99-5.29-4.33-13.62-10.21-25.27-14.99h.01Z"/>
      </g>
    </g>
  </g>
</svg>