<?xml version="1.0" encoding="UTF-8"?>
<svg id="Layer_2" data-name="Layer 2" xmlns="http://www.w3.org/2000/svg" viewBox="0 0 102.28 65.71">
  <defs>
    <style>
      .cls-1 {
        fill: #e2a7a3;
      }

      .cls-2 {
        fill: none;
        stroke: #000;
        stroke-miterlimit: 10;
        stroke-width: 2px;
      }
    </style>
  </defs>
  <g id="SO_1" data-name="SO 1">
    <g>
      <g>
        <path class="cls-1" d="M8.45,11.44c0,2.57.15,6.13.77,10.32,1.14,7.71,2.55,18.32,10.49,27.69,2.62,3.1,10.88,12.57,24.6,14.79,8.25,1.33,14.82-.55,16.54-1.08,6.18-1.9,10.24-5.03,12.91-7.13,1.21-.95,6.18-4.96,10.76-11.96,5.73-8.77,7.75-17.49,8.52-23.24-2.28-.47-5.8-1.15-10.13-1.77-18.7-2.65-29.06-.73-42.21-1.34-7.65-.35-18.73-1.68-32.23-6.28Z"/>
        <path class="cls-2" d="M8.45,11.44c0,2.57.15,6.13.77,10.32,1.14,7.71,2.55,18.32,10.49,27.69,2.62,3.1,10.88,12.57,24.6,14.79,8.25,1.33,14.82-.55,16.54-1.08,6.18-1.9,10.24-5.03,12.91-7.13,1.21-.95,6.18-4.96,10.76-11.96,5.73-8.77,7.75-17.49,8.52-23.24-2.28-.47-5.8-1.15-10.13-1.77-18.7-2.65-29.06-.73-42.21-1.34-7.65-.35-18.73-1.68-32.23-6.28Z"/>
      </g>
      <g>
        <path class="cls-1" d="M1.03,4.1c.18-.23,3.74,4.49,10.11,5.66,5.51,1.01,7.72-1.63,21.83-6.06,10.46-3.28,13.7-3.23,16.17-1.62,2.63,1.72,2.85,4.19,5.66,4.85,3.19.75,4.72-2.03,8.89-2.83,4.91-.93,9.25,1.67,12.53,3.64,7.63,4.58,7.23,9.13,12.53,10.51,6.38,1.66,12.39-3.52,12.53-3.23.17.35-8.49,8.74-19.4,8.08-6.59-.4-9.42-3.86-15.36-2.02-2.4.74-3.3,1.73-8.21,3.35-3.68,1.21-5.57,1.81-7.79,1.56-3.78-.43-4.77-2.86-8.25-4.91-6.26-3.69-9.36-.09-19.81-2.02-1.8-.33-7.47-1.91-13.25-6.12C4.11,9.23.62,4.63,1.03,4.1Z"/>
        <path class="cls-2" d="M1.03,4.1c.18-.23,3.74,4.49,10.11,5.66,5.51,1.01,7.72-1.63,21.83-6.06,10.46-3.28,13.7-3.23,16.17-1.62,2.63,1.72,2.85,4.19,5.66,4.85,3.19.75,4.72-2.03,8.89-2.83,4.91-.93,9.25,1.67,12.53,3.64,7.63,4.58,7.23,9.13,12.53,10.51,6.38,1.66,12.39-3.52,12.53-3.23.17.35-8.49,8.74-19.4,8.08-6.59-.4-9.42-3.86-15.36-2.02-2.4.74-3.3,1.73-8.21,3.35-3.68,1.21-5.57,1.81-7.79,1.56-3.78-.43-4.77-2.86-8.25-4.91-6.26-3.69-9.36-.09-19.81-2.02-1.8-.33-7.47-1.91-13.25-6.12C4.11,9.23.62,4.63,1.03,4.1Z"/>
      </g>
    </g>
  </g>
</svg>