<?xml version="1.0" encoding="UTF-8"?>
<svg id="SO_1" data-name="SO 1" xmlns="http://www.w3.org/2000/svg" xmlns:xlink="http://www.w3.org/1999/xlink" viewBox="0 0 595 830">
  <defs>
    <style>
      .cls-1 {
        clip-path: url(#clippath);
      }

      .cls-2, .cls-3, .cls-4, .cls-5, .cls-6, .cls-7 {
        stroke: #000;
        stroke-miterlimit: 10;
      }

      .cls-8, .cls-4 {
        fill: #e2a7a3;
      }

      .cls-3 {
        fill: #eed6b2;
      }

      .cls-3, .cls-4, .cls-5, .cls-6, .cls-7 {
        stroke-width: 2px;
      }

      .cls-5 {
        fill: #472e02;
      }

      .cls-6 {
        fill: #f7f3e8;
      }

      .cls-9 {
        clip-path: url(#clippath-1);
      }

      .cls-7 {
        fill: none;
      }

      .cls-10, .cls-11, .cls-12, .cls-13, .cls-14 {
        stroke-width: 0px;
      }

      .cls-11 {
        fill: #4f3205;
      }

      .cls-12 {
        fill: #b28282;
      }

      .cls-13 {
        fill: #b48186;
      }

      .cls-14 {
        fill: #fff;
      }
    </style>
    <clipPath id="clippath">
      <path class="cls-4" d="M276.57,505.55c0,2.57.15,6.13.77,10.32,1.14,7.71,2.55,18.32,10.49,27.69,2.62,3.1,10.88,12.57,24.6,14.79,8.25,1.33,14.82-.55,16.54-1.08,6.18-1.9,10.24-5.03,12.91-7.13,1.21-.95,6.18-4.96,10.76-11.96,5.73-8.77,7.75-17.49,8.52-23.24-2.28-.47-5.8-1.15-10.13-1.77-18.7-2.65-29.06-.73-42.21-1.34-7.65-.35-18.73-1.68-32.23-6.28Z"/>
    </clipPath>
    <clipPath id="clippath-1">
      <path class="cls-4" d="M269.15,498.21c.18-.23,3.74,4.49,10.11,5.66,5.51,1.01,7.72-1.63,21.83-6.06,10.46-3.28,13.7-3.23,16.17-1.62,2.63,1.72,2.85,4.19,5.66,4.85,3.19.75,4.72-2.03,8.89-2.83,4.91-.93,9.25,1.67,12.53,3.64,7.63,4.58,7.23,9.13,12.53,10.51,6.38,1.66,12.39-3.52,12.53-3.23.17.35-8.49,8.74-19.4,8.08-6.59-.4-9.42-3.86-15.36-2.02-2.4.74-3.3,1.73-8.21,3.35-3.68,1.21-5.57,1.81-7.79,1.56-3.78-.43-4.77-2.86-8.25-4.91-6.26-3.69-9.36-.09-19.81-2.02-1.8-.33-7.47-1.91-13.25-6.12-5.09-3.71-8.59-8.31-8.17-8.84Z"/>
    </clipPath>
  </defs>
  <path class="cls-6" d="M293.98,441.16c-12.29.85-32.89.38-54.88-9.83-6.06-2.81-14.02-6.52-21.71-12.06-4.41-3.17-8.73-6.95-12.55-11.52-.02-.03-.05-.07-.07-.1-3.79-4.52-7.08-9.82-9.49-16.05-6.12-15.84-3.82-30.6-2.05-38.09,2.66-.02,8.54.03,16.28,1.26,3.88.62,8.23,1.53,12.87,2.87,12.21,3.53,26.47,10.06,39.66,22.08,4.14,3.78,7.75,7.7,10.88,11.67,3.67,4.62,6.7,9.3,9.21,13.86,8.84,16.09,11.16,30.64,11.85,35.91Z"/>
  <path class="cls-6" d="M455.35,415.35c-1.65,3.16-8.92,16.39-24.57,25.4-16.31,9.38-32.34,8.78-47.92,8.19-11.32-.43-20.53-2.21-26.62-3.69,1.74-3.87,5.12-10.76,10.81-18.65,2.6-3.61,5.68-7.44,9.31-11.28,6.02-6.38,13.55-12.81,22.88-18.4,11.31-6.78,22.46-10.65,32.3-12.81,4.64-1.02,8.99-1.66,12.93-2.05,7.91-.78,14.18-.54,17.85-.29.4,5.77.56,19.19-6.97,33.58Z"/>
  <path class="cls-5" d="M449.62,401.63c0,23.42-20.45,42.39-45.67,42.39-15.16,0-28.6-6.86-36.9-17.42,2.6-3.61,5.68-7.44,9.31-11.28,6.02-6.38,13.55-12.81,22.88-18.4,11.31-6.78,22.46-10.65,32.3-12.81,4.64-1.02,8.99-1.66,12.93-2.05,3.29,5.85,5.15,12.51,5.15,19.57Z"/>
  <path class="cls-2" d="M415.57,429.22c-14.9,5.86-31.58-.33-39.21-13.9,6.02-6.38,13.55-12.81,22.88-18.4,11.31-6.78,22.46-10.65,32.3-12.81.72,1.27,1.36,2.6,1.91,4,6.41,16.29-1.59,34.69-17.88,41.11Z"/>
  <path class="cls-5" d="M282.13,405.25c-7.91,12.61-22.63,21.09-39.49,21.09-9.34,0-18.02-2.6-25.25-7.07-4.94-3.04-9.21-6.96-12.55-11.52-.02-.03-.05-.07-.07-.1-4.93-6.77-7.8-14.92-7.8-23.7,0-11.31,4.77-21.58,12.54-29.18,3.88.62,8.23,1.53,12.87,2.87,12.21,3.53,26.47,10.06,39.66,22.08,4.14,3.78,7.75,7.7,10.88,11.67,3.67,4.62,6.7,9.3,9.21,13.86Z"/>
  <path class="cls-10" d="M272.92,391.39c-2.74,8.88-9.35,16.47-18.67,20.14-16.29,6.41-34.69-1.59-41.11-17.88-5.14-13.07-1-27.5,9.24-36.01,12.21,3.53,26.47,10.06,39.66,22.08,4.14,3.78,7.75,7.7,10.88,11.67Z"/>
  <path class="cls-14" d="M230.07,365.26c2.7,2.83,5.41,5.66,8.11,8.49-2.7,3.58-5.4,7.15-8.1,10.73-2.98-3.42-5.96-6.83-8.94-10.25,2.98-2.99,5.96-5.98,8.94-8.97Z"/>
  <path class="cls-14" d="M404.54,398.16c2.7,2.83,5.41,5.66,8.11,8.49-2.7,3.58-5.4,7.15-8.1,10.73-2.98-3.42-5.96-6.83-8.94-10.25,2.98-2.99,5.96-5.98,8.94-8.97Z"/>
  <path class="cls-3" d="M363.45,431.92c6.16-18.24,15.52-30.17,21.45-36.63,3.97-4.33,23.15-25.21,49.05-27.37,5.34-.45,14.29-1.06,22.04,4.62,4.14,3.04,6.48,6.8,7.75,9.32-9.94-.79-30.75-1.09-53.76,9.42-26.92,12.3-41.19,32.25-46.52,40.63Z"/>
  <path class="cls-3" d="M293.47,437.8c-.24-12.92-2.62-30.29-11.57-48.24-5.49-11.02-11.65-23.38-25.52-31.63-12.08-7.19-24.1-7.88-35.34-8.51-17-.94-31.28,2.26-31.22,3.21.04.68,7.37.06,19.69,2.15,0,0,6.3,1.18,12.87,2.87,13.12,3.36,27.12,10.77,34,15.55,27.08,18.82,36.42,61.38,37.09,64.6Z"/>
  <g>
    <g>
      <path class="cls-8" d="M276.57,505.55c0,2.57.15,6.13.77,10.32,1.14,7.71,2.55,18.32,10.49,27.69,2.62,3.1,10.88,12.57,24.6,14.79,8.25,1.33,14.82-.55,16.54-1.08,6.18-1.9,10.24-5.03,12.91-7.13,1.21-.95,6.18-4.96,10.76-11.96,5.73-8.77,7.75-17.49,8.52-23.24-2.28-.47-5.8-1.15-10.13-1.77-18.7-2.65-29.06-.73-42.21-1.34-7.65-.35-18.73-1.68-32.23-6.28Z"/>
      <g class="cls-1">
        <path class="cls-12" d="M276.86,507.86c.02,5.55-4.13,10.48-4.44,16.21-.39,7.08,2.69,13.94,5.08,20.44,5.12,13.93,10.79,27.66,16.88,41.2,1.77,3.94,7.5,4.89,10.95,2.87,4.06-2.37,4.65-6.99,2.87-10.95-5.52-12.28-10.62-24.74-15.26-37.38-1.71-4.64-5.38-11.28-4.44-16.36,1.05-5.69,4.4-9.98,4.38-16.04-.04-10.29-16.04-10.31-16,0h0Z"/>
        <path class="cls-12" d="M279.22,512.93c-2.42,18.39,6.66,39.36,20.93,51.1,16.61,13.65,41.89,11.82,62.05,11.13,10.27-.35,10.32-16.35,0-16-8.86.3-17.75.61-26.6-.01-8.06-.57-17.67-1.58-24.32-6.6-11.65-8.81-17.94-25.39-16.06-39.61.57-4.29-4.08-8-8-8-4.79,0-7.43,3.7-8,8h0Z"/>
      </g>
      <path class="cls-7" d="M276.57,505.55c0,2.57.15,6.13.77,10.32,1.14,7.71,2.55,18.32,10.49,27.69,2.62,3.1,10.88,12.57,24.6,14.79,8.25,1.33,14.82-.55,16.54-1.08,6.18-1.9,10.24-5.03,12.91-7.13,1.21-.95,6.18-4.96,10.76-11.96,5.73-8.77,7.75-17.49,8.52-23.24-2.28-.47-5.8-1.15-10.13-1.77-18.7-2.65-29.06-.73-42.21-1.34-7.65-.35-18.73-1.68-32.23-6.28Z"/>
    </g>
    <g>
      <path class="cls-8" d="M269.15,498.21c.18-.23,3.74,4.49,10.11,5.66,5.51,1.01,7.72-1.63,21.83-6.06,10.46-3.28,13.7-3.23,16.17-1.62,2.63,1.72,2.85,4.19,5.66,4.85,3.19.75,4.72-2.03,8.89-2.83,4.91-.93,9.25,1.67,12.53,3.64,7.63,4.58,7.23,9.13,12.53,10.51,6.38,1.66,12.39-3.52,12.53-3.23.17.35-8.49,8.74-19.4,8.08-6.59-.4-9.42-3.86-15.36-2.02-2.4.74-3.3,1.73-8.21,3.35-3.68,1.21-5.57,1.81-7.79,1.56-3.78-.43-4.77-2.86-8.25-4.91-6.26-3.69-9.36-.09-19.81-2.02-1.8-.33-7.47-1.91-13.25-6.12-5.09-3.71-8.59-8.31-8.17-8.84Z"/>
      <g class="cls-9">
        <path class="cls-13" d="M295.62,483.54c-11.44,9.1-22.89,18.2-34.33,27.3-4.23,3.36-3.51,10.63,0,14.14,4.18,4.18,9.9,3.37,14.14,0,11.44-9.1,22.89-18.2,34.33-27.3,4.23-3.36,3.51-10.63,0-14.14-4.18-4.18-9.9-3.37-14.14,0h0Z"/>
      </g>
      <path class="cls-7" d="M269.15,498.21c.18-.23,3.74,4.49,10.11,5.66,5.51,1.01,7.72-1.63,21.83-6.06,10.46-3.28,13.7-3.23,16.17-1.62,2.63,1.72,2.85,4.19,5.66,4.85,3.19.75,4.72-2.03,8.89-2.83,4.91-.93,9.25,1.67,12.53,3.64,7.63,4.58,7.23,9.13,12.53,10.51,6.38,1.66,12.39-3.52,12.53-3.23.17.35-8.49,8.74-19.4,8.08-6.59-.4-9.42-3.86-15.36-2.02-2.4.74-3.3,1.73-8.21,3.35-3.68,1.21-5.57,1.81-7.79,1.56-3.78-.43-4.77-2.86-8.25-4.91-6.26-3.69-9.36-.09-19.81-2.02-1.8-.33-7.47-1.91-13.25-6.12-5.09-3.71-8.59-8.31-8.17-8.84Z"/>
    </g>
  </g>
  <g>
    <path class="cls-11" d="M389.82,363.01c9.49-20.65,33.93-34.79,56.5-28.13,7.36,2.15,14,6.25,19.05,11.67-7.94-4.71-16.2-7.87-25.15-8.5-19.98-1.43-37.78,10.18-50.39,24.96h0Z"/>
    <path class="cls-11" d="M291.64,357.8c-5.46-6.57-11.31-12.53-17.72-17.72-6.39-5.2-13.36-9.55-20.74-13.03-3.71-1.7-7.5-3.21-11.39-4.47-3.89-1.27-7.87-2.24-11.91-3.04-8.1-1.58-16.42-2.16-24.96-2.08,8.17-2.55,16.94-3.32,25.6-2.59,4.33.37,8.66,1.11,12.88,2.25,2.1.59,4.2,1.22,6.25,1.99,2.07.71,4.05,1.66,6.07,2.5,7.92,3.73,15.22,8.81,21.35,14.98,6.11,6.17,11.22,13.33,14.56,21.21Z"/>
  </g>
</svg>