<?xml version="1.0" encoding="UTF-8"?>
<svg id="SO_1" data-name="SO 1" xmlns="http://www.w3.org/2000/svg" xmlns:xlink="http://www.w3.org/1999/xlink" viewBox="0 0 595 830">
  <defs>
    <style>
      .cls-1, .cls-2, .cls-3, .cls-4, .cls-5, .cls-6, .cls-7, .cls-8, .cls-9, .cls-10 {
        stroke: #000;
        stroke-miterlimit: 10;
      }

      .cls-1, .cls-8 {
        fill: none;
      }

      .cls-1, .cls-9, .cls-10 {
        stroke-width: 3px;
      }

      .cls-11 {
        clip-path: url(#clippath);
      }

      .cls-12, .cls-6 {
        fill: #f978ad;
      }

      .cls-13, .cls-3, .cls-9 {
        fill: #eed6b2;
      }

      .cls-14, .cls-4 {
        fill: #e2a7a3;
      }

      .cls-3, .cls-4, .cls-5, .cls-6, .cls-7, .cls-8 {
        stroke-width: 2px;
      }

      .cls-5 {
        fill: #472e02;
      }

      .cls-7 {
        fill: #f7f3e8;
      }

      .cls-15 {
        clip-path: url(#clippath-1);
      }

      .cls-16 {
        clip-path: url(#clippath-4);
      }

      .cls-17 {
        clip-path: url(#clippath-3);
      }

      .cls-18 {
        clip-path: url(#clippath-2);
      }

      .cls-19 {
        clip-path: url(#clippath-6);
      }

      .cls-20 {
        clip-path: url(#clippath-5);
      }

      .cls-21, .cls-22, .cls-23, .cls-24, .cls-25, .cls-26, .cls-27, .cls-28 {
        stroke-width: 0px;
      }

      .cls-10 {
        fill: #f7ef8d;
      }

      .cls-22 {
        fill: #4f3205;
      }

      .cls-23 {
        fill: #c63c7e;
      }

      .cls-24 {
        fill: #e1bc8f;
      }

      .cls-25 {
        fill: #b28282;
      }

      .cls-26 {
        fill: #b48186;
      }

      .cls-27 {
        fill: #fff;
      }

      .cls-28 {
        fill: #e5c396;
      }
    </style>
    <clipPath id="clippath">
      <path class="cls-6" d="M224.62,608.87c-11.11,2.28-27.89,7.14-45.65,18.32-21.94,13.81-34.99,30.75-41.72,40.99,6.34,2.06,19.45,7.27,31,19.93,9.59,10.51,13.81,21.43,15.69,27.62,1.44-1.57,3.75-3.54,6.83-3.93,5.75-.72,10.73,4.56,17.11,11.97,15.14,17.59,19.19,23.88,19.19,23.88,13.71,21.32,20.66,31.95,23.84,42.24,2.74,8.88,6.06,23.81,4.18,43.08,24.6.38,49.49.58,74.66.61,17.44.02,34.75-.05,51.92-.21-5.15-12-7.7-22.64-9.05-30.49-3.84-22.34-.99-39.63.92-50.63,2.4-13.8,3.71-20.85,9.13-28.23,3.63-4.94,6.82-6.98,9.35-12.61,3.65-8.13,2.68-16.56,1.22-22.55,6.95-4.98,13.9-9.97,20.85-14.95-.8-15.3-3.69-27.24-6.23-35.34-3.06-9.77-5.22-12.74-6.88-14.62-3.77-4.25-8.6-6.9-26.81-11.62-6.97-1.81-16.03-3.95-26.76-5.94,2.74,3.48,13.3,17.72,11.78,37.83-.33,4.38-1.71,22.71-16.26,34.18-17.4,13.71-41.77,8.26-55.36,1.01-8.62-4.6-12.23-9.57-27.01-27.65-7.89-9.65-20.16-24.49-35.93-42.88Z"/>
    </clipPath>
    <clipPath id="clippath-1">
      <path class="cls-3" d="M259.04,552.14c-3.26,4.47,1.4,8.68-1.24,22.01-.78,3.95-2.68,12.96-9.61,21.08-8.13,9.52-18.74,12.59-23.56,13.64,5.21,5.29,13.54,14.08,22.94,25.73,19.41,24.07,21.97,33.78,36.59,42.79,5.05,3.12,19.15,11.53,37.21,8.99,3.67-.52,24.37-3.85,33.49-20.77,4.03-7.47,4.19-14.6,4.34-21.39.11-4.84-.2-16.5-6.51-29.15-1.88-3.76-3.82-6.69-5.27-8.68-5.11.19-12.16-.43-17.67-4.96-10.21-8.39-4.58-21.52-11.78-34.11-12.01-21-51.25-25.68-58.91-15.19Z"/>
    </clipPath>
    <clipPath id="clippath-2">
      <path class="cls-3" d="M392.78,687.38c3.04,9.5,2.14,16.19.67,20.63-2.89,8.71-8.25,9.53-12.98,20.3-4.02,9.15-4.02,17.37-3.99,20.3.1,9.24,2.82,12.86,5.99,23.96,3.87,13.52,4.49,24.44,4.99,33.27,1.39,24.47-4.33,28.16.33,34.93,11.37,16.53,53.91,6.9,55.56-.67.19-.86.87-6.38.87-6.37h0c-18.89-63.84-20.84-81.46-20.84-81.46-1.84-16.64-.67-21.99-3.85-49.48-1.46-12.62-3.03-22.93-4.13-29.7-7.54,4.77-15.08,9.54-22.62,14.31Z"/>
    </clipPath>
    <clipPath id="clippath-3">
      <path class="cls-3" d="M137.25,668.19c-4.6,8.04-20.91,36.52-30.41,53.12-7.2,12.57-24.51,42.78-35.13,69.39-3.93,9.86-5.75,17.9-9.38,33.97-2.05,9.07-2.02,10.57-1.33,12.29,6.95,17.19,59.34,4.33,70.25.86,1.73-.55,4.32-1.47,5.14-3.66,2.16-5.8-11.44-11.85-13.28-22.9-1-5.98,1.9-10.72,7.71-19.7,21.54-33.29,37.2-54.24,37.2-54.24,3.5-4.68,9.07-12.17,15.91-21.58-.97-4.33-2.95-10.78-7.28-17.56-4.49-7.02-9.41-11.12-14.14-14.99-5.29-4.33-13.62-10.21-25.27-14.99Z"/>
    </clipPath>
    <clipPath id="clippath-4">
      <path class="cls-9" d="M470.06,393.12c-7.05,30.68-20,54.59-30.07,73.16-10,18.45-26.88,45.82-53.62,73.17-19.02,19.45-31.7,27.3-41.09,32.07-6.79,3.44-14.42,7.31-23.16,9.73-6.35,1.76-13.3,2.77-20.94,2.29-16.83-1.03-29-8.72-42.55-18.77-1.66-1.22-3.34-2.49-5.06-3.78-1.67-1.26-3.28-2.52-4.85-3.78-20.28-16.31-32.69-33.02-44.26-48.83-3.44-4.7-28.29-38.68-41.59-70.16-1.25-2.95-2.27-5.61-3.96-8.66-.37-.68-.79-2.09-2.05-3.37-1.64-1.64-3.55-2.16-4.05-2.31-4.99-1.5-16.88-11.26-23.56-23.96-2.06-3.92-3.14-7.2-3.77-10.15-.92-4.31-1.68-7.9-.2-11.18,3.06-6.75,13.45-7.36,14.31-7.4.45-8.36,1.62-19.87,4.74-33.2,10.89-46.5,42.86-102.51,90.47-135.72,14.97-10.44,31.49-18.63,49.38-23.57,10.84-2.99,22.18-4.78,34-5.16,48.81-1.56,98.27,23.03,127.98,61.48,46.4,60.05,29.37,134.23,23.9,158.1Z"/>
    </clipPath>
    <clipPath id="clippath-5">
      <path class="cls-4" d="M276.57,505.55c0,2.57.15,6.13.77,10.32,1.14,7.71,2.55,18.32,10.49,27.69,2.62,3.1,10.88,12.57,24.6,14.79,8.25,1.33,14.82-.55,16.54-1.08,6.18-1.9,10.24-5.03,12.91-7.13,1.21-.95,6.18-4.96,10.76-11.96,5.73-8.77,7.75-17.49,8.52-23.24-2.28-.47-5.8-1.15-10.13-1.77-18.7-2.65-29.06-.73-42.21-1.34-7.65-.35-18.73-1.68-32.23-6.28Z"/>
    </clipPath>
    <clipPath id="clippath-6">
      <path class="cls-4" d="M269.15,498.21c.18-.23,3.74,4.49,10.11,5.66,5.51,1.01,7.72-1.63,21.83-6.06,10.46-3.28,13.7-3.23,16.17-1.62,2.63,1.72,2.85,4.19,5.66,4.85,3.19.75,4.72-2.03,8.89-2.83,4.91-.93,9.25,1.67,12.53,3.64,7.63,4.58,7.23,9.13,12.53,10.51,6.38,1.66,12.39-3.52,12.53-3.23.17.35-8.49,8.74-19.4,8.08-6.59-.4-9.42-3.86-15.36-2.02-2.4.74-3.3,1.73-8.21,3.35-3.68,1.21-5.57,1.81-7.79,1.56-3.78-.43-4.77-2.86-8.25-4.91-6.26-3.69-9.36-.09-19.81-2.02-1.8-.33-7.47-1.91-13.25-6.12-5.09-3.71-8.59-8.31-8.17-8.84Z"/>
    </clipPath>
  </defs>
  <g>
    <path class="cls-12" d="M224.62,608.87c-11.11,2.28-27.89,7.14-45.65,18.32-21.94,13.81-34.99,30.75-41.72,40.99,6.34,2.06,19.45,7.27,31,19.93,9.59,10.51,13.81,21.43,15.69,27.62,1.44-1.57,3.75-3.54,6.83-3.93,5.75-.72,10.73,4.56,17.11,11.97,15.14,17.59,19.19,23.88,19.19,23.88,13.71,21.32,20.66,31.95,23.84,42.24,2.74,8.88,6.06,23.81,4.18,43.08,24.6.38,49.49.58,74.66.61,17.44.02,34.75-.05,51.92-.21-5.15-12-7.7-22.64-9.05-30.49-3.84-22.34-.99-39.63.92-50.63,2.4-13.8,3.71-20.85,9.13-28.23,3.63-4.94,6.82-6.98,9.35-12.61,3.65-8.13,2.68-16.56,1.22-22.55,6.95-4.98,13.9-9.97,20.85-14.95-.8-15.3-3.69-27.24-6.23-35.34-3.06-9.77-5.22-12.74-6.88-14.62-3.77-4.25-8.6-6.9-26.81-11.62-6.97-1.81-16.03-3.95-26.76-5.94,2.74,3.48,13.3,17.72,11.78,37.83-.33,4.38-1.71,22.71-16.26,34.18-17.4,13.71-41.77,8.26-55.36,1.01-8.62-4.6-12.23-9.57-27.01-27.65-7.89-9.65-20.16-24.49-35.93-42.88Z"/>
    <g class="cls-11">
      <path class="cls-23" d="M190.01,727.73c5.26,2.6,10.26,5.6,14.99,9.07,1.13.83-.64-.61,1.18.93,1.17.99,2.33,1.96,3.47,2.98,2.09,1.87,4.09,3.83,6.03,5.86,7.36,7.71,12.82,15.66,18.21,26.46,11.36,22.75,14.43,48.72,13.98,74.3-.14,7.85,7,15.36,15,15,8.25-.37,14.85-6.59,15-15,1-56.32-18.78-118.88-72.71-145.51-7.26-3.58-16.23-1.95-20.52,5.38-3.87,6.62-1.91,16.92,5.38,20.52h0Z"/>
    </g>
    <path class="cls-8" d="M224.62,608.87c-11.11,2.28-27.89,7.14-45.65,18.32-21.94,13.81-34.99,30.75-41.72,40.99,6.34,2.06,19.45,7.27,31,19.93,9.59,10.51,13.81,21.43,15.69,27.62,1.44-1.57,3.75-3.54,6.83-3.93,5.75-.72,10.73,4.56,17.11,11.97,15.14,17.59,19.19,23.88,19.19,23.88,13.71,21.32,20.66,31.95,23.84,42.24,2.74,8.88,6.06,23.81,4.18,43.08,24.6.38,49.49.58,74.66.61,17.44.02,34.75-.05,51.92-.21-5.15-12-7.7-22.64-9.05-30.49-3.84-22.34-.99-39.63.92-50.63,2.4-13.8,3.71-20.85,9.13-28.23,3.63-4.94,6.82-6.98,9.35-12.61,3.65-8.13,2.68-16.56,1.22-22.55,6.95-4.98,13.9-9.97,20.85-14.95-.8-15.3-3.69-27.24-6.23-35.34-3.06-9.77-5.22-12.74-6.88-14.62-3.77-4.25-8.6-6.9-26.81-11.62-6.97-1.81-16.03-3.95-26.76-5.94,2.74,3.48,13.3,17.72,11.78,37.83-.33,4.38-1.71,22.71-16.26,34.18-17.4,13.71-41.77,8.26-55.36,1.01-8.62-4.6-12.23-9.57-27.01-27.65-7.89-9.65-20.16-24.49-35.93-42.88Z"/>
  </g>
  <g>
    <path class="cls-21" d="M310.43,742.38c13.19-4.56,26.97-7.19,40.11-11.93,3.21-1.16,6.41-2.43,9.42-4.05,1.7-.92.19-3.51-1.51-2.59-5.61,3.04-11.85,4.93-17.93,6.76-6.98,2.1-14.04,3.95-21.06,5.92-3.29.93-6.58,1.88-9.82,2.99-1.81.63-1.03,3.53.8,2.89h0Z"/>
    <g>
      <path class="cls-13" d="M259.04,552.14c-3.26,4.47,1.4,8.68-1.24,22.01-.78,3.95-2.68,12.96-9.61,21.08-8.13,9.52-18.74,12.59-23.56,13.64,5.21,5.29,13.54,14.08,22.94,25.73,19.41,24.07,21.97,33.78,36.59,42.79,5.05,3.12,19.15,11.53,37.21,8.99,3.67-.52,24.37-3.85,33.49-20.77,4.03-7.47,4.19-14.6,4.34-21.39.11-4.84-.2-16.5-6.51-29.15-1.88-3.76-3.82-6.69-5.27-8.68-5.11.19-12.16-.43-17.67-4.96-10.21-8.39-4.58-21.52-11.78-34.11-12.01-21-51.25-25.68-58.91-15.19Z"/>
      <g class="cls-15">
        <ellipse class="cls-24" cx="273.59" cy="571.93" rx="45.13" ry="25.05"/>
      </g>
      <path class="cls-8" d="M259.04,552.14c-3.26,4.47,1.4,8.68-1.24,22.01-.78,3.95-2.68,12.96-9.61,21.08-8.13,9.52-18.74,12.59-23.56,13.64,5.21,5.29,13.54,14.08,22.94,25.73,19.41,24.07,21.97,33.78,36.59,42.79,5.05,3.12,19.15,11.53,37.21,8.99,3.67-.52,24.37-3.85,33.49-20.77,4.03-7.47,4.19-14.6,4.34-21.39.11-4.84-.2-16.5-6.51-29.15-1.88-3.76-3.82-6.69-5.27-8.68-5.11.19-12.16-.43-17.67-4.96-10.21-8.39-4.58-21.52-11.78-34.11-12.01-21-51.25-25.68-58.91-15.19Z"/>
    </g>
    <g>
      <path class="cls-13" d="M392.78,687.38c3.04,9.5,2.14,16.19.67,20.63-2.89,8.71-8.25,9.53-12.98,20.3-4.02,9.15-4.02,17.37-3.99,20.3.1,9.24,2.82,12.86,5.99,23.96,3.87,13.52,4.49,24.44,4.99,33.27,1.39,24.47-4.33,28.16.33,34.93,11.37,16.53,53.91,6.9,55.56-.67.19-.86.87-6.38.87-6.37h0c-18.89-63.84-20.84-81.46-20.84-81.46-1.84-16.64-.67-21.99-3.85-49.48-1.46-12.62-3.03-22.93-4.13-29.7-7.54,4.77-15.08,9.54-22.62,14.31Z"/>
      <g class="cls-18">
        <path class="cls-28" d="M385.16,690.38c3.35,12.85-5.37,26.35-7.74,38.77-2.57,13.48-1.38,26.98,1.42,40.33,5.02,23.93,17.14,49.12,11.41,73.96,5.85-1.54,11.7-3.09,17.55-4.63-3.77-4.83-5.68-10.68-6.71-16.63-.96-5.59-7.83-8.73-12.92-7.33-5.91,1.62-8.3,7.31-7.33,12.92,1.68,9.75,6.08,18.17,12.11,25.9,4.89,6.27,15.91,2.47,17.55-4.63,6.5-28.19-4.56-54.9-10.73-82.02-2.78-12.23-4.25-24.83-.98-37.11,4.01-15.08,10.76-29.18,6.62-45.09-3.4-13.07-23.66-7.53-20.25,5.58h0Z"/>
      </g>
      <path class="cls-8" d="M392.78,687.38c3.04,9.5,2.14,16.19.67,20.63-2.89,8.71-8.25,9.53-12.98,20.3-4.02,9.15-4.02,17.37-3.99,20.3.1,9.24,2.82,12.86,5.99,23.96,3.87,13.52,4.49,24.44,4.99,33.27,1.39,24.47-4.33,28.16.33,34.93,11.37,16.53,53.91,6.9,55.56-.67.19-.86.87-6.38.87-6.37h0c-18.89-63.84-20.84-81.46-20.84-81.46-1.84-16.64-.67-21.99-3.85-49.48-1.46-12.62-3.03-22.93-4.13-29.7-7.54,4.77-15.08,9.54-22.62,14.31Z"/>
    </g>
    <g>
      <path class="cls-13" d="M137.25,668.19c-4.6,8.04-20.91,36.52-30.41,53.12-7.2,12.57-24.51,42.78-35.13,69.39-3.93,9.86-5.75,17.9-9.38,33.97-2.05,9.07-2.02,10.57-1.33,12.29,6.95,17.19,59.34,4.33,70.25.86,1.73-.55,4.32-1.47,5.14-3.66,2.16-5.8-11.44-11.85-13.28-22.9-1-5.98,1.9-10.72,7.71-19.7,21.54-33.29,37.2-54.24,37.2-54.24,3.5-4.68,9.07-12.17,15.91-21.58-.97-4.33-2.95-10.78-7.28-17.56-4.49-7.02-9.41-11.12-14.14-14.99-5.29-4.33-13.62-10.21-25.27-14.99Z"/>
      <g class="cls-17">
        <path class="cls-28" d="M129.17,662.06c-19.7,28.23-34.12,59.52-47.45,91.14-13.68,32.44-30.26,65.92-25.2,102.06.86,6.16,8.71,9.52,14.15,8.03,6.63-1.82,8.9-7.97,8.03-14.15-2.23-15.89,2.49-32.12,7.82-46.91,5.29-14.71,11.52-29.15,17.65-43.53,12.58-29.53,26.45-58.64,44.87-85.03,3.56-5.1.93-12.78-4.13-15.73-5.73-3.35-12.17-.98-15.73,4.13h0Z"/>
        <path class="cls-21" d="M395.22,664.01v182.43c0,1.93,3,1.93,3,0v-182.43c0-1.93-3-1.93-3,0h0Z"/>
        <path class="cls-21" d="M405.63,769.82c3.7,27.25,8.03,54.41,12.99,81.45,1.39,7.61,2.84,15.21,4.33,22.81.37,1.89,3.26,1.09,2.89-.8-5.3-26.98-9.99-54.08-14.04-81.28-1.14-7.65-2.23-15.32-3.27-22.98-.11-.81-1.14-1.23-1.85-1.05-.87.23-1.16,1.05-1.05,1.85h0Z"/>
      </g>
      <path class="cls-8" d="M137.25,668.19c-4.6,8.04-20.91,36.52-30.41,53.12-7.2,12.57-24.51,42.78-35.13,69.39-3.93,9.86-5.75,17.9-9.38,33.97-2.05,9.07-2.02,10.57-1.33,12.29,6.95,17.19,59.34,4.33,70.25.86,1.73-.55,4.32-1.47,5.14-3.66,2.16-5.8-11.44-11.85-13.28-22.9-1-5.98,1.9-10.72,7.71-19.7,21.54-33.29,37.2-54.24,37.2-54.24,3.5-4.68,9.07-12.17,15.91-21.58-.97-4.33-2.95-10.78-7.28-17.56-4.49-7.02-9.41-11.12-14.14-14.99-5.29-4.33-13.62-10.21-25.27-14.99Z"/>
    </g>
    <g>
      <path class="cls-13" d="M470.06,393.12c-7.05,30.68-20,54.59-30.07,73.16-10,18.45-26.88,45.82-53.62,73.17-19.02,19.45-31.7,27.3-41.09,32.07-6.79,3.44-14.42,7.31-23.16,9.73-6.35,1.76-13.3,2.77-20.94,2.29-16.83-1.03-29-8.72-42.55-18.77-1.66-1.22-3.34-2.49-5.06-3.78-1.67-1.26-3.28-2.52-4.85-3.78-20.28-16.31-32.69-33.02-44.26-48.83-3.44-4.7-28.29-38.68-41.59-70.16-1.25-2.95-2.27-5.61-3.96-8.66-.37-.68-.79-2.09-2.05-3.37-1.64-1.64-3.55-2.16-4.05-2.31-4.99-1.5-16.88-11.26-23.56-23.96-2.06-3.92-3.14-7.2-3.77-10.15-.92-4.31-1.68-7.9-.2-11.18,3.06-6.75,13.45-7.36,14.31-7.4.45-8.36,1.62-19.87,4.74-33.2,10.89-46.5,42.86-102.51,90.47-135.72,14.97-10.44,31.49-18.63,49.38-23.57,10.84-2.99,22.18-4.78,34-5.16,48.81-1.56,98.27,23.03,127.98,61.48,46.4,60.05,29.37,134.23,23.9,158.1Z"/>
      <g class="cls-16">
        <path class="cls-24" d="M299.79,159.07c-22.69,26.96-60.68,79.79-77.19,156.15-26.43,122.31,20.58,220.32,36.02,249.56-15.43.06-55.15-1.97-86.59-30.42-21.91-19.82-29.4-42.5-39.04-77.19-12.35-44.47-24.07-86.67-9.76-139.29,14.61-53.71,47.62-86.26,60.33-98.48,44.8-43.08,94.84-56.07,116.22-60.33Z"/>
      </g>
      <path class="cls-1" d="M470.06,393.12c-7.05,30.68-20,54.59-30.07,73.16-10,18.45-26.88,45.82-53.62,73.17-19.02,19.45-31.7,27.3-41.09,32.07-6.79,3.44-14.42,7.31-23.16,9.73-6.35,1.76-13.3,2.77-20.94,2.29-16.83-1.03-29-8.72-42.55-18.77-1.66-1.22-3.34-2.49-5.06-3.78-1.67-1.26-3.28-2.52-4.85-3.78-20.28-16.31-32.69-33.02-44.26-48.83-3.44-4.7-28.29-38.68-41.59-70.16-1.25-2.95-2.27-5.61-3.96-8.66-.37-.68-.79-2.09-2.05-3.37-1.64-1.64-3.55-2.16-4.05-2.31-4.99-1.5-16.88-11.26-23.56-23.96-2.06-3.92-3.14-7.2-3.77-10.15-.92-4.31-1.68-7.9-.2-11.18,3.06-6.75,13.45-7.36,14.31-7.4.45-8.36,1.62-19.87,4.74-33.2,10.89-46.5,42.86-102.51,90.47-135.72,14.97-10.44,31.49-18.63,49.38-23.57,10.84-2.99,22.18-4.78,34-5.16,48.81-1.56,98.27,23.03,127.98,61.48,46.4,60.05,29.37,134.23,23.9,158.1Z"/>
    </g>
    <path class="cls-10" d="M190.13,711.13c5.23-.64,10.44,2.04,43.14,45.52,13.68,18.19,20.11,27.49,17.26,36.89-2.09,6.89-9.59,15.2-10.12,15.77-6.02,6.59-10.1,7.8-12.2,13.09-2.19,5.53-.64,11.54,1.49,16.36-3.75-2.92-9.22-8.12-11.01-15.77-2.87-12.26,5.05-25,5.06-24.99,0,0-2.93,15.27-14.28,25.29-2.51,2.21-7.89,6.83-15.77,7.85-14.8,1.9-25.8-10.53-27.08-12.01,3.19.15,15.21.32,26.18-8.33,3.06-2.41,12.75-10.8,14.28-24.4,1.59-14.08-6.17-28.38-19.64-36.6,1.5,7.01,3.53,21.72-2.98,37.79-2.93,7.24-10.51,25.97-29.46,31.24-14.42,4.01-27.07-2.1-30.94-4.17,6.64.35,12.79-3.63,15.17-9.82,2.41-6.24.47-13.37-4.76-17.55,8.12-12.61,20.61-31.89,36.6-56.23,8.38-12.76,12.7-19.16,19.04-19.93Z"/>
    <path class="cls-10" d="M373.3,748.96c-.82,7.11-2.83,26.84-.85,43.52.47,3.94,1.28,8.7,4.46,13.59,3.57,5.48,8.41,8.46,11.4,9.97-.12-8.56-.92-18.7-3.12-29.92-2.95-15.05-7.54-27.56-11.89-37.15Z"/>
    <path class="cls-10" d="M76.2,401.72c-.48,16.18-.88,29.39-2.94,43.31-3.74,25.32-13.37,51.28-26.35,73.25-11.94,20.21-27.38,38.59-35.67,60.77-8.48,22.69-12.24,47.95-5.91,71.68,5.99,22.49,20.24,41.85,35.61,58.89,11.48,12.74,26.92,25.11,28.17,43.53,1.04,15.35-6.82,33.94-22.13,39.45-7.69,2.77-15.01,1.37-19.07.22,1.11,2,5.9,10.14,16.26,13.75,12.22,4.26,19.62,1.11,24.53-10.67,14.06-33.72,30.85-66.31,50.13-97.34,17.15-27.61,36.74-65.31,68.77-77.7,10.98-4.24,22.98-4.98,34.33-8.11,21.35-5.87,31.89-22.86,35.51-43.91.24-1.39.44-2.83.07-4.18-.84-3.08-3.76-4.68-4.46-5.11-7.87-4.81-39.36-42.24-54.13-61.92-11.2-14.92-16.8-22.38-22.46-33.88-4.26-8.66-9.55-16.79-13.6-25.55-2.61-5.64-4.66-10.66-10.06-14.34-4.92-3.36-8.18-2.58-10.77-5.63-4.86-5.73-.81-17.08.84-20.26,17.45-33.42,48.02-58.67,82.56-72.99,26.28-10.9,54.62-15.01,81.86-22.76,13.08-3.72,25.68-8.86,38.43-13.34,12.77-4.49,25.33-10.33,35.41-19.54,13.66-12.53,21.4-26.45,25.77-36.16-1.77,32.51,5.99,61.92,22.04,90.16,11.62,20.43,25.74,39.33,37.88,59.46,1.07,1.77,2.15,3.63,2.35,5.69.26,2.63-.59,4.71-.86,5.38-5.84,14.44-4.01,29.12-28.34,72.4-8.49,15.1-16.66,29.63-29.8,45.81-13.9,17.12-41.21,45.76-88,68.13-1.35,3.18-2.57,7.66-.96,11.93,5.44,14.35,38.2,15.68,50.65,19.32,46.65,13.61,44.58,59.05,48.31,99.38,3.31,35.74,6.24,72.54,21.88,105.42,1.08,2.28,2.3,4.61,4.34,6.09,2.16,1.56,4.95,1.94,7.61,2.07,12.58.61,25.34-3.38,35.33-11.07-14.6-7.96-19.02-27.85-14.42-43.83,4.61-15.97,16.05-28.93,27.15-41.3-5.53,16.09-11.13,32.58-10.89,49.59.2,14.38,6.35,36.53,21.28,42.33,1.92-8.33-6.06-21.08-6.92-30.29-1.05-11.23,1.27-23.18,8.48-31.84,1.11,19.96,23.34,35.79,42.57,30.31-12.91-9.6-16.07-28.27-12.06-43.85,4.01-15.58,13.75-28.94,22.83-42.22,35.83-52.43,18.88-114.72-15.24-164.13-12.03-17.41-26.72-32.9-38.27-50.63-21.48-32.95-22.9-75.96-20.44-114.19,2.55-39.46,9.09-83.51-5.67-121.45-12.68-32.58-38.57-60.65-69.49-76.61-25.29-13.05-47.25-27.88-75.25-36.04-46.51-13.55-96.03-12.22-141.03,6.16-41.34,16.89-77.34,46.69-101.14,84.52-23.02,36.6-31.93,76.15-27.06,118.68,2.03,17.69,2.95,35.33,2.41,53.14Z"/>
  </g>
  <path class="cls-21" d="M369.04,237.77c-19.28,13.82-40.65,25.19-63.58,31.63-15.29,4.18-30.8,7.3-45.87,12.22-22.57,6.92-45.17,14.95-64.83,28.22-19.45,13.16-37.09,29.73-49.02,50.12-20.56,34.59-25.52,75.41-7.98,112.35,0,0-2.79.89-2.79.89-8.41-43.22,4.82-87.9,38.17-117.26,12.76-11.51,27.57-20.43,42.82-28.18,7.62-3.91,15.65-7.16,23.99-9.32,16.64-4.07,33.6-5.38,50.08-9.96,16.44-4.19,32.56-9.69,48.4-15.83,15.75-6.19,31.5-13.11,44.93-23.55,13.49-10.3,23.49-25.4,25.72-42.42-3,27.01-23.77,45.22-46.79,56.82-30.56,15.04-63.25,26.25-96.8,32.32-8.4,1.49-16.81,2.69-24.94,4.91-8.14,2.16-15.93,5.45-23.44,9.3-22.49,11.4-44.14,25.95-59.07,46.61-23.56,32.07-26.59,69.43-18.09,107.36,0,0-4.86-10.45-4.86-10.45-6.76-14.53-10.59-30.47-10.85-46.51-.65-32.1,12.69-63.59,33.21-87.89,10.44-12.07,22.8-22.37,36.09-31.19,20-13.25,42.77-21.14,65.57-27.93,15.1-4.82,30.75-7.73,46.06-11.69,22.94-6.11,44.35-17.18,63.86-30.58h0Z"/>
  <path class="cls-21" d="M299.17,215.62c-28.84-.44-57.77,5.1-84.16,16.77-50.21,22.29-96.57,65.91-102.13,123.07-2.03,18.03.44,36.21,3.85,53.96,1.09,5.99,2.34,11.85,3.97,17.67,3.21,11.64,7.72,22.89,12.95,33.8,5.38,10.86,11.38,21.66,15.42,33.19,12.74,34.33,13.93,73.84-1.5,107.49-4.9,11.24-12.31,21.12-16.28,32.59-3.99,11.14-4,25.22,4.83,34.08-9.13-8.7-9.44-23.03-5.59-34.34,3.82-11.7,11.08-21.77,15.69-32.94,14.88-33.41,13.09-72.2.41-106-4.08-11.49-10-21.97-15.45-32.89-8.07-16.45-14.21-34.04-17.35-52.12-3.57-17.99-5.93-36.45-3.81-54.81,6.02-58.49,52.67-101.97,104.32-124.25,26.66-11.36,55.95-16.47,84.81-15.28h0Z"/>
  <path class="cls-21" d="M407.78,194.39c-34.7-42.02-83.73-65.55-138.5-62.46-39.53,2-77.7,16.84-110.28,38.94-10.96,7.34-21.24,15.65-31.05,24.5,7.13-6.88,14.63-13.39,22.5-19.42,80.48-62.15,191.28-66.61,257.33,18.44h0Z"/>
  <path class="cls-21" d="M407.12,210.57c-20.83-20.4-46.17-36.21-73.79-45.57-81.23-26.4-184.59.64-234.07,72.38-22.03,32.06-30.19,71.9-26.9,110.34,1.96,29.02,8.11,58.01,7.58,87.31.11,39.75-18.29,75.93-35.07,110.86-12.48,25.94-24.21,53.76-22.32,83.11,1.4,21.22,10.28,35.62,23,52.05,5.84,7.76,11.89,15.49,16.54,24.14,6.96,12.89,10.59,27.68,10.03,42.34-.55,14.67-6.25,28.98-16,39.96,9.55-11.08,14.98-25.38,15.38-39.98.56-26.9-10.86-45.47-27.11-65.56-9.82-12.44-19.05-26.03-22.17-41.85-4.68-23.02.42-46.84,8.7-68.43,24.95-61.09,53.31-95,44.87-165.67-2.81-28.95-8.61-58.12-6.63-87.44,3.32-60.86,39.87-112.65,93.78-140,43.51-22.06,94.32-30.44,142.46-22.04,38.46,6.7,74.35,26.37,101.73,54.04h0Z"/>
  <path class="cls-21" d="M409.87,214.95c-33.74-16.78-70.87-26.9-108.35-30.48-3.62-.39-9.56-.77-13.26-1.02-2.38-.04-7.71-.31-9.97-.35-1.96-.04-7.9.02-9.97,0-2.35.11-7.72.25-9.96.35-1.98.12-7.85.58-9.94.72-3.81.42-9.46.99-13.18,1.61-46.56,6.7-89.93,27.32-117.92,66.13-25.37,35.15-39.13,82.35-26.17,124.79,4.88,17.06,12.1,33.38,17.34,50.39,7.91,25.65,10.27,53.18,5.56,79.69-3.05,17.68-10.04,34.69-20.1,49.49-14.23,22.19-33.11,42.77-37.43,69.46-2.94,17.82,5,34.84,14.6,49.43,4.73,7.53,9.79,14.96,13.19,23.22,6.95,16.55,7.81,34.88,6.24,52.55,1.72-21.99-.95-45.11-13.16-63.96-7.06-11.33-15.21-22.1-19.76-34.84-13.19-36.46,16.08-68.56,34.38-97.12,25.09-36.97,26.84-85.35,13.81-127.11-9.27-29.51-24.86-58.52-22.5-90.37,2.64-47.02,27.03-92.46,64.84-120.52,25.32-18.53,55.86-29.09,86.8-33.27,1.62-.25,5-.7,6.64-.83,0,0,6.66-.69,6.66-.69l6.68-.43c1.63-.11,5.04-.3,6.68-.31,0,0,6.69-.18,6.69-.18l6.69.06c3.84-.05,9.51.33,13.36.46,1.84.19,8.13.59,10,.77,7.32.75,15.94,1.81,23.17,3.11,30.61,5.26,60.78,14.88,88.35,29.25h0Z"/>
  <path class="cls-21" d="M423.25,203.46c5.84-8.77,18.55-12.44,27.96-7.46-10.11-2.02-20.08.93-27.96,7.46h0Z"/>
  <path class="cls-21" d="M428.22,209.67c18.65-7.55,39.67,2.41,48.46,19.88-11.55-15.7-28.97-24.26-48.46-19.88h0Z"/>
  <path class="cls-21" d="M427.59,230.17c14.68-5.87,29.69-3.98,42.16,5.88,17.16,13.63,25.09,36.17,26.18,57.49-2.99-21.36-11.13-43.52-28.67-57.02-12.01-8.91-25.44-10.62-39.67-6.35h0Z"/>
  <path class="cls-1" d="M434.68,273.01c42.65,29.35,58.69,77.54,56.65,127.67-2.08,50.99-17.02,99.56,13.48,145.71,18.92,28.64,43.3,53.86,47.13,89.55,3.84,35.76-9.2,72.05-26.23,102.92-3.61,6.55-7.5,12.93-11.66,19.14"/>
  <path class="cls-7" d="M455.35,415.35c-1.65,3.16-8.92,16.39-24.57,25.4-16.31,9.38-32.34,8.78-47.92,8.19-11.32-.43-20.53-2.21-26.62-3.69,1.74-3.87,5.12-10.76,10.81-18.65,2.6-3.61,5.68-7.44,9.31-11.28,6.02-6.38,13.55-12.81,22.88-18.4,11.31-6.78,22.46-10.65,32.3-12.81,4.64-1.02,8.99-1.66,12.93-2.05,7.91-.78,14.18-.54,17.85-.29.4,5.77.56,19.19-6.97,33.58Z"/>
  <path class="cls-7" d="M293.98,441.16c-12.29.85-32.89.38-54.88-9.83-6.06-2.81-14.02-6.52-21.71-12.06-4.41-3.17-8.73-6.95-12.55-11.52-.02-.03-.05-.07-.07-.1-3.79-4.52-7.08-9.82-9.49-16.05-6.12-15.84-3.82-30.6-2.05-38.09,2.66-.02,8.54.03,16.28,1.26,3.88.62,8.23,1.53,12.87,2.87,12.21,3.53,26.47,10.06,39.66,22.08,4.14,3.78,7.75,7.7,10.88,11.67,3.67,4.62,6.7,9.3,9.21,13.86,8.84,16.09,11.16,30.64,11.85,35.91Z"/>
  <path class="cls-5" d="M449.62,401.63c0,23.42-20.45,42.39-45.67,42.39-15.16,0-28.6-6.86-36.9-17.42,2.6-3.61,5.68-7.44,9.31-11.28,6.02-6.38,13.55-12.81,22.88-18.4,11.31-6.78,22.46-10.65,32.3-12.81,4.64-1.02,8.99-1.66,12.93-2.05,3.29,5.85,5.15,12.51,5.15,19.57Z"/>
  <path class="cls-2" d="M415.57,429.22c-14.9,5.86-31.58-.33-39.21-13.9,6.02-6.38,13.55-12.81,22.88-18.4,11.31-6.78,22.46-10.65,32.3-12.81.72,1.27,1.36,2.6,1.91,4,6.41,16.29-1.59,34.69-17.88,41.11Z"/>
  <path class="cls-5" d="M282.13,405.25c-7.91,12.61-22.63,21.09-39.49,21.09-9.34,0-18.02-2.6-25.25-7.07-4.94-3.04-9.21-6.96-12.55-11.52-.02-.03-.05-.07-.07-.1-4.93-6.77-7.8-14.92-7.8-23.7,0-11.31,4.77-21.58,12.54-29.18,3.88.62,8.23,1.53,12.87,2.87,12.21,3.53,26.47,10.06,39.66,22.08,4.14,3.78,7.75,7.7,10.88,11.67,3.67,4.62,6.7,9.3,9.21,13.86Z"/>
  <path class="cls-21" d="M272.92,391.39c-2.74,8.88-9.35,16.47-18.67,20.14-16.29,6.41-34.69-1.59-41.11-17.88-5.14-13.07-1-27.5,9.24-36.01,12.21,3.53,26.47,10.06,39.66,22.08,4.14,3.78,7.75,7.7,10.88,11.67Z"/>
  <path class="cls-27" d="M230.07,365.26c2.7,2.83,5.41,5.66,8.11,8.49-2.7,3.58-5.4,7.15-8.1,10.73-2.98-3.42-5.96-6.83-8.94-10.25,2.98-2.99,5.96-5.98,8.94-8.97Z"/>
  <path class="cls-27" d="M404.54,398.16c2.7,2.83,5.41,5.66,8.11,8.49-2.7,3.58-5.4,7.15-8.1,10.73-2.98-3.42-5.96-6.83-8.94-10.25,2.98-2.99,5.96-5.98,8.94-8.97Z"/>
  <path class="cls-3" d="M363.45,431.92c6.16-18.24,15.52-30.17,21.45-36.63,3.97-4.33,23.15-25.21,49.05-27.37,5.34-.45,14.29-1.06,22.04,4.62,4.14,3.04,6.48,6.8,7.75,9.32-9.94-.79-30.75-1.09-53.76,9.42-26.92,12.3-41.19,32.25-46.52,40.63Z"/>
  <path class="cls-3" d="M293.47,437.8c-.24-12.92-2.62-30.29-11.57-48.24-5.49-11.02-11.65-23.38-25.52-31.63-12.08-7.19-24.1-7.88-35.34-8.51-17-.94-31.28,2.26-31.22,3.21.04.68,7.37.06,19.69,2.15,0,0,6.3,1.18,12.87,2.87,13.12,3.36,27.12,10.77,34,15.55,27.08,18.82,36.42,61.38,37.09,64.6Z"/>
  <path class="cls-21" d="M408.61,226.7c-3.84,26.18-1.42,53.68,9.32,77.99,5.33,12.22,13.66,22.66,21,33.71,16.42,25.07,28.4,53.12,35.07,82.35,3.54,16.28,5.56,33.03,4.82,49.7-.48,13.35-4.42,26.3-6.29,39.39-.87,6.52-.94,13.13-.41,19.69.54,6.55,1.38,13.15,2.99,19.51,1.51,6.39,4.32,12.36,7.07,18.42,8.42,18.11,15.03,37.01,21.21,55.97,4.13,12.65,8.33,25.28,11.63,38.19,4.33,17.17,6.08,32.4-.35,49.4-2.06,5.7-6.19,12.51-9.1,17.81-7.97,14.56-11.19,31.19-13.19,47.52-2.39,20.91,3.43,40.91,24.81,48.8-21.6-7.69-27.68-27.75-25.54-48.87,1.78-16.51,4.91-33.26,12.86-48.02,2.9-5.26,6.9-12.17,8.91-17.71,3.39-9.25,4.76-19.28,3.65-29.08-2.27-19.76-9.35-38.62-15.36-57.49-6.22-18.91-12.83-37.7-21.27-55.74-2.75-6.01-5.65-12.15-7.22-18.73-3.09-13.05-4.34-26.6-2.62-39.93.87-6.66,2.47-13.15,3.76-19.64,1.99-9.68,3.01-19.63,2.75-29.5-1.14-43.02-16.19-85.23-39.22-121.36-7.26-11.11-15.6-21.7-20.83-34.01-10.49-24.58-12.59-52.16-8.43-78.39h0Z"/>
  <g>
    <g>
      <path class="cls-14" d="M276.57,505.55c0,2.57.15,6.13.77,10.32,1.14,7.71,2.55,18.32,10.49,27.69,2.62,3.1,10.88,12.57,24.6,14.79,8.25,1.33,14.82-.55,16.54-1.08,6.18-1.9,10.24-5.03,12.91-7.13,1.21-.95,6.18-4.96,10.76-11.96,5.73-8.77,7.75-17.49,8.52-23.24-2.28-.47-5.8-1.15-10.13-1.77-18.7-2.65-29.06-.73-42.21-1.34-7.65-.35-18.73-1.68-32.23-6.28Z"/>
      <g class="cls-20">
        <path class="cls-25" d="M276.86,507.86c.02,5.55-4.13,10.48-4.44,16.21-.39,7.08,2.69,13.94,5.08,20.44,5.12,13.93,10.79,27.66,16.88,41.2,1.77,3.94,7.5,4.89,10.95,2.87,4.06-2.37,4.65-6.99,2.87-10.95-5.52-12.28-10.62-24.74-15.26-37.38-1.71-4.64-5.38-11.28-4.44-16.36,1.05-5.69,4.4-9.98,4.38-16.04-.04-10.29-16.04-10.31-16,0h0Z"/>
        <path class="cls-25" d="M279.22,512.93c-2.42,18.39,6.66,39.36,20.93,51.1,16.61,13.65,41.89,11.82,62.05,11.13,10.27-.35,10.32-16.35,0-16-8.86.3-17.75.61-26.6-.01-8.06-.57-17.67-1.58-24.32-6.6-11.65-8.81-17.94-25.39-16.06-39.61.57-4.29-4.08-8-8-8-4.79,0-7.43,3.7-8,8h0Z"/>
      </g>
      <path class="cls-8" d="M276.57,505.55c0,2.57.15,6.13.77,10.32,1.14,7.71,2.55,18.32,10.49,27.69,2.62,3.1,10.88,12.57,24.6,14.79,8.25,1.33,14.82-.55,16.54-1.08,6.18-1.9,10.24-5.03,12.91-7.13,1.21-.95,6.18-4.96,10.76-11.96,5.73-8.77,7.75-17.49,8.52-23.24-2.28-.47-5.8-1.15-10.13-1.77-18.7-2.65-29.06-.73-42.21-1.34-7.65-.35-18.73-1.68-32.23-6.28Z"/>
    </g>
    <g>
      <path class="cls-14" d="M269.15,498.21c.18-.23,3.74,4.49,10.11,5.66,5.51,1.01,7.72-1.63,21.83-6.06,10.46-3.28,13.7-3.23,16.17-1.62,2.63,1.72,2.85,4.19,5.66,4.85,3.19.75,4.72-2.03,8.89-2.83,4.91-.93,9.25,1.67,12.53,3.64,7.63,4.58,7.23,9.13,12.53,10.51,6.38,1.66,12.39-3.52,12.53-3.23.17.35-8.49,8.74-19.4,8.08-6.59-.4-9.42-3.86-15.36-2.02-2.4.74-3.3,1.73-8.21,3.35-3.68,1.21-5.57,1.81-7.79,1.56-3.78-.43-4.77-2.86-8.25-4.91-6.26-3.69-9.36-.09-19.81-2.02-1.8-.33-7.47-1.91-13.25-6.12-5.09-3.71-8.59-8.31-8.17-8.84Z"/>
      <g class="cls-19">
        <path class="cls-26" d="M295.62,483.54c-11.44,9.1-22.89,18.2-34.33,27.3-4.23,3.36-3.51,10.63,0,14.14,4.18,4.18,9.9,3.37,14.14,0,11.44-9.1,22.89-18.2,34.33-27.3,4.23-3.36,3.51-10.63,0-14.14-4.18-4.18-9.9-3.37-14.14,0h0Z"/>
      </g>
      <path class="cls-8" d="M269.15,498.21c.18-.23,3.74,4.49,10.11,5.66,5.51,1.01,7.72-1.63,21.83-6.06,10.46-3.28,13.7-3.23,16.17-1.62,2.63,1.72,2.85,4.19,5.66,4.85,3.19.75,4.72-2.03,8.89-2.83,4.91-.93,9.25,1.67,12.53,3.64,7.63,4.58,7.23,9.13,12.53,10.51,6.38,1.66,12.39-3.52,12.53-3.23.17.35-8.49,8.74-19.4,8.08-6.59-.4-9.42-3.86-15.36-2.02-2.4.74-3.3,1.73-8.21,3.35-3.68,1.21-5.57,1.81-7.79,1.56-3.78-.43-4.77-2.86-8.25-4.91-6.26-3.69-9.36-.09-19.81-2.02-1.8-.33-7.47-1.91-13.25-6.12-5.09-3.71-8.59-8.31-8.17-8.84Z"/>
    </g>
  </g>
  <path class="cls-22" d="M389.82,363.01c9.49-20.65,33.93-34.79,56.5-28.13,7.36,2.15,14,6.25,19.05,11.67-7.94-4.71-16.2-7.87-25.15-8.5-19.98-1.43-37.78,10.18-50.39,24.96h0Z"/>
  <path class="cls-22" d="M291.64,357.8c-5.46-6.57-11.31-12.53-17.72-17.72-6.39-5.2-13.36-9.55-20.74-13.03-3.71-1.7-7.5-3.21-11.39-4.47-3.89-1.27-7.87-2.24-11.91-3.04-8.1-1.58-16.42-2.16-24.96-2.08,8.17-2.55,16.94-3.32,25.6-2.59,4.33.37,8.66,1.11,12.88,2.25,2.1.59,4.2,1.22,6.25,1.99,2.07.71,4.05,1.66,6.07,2.5,7.92,3.73,15.22,8.81,21.35,14.98,6.11,6.17,11.22,13.33,14.56,21.21Z"/>
</svg>