<?xml version="1.0" encoding="UTF-8"?>
<svg id="SO_3" data-name="SO 3" xmlns="http://www.w3.org/2000/svg" xmlns:xlink="http://www.w3.org/1999/xlink" viewBox="0 0 595 830">
  <defs>
    <style>
      .cls-1, .cls-2, .cls-3, .cls-4, .cls-5, .cls-6, .cls-7, .cls-8, .cls-9, .cls-10 {
        stroke: #000;
        stroke-miterlimit: 10;
      }

      .cls-1, .cls-8 {
        fill: none;
      }

      .cls-1, .cls-9, .cls-10 {
        stroke-width: 3px;
      }

      .cls-11 {
        clip-path: url(#clippath);
      }

      .cls-12, .cls-6 {
        fill: #f978ad;
      }

      .cls-13, .cls-3, .cls-10 {
        fill: #eed6b2;
      }

      .cls-14, .cls-4 {
        fill: #e2a7a3;
      }

      .cls-3, .cls-4, .cls-5, .cls-6, .cls-7, .cls-8 {
        stroke-width: 2px;
      }

      .cls-5 {
        fill: #472e02;
      }

      .cls-7 {
        fill: #f7f3e8;
      }

      .cls-15 {
        clip-path: url(#clippath-1);
      }

      .cls-16 {
        clip-path: url(#clippath-4);
      }

      .cls-17 {
        clip-path: url(#clippath-3);
      }

      .cls-18 {
        clip-path: url(#clippath-2);
      }

      .cls-19 {
        clip-path: url(#clippath-6);
      }

      .cls-20 {
        clip-path: url(#clippath-5);
      }

      .cls-9, .cls-21 {
        fill: #542f03;
      }

      .cls-22, .cls-23, .cls-21, .cls-24, .cls-25, .cls-26, .cls-27, .cls-28, .cls-29 {
        stroke-width: 0px;
      }

      .cls-23 {
        fill: #4f3205;
      }

      .cls-24 {
        fill: #c63c7e;
      }

      .cls-25 {
        fill: #e1bc8f;
      }

      .cls-26 {
        fill: #b28282;
      }

      .cls-27 {
        fill: #b48186;
      }

      .cls-28 {
        fill: #fff;
      }

      .cls-29 {
        fill: #e5c396;
      }
    </style>
    <clipPath id="clippath">
      <path class="cls-3" d="M259.04,555.85c-3.26,4.47,1.4,8.68-1.24,22.01-.78,3.95-2.68,12.96-9.61,21.08-8.13,9.52-18.74,12.59-23.56,13.64,5.21,5.29,13.54,14.08,22.94,25.73,19.41,24.07,21.97,33.78,36.59,42.79,5.05,3.12,19.15,11.53,37.21,8.99,3.67-.52,24.37-3.85,33.49-20.77,4.03-7.47,4.19-14.6,4.34-21.39.11-4.84-.2-16.5-6.51-29.15-1.88-3.76-3.82-6.69-5.27-8.68-5.11.19-12.16-.43-17.67-4.96-10.21-8.39-4.58-21.52-11.78-34.11-12.01-21-51.25-25.68-58.91-15.19Z"/>
    </clipPath>
    <clipPath id="clippath-1">
      <path class="cls-3" d="M392.78,691.1c3.04,9.5,2.14,16.19.67,20.63-2.89,8.71-8.25,9.53-12.98,20.3-4.02,9.15-4.02,17.37-3.99,20.3.1,9.24,2.82,12.86,5.99,23.96,3.87,13.52,4.49,24.44,4.99,33.27,1.39,24.47-4.33,28.16.33,34.93,11.37,16.53,53.91,6.9,55.56-.67.19-.86.87-6.38.87-6.37h0c-18.89-63.84-20.84-81.46-20.84-81.46-1.84-16.64-.67-21.99-3.85-49.48-1.46-12.62-3.03-22.93-4.13-29.7-7.54,4.77-15.08,9.54-22.62,14.31Z"/>
    </clipPath>
    <clipPath id="clippath-2">
      <path class="cls-3" d="M137.25,671.91c-4.6,8.04-20.91,36.52-30.41,53.12-7.2,12.57-24.51,42.78-35.13,69.39-3.93,9.86-5.75,17.9-9.38,33.97-2.05,9.07-2.02,10.57-1.33,12.29,6.95,17.19,59.34,4.33,70.25.86,1.73-.55,4.32-1.47,5.14-3.66,2.16-5.8-11.44-11.85-13.28-22.9-1-5.98,1.9-10.72,7.71-19.7,21.54-33.29,37.2-54.24,37.2-54.24,3.5-4.68,9.07-12.17,15.91-21.58-.97-4.33-2.95-10.78-7.28-17.56-4.49-7.02-9.41-11.12-14.14-14.99-5.29-4.33-13.62-10.21-25.27-14.99Z"/>
    </clipPath>
    <clipPath id="clippath-3">
      <path class="cls-10" d="M470.06,396.84c-7.05,30.68-20,54.59-30.07,73.16-10,18.45-26.88,45.82-53.62,73.17-19.02,19.45-31.7,27.3-41.09,32.07-6.79,3.44-14.42,7.31-23.16,9.73-6.35,1.76-13.3,2.77-20.94,2.29-16.83-1.03-29-8.72-42.55-18.77-1.66-1.22-3.34-2.49-5.06-3.78-1.67-1.26-3.28-2.52-4.85-3.78-20.28-16.31-32.69-33.02-44.26-48.83-3.44-4.7-28.29-38.68-41.59-70.16-1.25-2.95-2.27-5.61-3.96-8.66-.37-.68-.79-2.09-2.05-3.37-1.64-1.64-3.55-2.16-4.05-2.31-4.99-1.5-16.88-11.26-23.56-23.96-2.06-3.92-3.14-7.2-3.77-10.15-.92-4.31-1.68-7.9-.2-11.18,3.06-6.75,13.45-7.36,14.31-7.4.45-8.36,1.62-19.87,4.74-33.2,10.89-46.5,42.86-102.51,90.47-135.72,14.97-10.44,31.49-18.63,49.38-23.57,10.84-2.99,22.18-4.78,34-5.16,48.81-1.56,98.27,23.03,127.98,61.48,46.4,60.05,29.37,134.23,23.9,158.1Z"/>
    </clipPath>
    <clipPath id="clippath-4">
      <path class="cls-6" d="M224.62,612.59c-11.11,2.28-27.89,7.14-45.65,18.32-21.94,13.81-34.99,30.75-41.72,40.99,6.34,2.06,19.45,7.27,31,19.93,9.59,10.51,13.81,21.43,15.69,27.62,1.44-1.57,3.75-3.54,6.83-3.93,5.75-.72,10.73,4.56,17.11,11.97,15.14,17.59,19.19,23.88,19.19,23.88,13.71,21.32,20.66,31.95,23.84,42.24,2.74,8.88,6.06,23.81,4.18,43.08,24.6.38,49.49.58,74.66.61,17.44.02,34.75-.05,51.92-.21-5.15-12-7.7-22.64-9.05-30.49-3.84-22.34-.99-39.63.92-50.63,2.4-13.8,3.71-20.85,9.13-28.23,3.63-4.94,6.82-6.98,9.35-12.61,3.65-8.13,2.68-16.56,1.22-22.55,6.95-4.98,13.9-9.97,20.85-14.95-.8-15.3-3.69-27.24-6.23-35.34-3.06-9.77-5.22-12.74-6.88-14.62-3.77-4.25-8.6-6.9-26.81-11.62-6.97-1.81-16.03-3.95-26.76-5.94,2.74,3.48,13.3,17.72,11.78,37.83-.33,4.38-1.71,22.71-16.26,34.18-17.4,13.71-41.77,8.26-55.36,1.01-8.62-4.6-12.23-9.57-27.01-27.65-7.89-9.65-20.16-24.49-35.93-42.88Z"/>
    </clipPath>
    <clipPath id="clippath-5">
      <path class="cls-4" d="M276.57,509.27c0,2.57.15,6.13.77,10.32,1.14,7.71,2.55,18.32,10.49,27.69,2.62,3.1,10.88,12.57,24.6,14.79,8.25,1.33,14.82-.55,16.54-1.08,6.18-1.9,10.24-5.03,12.91-7.13,1.21-.95,6.18-4.96,10.76-11.96,5.73-8.77,7.75-17.49,8.52-23.24-2.28-.47-5.8-1.15-10.13-1.77-18.7-2.65-29.06-.73-42.21-1.34-7.65-.35-18.73-1.68-32.23-6.28Z"/>
    </clipPath>
    <clipPath id="clippath-6">
      <path class="cls-4" d="M269.15,501.92c.18-.23,3.74,4.49,10.11,5.66,5.51,1.01,7.72-1.63,21.83-6.06,10.46-3.28,13.7-3.23,16.17-1.62,2.63,1.72,2.85,4.19,5.66,4.85,3.19.75,4.72-2.03,8.89-2.83,4.91-.93,9.25,1.67,12.53,3.64,7.63,4.58,7.23,9.13,12.53,10.51,6.38,1.66,12.39-3.52,12.53-3.23.17.35-8.49,8.74-19.4,8.08-6.59-.4-9.42-3.86-15.36-2.02-2.4.74-3.3,1.73-8.21,3.35-3.68,1.21-5.57,1.81-7.79,1.56-3.78-.43-4.77-2.86-8.25-4.91-6.26-3.69-9.36-.09-19.81-2.02-1.8-.33-7.47-1.91-13.25-6.12-5.09-3.71-8.59-8.31-8.17-8.84Z"/>
    </clipPath>
  </defs>
  <g>
    <path class="cls-9" d="M170.25,713.81c-3.13,11.97-4.99,21.82-6.13,28.78-1.3,7.93-1.24,9.59-.97,11.3,1.39,8.61,6.97,10.85,16.15,23.9,8.61,12.24,8.74,17.45,8.72,19.05,0,.53-.31,12.71-8.07,15.18-5.45,1.73-12.79-1.88-16.47-9.37-.28,1.11-2.53,10.93,3.88,18.42,7.44,8.7,19.65,6.17,21.31,5.8,11.21-2.52,18.02-13.06,20.02-21.64,2.27-9.7-1.38-17.89-6.78-30.03-6.86-15.41-10.29-17.89-14.53-29.39-2.58-7-5.48-17.89-5.07-32.84-4.02.28-8.03.55-12.05.83Z"/>
    <path class="cls-9" d="M142.56,780.35c5.26,2.07,4.96,14.36,4.94,15.07-.06,1.72-.46,8.33-5.19,14.32-5.83,7.4-12.54,6.66-13.34,11.34-.71,4.16,3.86,9.17,8.89,10.89,6.65,2.27,12.32-1.83,12.84-2.22-.18,2.06-.9,6.72-4.45,9.38-5.93,4.46-15.4.09-20-3.46-11.11-8.56-9.75-24.54-9.63-25.68,1.79-17.73,19.02-32.36,25.93-29.64Z"/>
  </g>
  <g>
    <path class="cls-22" d="M310.43,746.1c13.19-4.56,26.97-7.19,40.11-11.93,3.21-1.16,6.41-2.43,9.42-4.05,1.7-.92.19-3.51-1.51-2.59-5.61,3.04-11.85,4.93-17.93,6.76-6.98,2.1-14.04,3.95-21.06,5.92-3.29.93-6.58,1.88-9.82,2.99-1.81.63-1.03,3.53.8,2.89h0Z"/>
    <g>
      <path class="cls-13" d="M259.04,555.85c-3.26,4.47,1.4,8.68-1.24,22.01-.78,3.95-2.68,12.96-9.61,21.08-8.13,9.52-18.74,12.59-23.56,13.64,5.21,5.29,13.54,14.08,22.94,25.73,19.41,24.07,21.97,33.78,36.59,42.79,5.05,3.12,19.15,11.53,37.21,8.99,3.67-.52,24.37-3.85,33.49-20.77,4.03-7.47,4.19-14.6,4.34-21.39.11-4.84-.2-16.5-6.51-29.15-1.88-3.76-3.82-6.69-5.27-8.68-5.11.19-12.16-.43-17.67-4.96-10.21-8.39-4.58-21.52-11.78-34.11-12.01-21-51.25-25.68-58.91-15.19Z"/>
      <g class="cls-11">
        <ellipse class="cls-25" cx="273.59" cy="575.64" rx="45.13" ry="25.05"/>
      </g>
      <path class="cls-8" d="M259.04,555.85c-3.26,4.47,1.4,8.68-1.24,22.01-.78,3.95-2.68,12.96-9.61,21.08-8.13,9.52-18.74,12.59-23.56,13.64,5.21,5.29,13.54,14.08,22.94,25.73,19.41,24.07,21.97,33.78,36.59,42.79,5.05,3.12,19.15,11.53,37.21,8.99,3.67-.52,24.37-3.85,33.49-20.77,4.03-7.47,4.19-14.6,4.34-21.39.11-4.84-.2-16.5-6.51-29.15-1.88-3.76-3.82-6.69-5.27-8.68-5.11.19-12.16-.43-17.67-4.96-10.21-8.39-4.58-21.52-11.78-34.11-12.01-21-51.25-25.68-58.91-15.19Z"/>
    </g>
    <g>
      <path class="cls-13" d="M392.78,691.1c3.04,9.5,2.14,16.19.67,20.63-2.89,8.71-8.25,9.53-12.98,20.3-4.02,9.15-4.02,17.37-3.99,20.3.1,9.24,2.82,12.86,5.99,23.96,3.87,13.52,4.49,24.44,4.99,33.27,1.39,24.47-4.33,28.16.33,34.93,11.37,16.53,53.91,6.9,55.56-.67.19-.86.87-6.38.87-6.37h0c-18.89-63.84-20.84-81.46-20.84-81.46-1.84-16.64-.67-21.99-3.85-49.48-1.46-12.62-3.03-22.93-4.13-29.7-7.54,4.77-15.08,9.54-22.62,14.31Z"/>
      <g class="cls-15">
        <path class="cls-29" d="M385.16,694.09c3.35,12.85-5.37,26.35-7.74,38.77-2.57,13.48-1.38,26.98,1.42,40.33,5.02,23.93,17.14,49.12,11.41,73.96l17.55-4.63c-3.77-4.83-5.68-10.68-6.71-16.63-.96-5.59-7.83-8.73-12.92-7.33-5.91,1.62-8.3,7.31-7.33,12.92,1.68,9.75,6.08,18.17,12.11,25.9,4.89,6.27,15.91,2.47,17.55-4.63,6.5-28.19-4.56-54.9-10.73-82.02-2.78-12.23-4.25-24.83-.98-37.11,4.01-15.08,10.76-29.18,6.62-45.09-3.4-13.07-23.66-7.53-20.25,5.58h0Z"/>
      </g>
      <path class="cls-8" d="M392.78,691.1c3.04,9.5,2.14,16.19.67,20.63-2.89,8.71-8.25,9.53-12.98,20.3-4.02,9.15-4.02,17.37-3.99,20.3.1,9.24,2.82,12.86,5.99,23.96,3.87,13.52,4.49,24.44,4.99,33.27,1.39,24.47-4.33,28.16.33,34.93,11.37,16.53,53.91,6.9,55.56-.67.19-.86.87-6.38.87-6.37h0c-18.89-63.84-20.84-81.46-20.84-81.46-1.84-16.64-.67-21.99-3.85-49.48-1.46-12.62-3.03-22.93-4.13-29.7-7.54,4.77-15.08,9.54-22.62,14.31Z"/>
    </g>
    <g>
      <path class="cls-13" d="M137.25,671.91c-4.6,8.04-20.91,36.52-30.41,53.12-7.2,12.57-24.51,42.78-35.13,69.39-3.93,9.86-5.75,17.9-9.38,33.97-2.05,9.07-2.02,10.57-1.33,12.29,6.95,17.19,59.34,4.33,70.25.86,1.73-.55,4.32-1.47,5.14-3.66,2.16-5.8-11.44-11.85-13.28-22.9-1-5.98,1.9-10.72,7.71-19.7,21.54-33.29,37.2-54.24,37.2-54.24,3.5-4.68,9.07-12.17,15.91-21.58-.97-4.33-2.95-10.78-7.28-17.56-4.49-7.02-9.41-11.12-14.14-14.99-5.29-4.33-13.62-10.21-25.27-14.99Z"/>
      <g class="cls-18">
        <path class="cls-29" d="M129.17,665.78c-19.7,28.23-34.12,59.52-47.45,91.14-13.68,32.44-30.26,65.92-25.2,102.06.86,6.16,8.71,9.52,14.15,8.03,6.63-1.82,8.9-7.97,8.03-14.15-2.23-15.89,2.49-32.12,7.82-46.91,5.29-14.71,11.52-29.15,17.65-43.53,12.58-29.53,26.45-58.64,44.87-85.03,3.56-5.1.93-12.78-4.13-15.73-5.73-3.35-12.17-.98-15.73,4.13h0Z"/>
        <path class="cls-22" d="M395.22,667.73v182.43c0,1.93,3,1.93,3,0v-182.43c0-1.93-3-1.93-3,0h0Z"/>
        <path class="cls-22" d="M405.63,773.54c3.7,27.25,8.03,54.41,12.99,81.45,1.39,7.61,2.84,15.21,4.33,22.81.37,1.89,3.26,1.09,2.89-.8-5.3-26.98-9.99-54.08-14.04-81.28-1.14-7.65-2.23-15.32-3.27-22.98-.11-.81-1.14-1.23-1.85-1.05-.87.23-1.16,1.05-1.05,1.85h0Z"/>
      </g>
      <path class="cls-8" d="M137.25,671.91c-4.6,8.04-20.91,36.52-30.41,53.12-7.2,12.57-24.51,42.78-35.13,69.39-3.93,9.86-5.75,17.9-9.38,33.97-2.05,9.07-2.02,10.57-1.33,12.29,6.95,17.19,59.34,4.33,70.25.86,1.73-.55,4.32-1.47,5.14-3.66,2.16-5.8-11.44-11.85-13.28-22.9-1-5.98,1.9-10.72,7.71-19.7,21.54-33.29,37.2-54.24,37.2-54.24,3.5-4.68,9.07-12.17,15.91-21.58-.97-4.33-2.95-10.78-7.28-17.56-4.49-7.02-9.41-11.12-14.14-14.99-5.29-4.33-13.62-10.21-25.27-14.99Z"/>
    </g>
    <g>
      <path class="cls-13" d="M470.06,396.84c-7.05,30.68-20,54.59-30.07,73.16-10,18.45-26.88,45.82-53.62,73.17-19.02,19.45-31.7,27.3-41.09,32.07-6.79,3.44-14.42,7.31-23.16,9.73-6.35,1.76-13.3,2.77-20.94,2.29-16.83-1.03-29-8.72-42.55-18.77-1.66-1.22-3.34-2.49-5.06-3.78-1.67-1.26-3.28-2.52-4.85-3.78-20.28-16.31-32.69-33.02-44.26-48.83-3.44-4.7-28.29-38.68-41.59-70.16-1.25-2.95-2.27-5.61-3.96-8.66-.37-.68-.79-2.09-2.05-3.37-1.64-1.64-3.55-2.16-4.05-2.31-4.99-1.5-16.88-11.26-23.56-23.96-2.06-3.92-3.14-7.2-3.77-10.15-.92-4.31-1.68-7.9-.2-11.18,3.06-6.75,13.45-7.36,14.31-7.4.45-8.36,1.62-19.87,4.74-33.2,10.89-46.5,42.86-102.51,90.47-135.72,14.97-10.44,31.49-18.63,49.38-23.57,10.84-2.99,22.18-4.78,34-5.16,48.81-1.56,98.27,23.03,127.98,61.48,46.4,60.05,29.37,134.23,23.9,158.1Z"/>
      <g class="cls-17">
        <path class="cls-25" d="M299.79,162.78c-22.69,26.96-60.68,79.79-77.19,156.15-26.43,122.31,20.58,220.32,36.02,249.56-15.43.06-55.15-1.97-86.59-30.42-21.91-19.82-29.4-42.5-39.04-77.19-12.35-44.47-24.07-86.67-9.76-139.29,14.61-53.71,47.62-86.26,60.33-98.48,44.8-43.08,94.84-56.07,116.22-60.33Z"/>
      </g>
      <path class="cls-1" d="M470.06,396.84c-7.05,30.68-20,54.59-30.07,73.16-10,18.45-26.88,45.82-53.62,73.17-19.02,19.45-31.7,27.3-41.09,32.07-6.79,3.44-14.42,7.31-23.16,9.73-6.35,1.76-13.3,2.77-20.94,2.29-16.83-1.03-29-8.72-42.55-18.77-1.66-1.22-3.34-2.49-5.06-3.78-1.67-1.26-3.28-2.52-4.85-3.78-20.28-16.31-32.69-33.02-44.26-48.83-3.44-4.7-28.29-38.68-41.59-70.16-1.25-2.95-2.27-5.61-3.96-8.66-.37-.68-.79-2.09-2.05-3.37-1.64-1.64-3.55-2.16-4.05-2.31-4.99-1.5-16.88-11.26-23.56-23.96-2.06-3.92-3.14-7.2-3.77-10.15-.92-4.31-1.68-7.9-.2-11.18,3.06-6.75,13.45-7.36,14.31-7.4.45-8.36,1.62-19.87,4.74-33.2,10.89-46.5,42.86-102.51,90.47-135.72,14.97-10.44,31.49-18.63,49.38-23.57,10.84-2.99,22.18-4.78,34-5.16,48.81-1.56,98.27,23.03,127.98,61.48,46.4,60.05,29.37,134.23,23.9,158.1Z"/>
    </g>
  </g>
  <g>
    <path class="cls-12" d="M224.62,612.59c-11.11,2.28-27.89,7.14-45.65,18.32-21.94,13.81-34.99,30.75-41.72,40.99,6.34,2.06,19.45,7.27,31,19.93,9.59,10.51,13.81,21.43,15.69,27.62,1.44-1.57,3.75-3.54,6.83-3.93,5.75-.72,10.73,4.56,17.11,11.97,15.14,17.59,19.19,23.88,19.19,23.88,13.71,21.32,20.66,31.95,23.84,42.24,2.74,8.88,6.06,23.81,4.18,43.08,24.6.38,49.49.58,74.66.61,17.44.02,34.75-.05,51.92-.21-5.15-12-7.7-22.64-9.05-30.49-3.84-22.34-.99-39.63.92-50.63,2.4-13.8,3.71-20.85,9.13-28.23,3.63-4.94,6.82-6.98,9.35-12.61,3.65-8.13,2.68-16.56,1.22-22.55,6.95-4.98,13.9-9.97,20.85-14.95-.8-15.3-3.69-27.24-6.23-35.34-3.06-9.77-5.22-12.74-6.88-14.62-3.77-4.25-8.6-6.9-26.81-11.62-6.97-1.81-16.03-3.95-26.76-5.94,2.74,3.48,13.3,17.72,11.78,37.83-.33,4.38-1.71,22.71-16.26,34.18-17.4,13.71-41.77,8.26-55.36,1.01-8.62-4.6-12.23-9.57-27.01-27.65-7.89-9.65-20.16-24.49-35.93-42.88Z"/>
    <g class="cls-16">
      <path class="cls-24" d="M190.01,731.45c5.26,2.6,10.26,5.6,14.99,9.07,1.13.83-.64-.61,1.18.93,1.17.99,2.33,1.96,3.47,2.98,2.09,1.87,4.09,3.83,6.03,5.86,7.36,7.71,12.82,15.66,18.21,26.46,11.36,22.75,14.43,48.72,13.98,74.3-.14,7.85,7,15.36,15,15,8.25-.37,14.85-6.59,15-15,1-56.32-18.78-118.88-72.71-145.51-7.26-3.58-16.23-1.95-20.52,5.38-3.87,6.62-1.91,16.92,5.38,20.52h0Z"/>
    </g>
    <path class="cls-8" d="M224.62,612.59c-11.11,2.28-27.89,7.14-45.65,18.32-21.94,13.81-34.99,30.75-41.72,40.99,6.34,2.06,19.45,7.27,31,19.93,9.59,10.51,13.81,21.43,15.69,27.62,1.44-1.57,3.75-3.54,6.83-3.93,5.75-.72,10.73,4.56,17.11,11.97,15.14,17.59,19.19,23.88,19.19,23.88,13.71,21.32,20.66,31.95,23.84,42.24,2.74,8.88,6.06,23.81,4.18,43.08,24.6.38,49.49.58,74.66.61,17.44.02,34.75-.05,51.92-.21-5.15-12-7.7-22.64-9.05-30.49-3.84-22.34-.99-39.63.92-50.63,2.4-13.8,3.71-20.85,9.13-28.23,3.63-4.94,6.82-6.98,9.35-12.61,3.65-8.13,2.68-16.56,1.22-22.55,6.95-4.98,13.9-9.97,20.85-14.95-.8-15.3-3.69-27.24-6.23-35.34-3.06-9.77-5.22-12.74-6.88-14.62-3.77-4.25-8.6-6.9-26.81-11.62-6.97-1.81-16.03-3.95-26.76-5.94,2.74,3.48,13.3,17.72,11.78,37.83-.33,4.38-1.71,22.71-16.26,34.18-17.4,13.71-41.77,8.26-55.36,1.01-8.62-4.6-12.23-9.57-27.01-27.65-7.89-9.65-20.16-24.49-35.93-42.88Z"/>
  </g>
  <path class="cls-7" d="M455.35,419.07c-1.65,3.16-8.92,16.39-24.57,25.4-16.31,9.38-32.34,8.78-47.92,8.19-11.32-.43-20.53-2.21-26.62-3.69,1.74-3.87,5.12-10.76,10.81-18.65,2.6-3.61,5.68-7.44,9.31-11.28,6.02-6.38,13.55-12.81,22.88-18.4,11.31-6.78,22.46-10.65,32.3-12.81,4.64-1.02,8.99-1.66,12.93-2.05,7.91-.78,14.18-.54,17.85-.29.4,5.77.56,19.19-6.97,33.58Z"/>
  <path class="cls-7" d="M293.98,444.88c-12.29.85-32.89.38-54.88-9.83-6.06-2.81-14.02-6.52-21.71-12.06-4.41-3.17-8.73-6.95-12.55-11.52-.02-.03-.05-.07-.07-.1-3.79-4.52-7.08-9.82-9.49-16.05-6.12-15.84-3.82-30.6-2.05-38.09,2.66-.02,8.54.03,16.28,1.26,3.88.62,8.23,1.53,12.87,2.87,12.21,3.53,26.47,10.06,39.66,22.08,4.14,3.78,7.75,7.7,10.88,11.67,3.67,4.62,6.7,9.3,9.21,13.86,8.84,16.09,11.16,30.64,11.85,35.91Z"/>
  <path class="cls-5" d="M449.62,405.35c0,23.42-20.45,42.39-45.67,42.39-15.16,0-28.6-6.86-36.9-17.42,2.6-3.61,5.68-7.44,9.31-11.28,6.02-6.38,13.55-12.81,22.88-18.4,11.31-6.78,22.46-10.65,32.3-12.81,4.64-1.02,8.99-1.66,12.93-2.05,3.29,5.85,5.15,12.51,5.15,19.57Z"/>
  <path class="cls-2" d="M415.57,432.94c-14.9,5.86-31.58-.33-39.21-13.9,6.02-6.38,13.55-12.81,22.88-18.4,11.31-6.78,22.46-10.65,32.3-12.81.72,1.27,1.36,2.6,1.91,4,6.41,16.29-1.59,34.69-17.88,41.11Z"/>
  <path class="cls-5" d="M282.13,408.97c-7.91,12.61-22.63,21.09-39.49,21.09-9.34,0-18.02-2.6-25.25-7.07-4.94-3.04-9.21-6.96-12.55-11.52-.02-.03-.05-.07-.07-.1-4.93-6.77-7.8-14.92-7.8-23.7,0-11.31,4.77-21.58,12.54-29.18,3.88.62,8.23,1.53,12.87,2.87,12.21,3.53,26.47,10.06,39.66,22.08,4.14,3.78,7.75,7.7,10.88,11.67,3.67,4.62,6.7,9.3,9.21,13.86Z"/>
  <path class="cls-22" d="M272.92,395.11c-2.74,8.88-9.35,16.47-18.67,20.14-16.29,6.41-34.69-1.59-41.11-17.88-5.14-13.07-1-27.5,9.24-36.01,12.21,3.53,26.47,10.06,39.66,22.08,4.14,3.78,7.75,7.7,10.88,11.67Z"/>
  <path class="cls-28" d="M230.07,368.97c2.7,2.83,5.41,5.66,8.11,8.49-2.7,3.58-5.4,7.15-8.1,10.73-2.98-3.42-5.96-6.83-8.94-10.25,2.98-2.99,5.96-5.98,8.94-8.97Z"/>
  <path class="cls-28" d="M404.54,401.88c2.7,2.83,5.41,5.66,8.11,8.49-2.7,3.58-5.4,7.15-8.1,10.73-2.98-3.42-5.96-6.83-8.94-10.25,2.98-2.99,5.96-5.98,8.94-8.97Z"/>
  <path class="cls-3" d="M363.45,435.64c6.16-18.24,15.52-30.17,21.45-36.63,3.97-4.33,23.15-25.21,49.05-27.37,5.34-.45,14.29-1.06,22.04,4.62,4.14,3.04,6.48,6.8,7.75,9.32-9.94-.79-30.75-1.09-53.76,9.42-26.92,12.3-41.19,32.25-46.52,40.63Z"/>
  <path class="cls-3" d="M293.47,441.52c-.24-12.92-2.62-30.29-11.57-48.24-5.49-11.02-11.65-23.38-25.52-31.63-12.08-7.19-24.1-7.88-35.34-8.51-17-.94-31.28,2.26-31.22,3.21.04.68,7.37.06,19.69,2.15,0,0,6.3,1.18,12.87,2.87,13.12,3.36,27.12,10.77,34,15.55,27.08,18.82,36.42,61.38,37.09,64.6Z"/>
  <g>
    <g>
      <path class="cls-14" d="M276.57,509.27c0,2.57.15,6.13.77,10.32,1.14,7.71,2.55,18.32,10.49,27.69,2.62,3.1,10.88,12.57,24.6,14.79,8.25,1.33,14.82-.55,16.54-1.08,6.18-1.9,10.24-5.03,12.91-7.13,1.21-.95,6.18-4.96,10.76-11.96,5.73-8.77,7.75-17.49,8.52-23.24-2.28-.47-5.8-1.15-10.13-1.77-18.7-2.65-29.06-.73-42.21-1.34-7.65-.35-18.73-1.68-32.23-6.28Z"/>
      <g class="cls-20">
        <path class="cls-26" d="M276.86,511.57c.02,5.55-4.13,10.48-4.44,16.21-.39,7.08,2.69,13.94,5.08,20.44,5.12,13.93,10.79,27.66,16.88,41.2,1.77,3.94,7.5,4.89,10.95,2.87,4.06-2.37,4.65-6.99,2.87-10.95-5.52-12.28-10.62-24.74-15.26-37.38-1.71-4.64-5.38-11.28-4.44-16.36,1.05-5.69,4.4-9.98,4.38-16.04-.04-10.29-16.04-10.31-16,0h0Z"/>
        <path class="cls-26" d="M279.22,516.65c-2.42,18.39,6.66,39.36,20.93,51.1,16.61,13.65,41.89,11.82,62.05,11.13,10.27-.35,10.32-16.35,0-16-8.86.3-17.75.61-26.6-.01-8.06-.57-17.67-1.58-24.32-6.6-11.65-8.81-17.94-25.39-16.06-39.61.57-4.29-4.08-8-8-8-4.79,0-7.43,3.7-8,8h0Z"/>
      </g>
      <path class="cls-8" d="M276.57,509.27c0,2.57.15,6.13.77,10.32,1.14,7.71,2.55,18.32,10.49,27.69,2.62,3.1,10.88,12.57,24.6,14.79,8.25,1.33,14.82-.55,16.54-1.08,6.18-1.9,10.24-5.03,12.91-7.13,1.21-.95,6.18-4.96,10.76-11.96,5.73-8.77,7.75-17.49,8.52-23.24-2.28-.47-5.8-1.15-10.13-1.77-18.7-2.65-29.06-.73-42.21-1.34-7.65-.35-18.73-1.68-32.23-6.28Z"/>
    </g>
    <g>
      <path class="cls-14" d="M269.15,501.92c.18-.23,3.74,4.49,10.11,5.66,5.51,1.01,7.72-1.63,21.83-6.06,10.46-3.28,13.7-3.23,16.17-1.62,2.63,1.72,2.85,4.19,5.66,4.85,3.19.75,4.72-2.03,8.89-2.83,4.91-.93,9.25,1.67,12.53,3.64,7.63,4.58,7.23,9.13,12.53,10.51,6.38,1.66,12.39-3.52,12.53-3.23.17.35-8.49,8.74-19.4,8.08-6.59-.4-9.42-3.86-15.36-2.02-2.4.74-3.3,1.73-8.21,3.35-3.68,1.21-5.57,1.81-7.79,1.56-3.78-.43-4.77-2.86-8.25-4.91-6.26-3.69-9.36-.09-19.81-2.02-1.8-.33-7.47-1.91-13.25-6.12-5.09-3.71-8.59-8.31-8.17-8.84Z"/>
      <g class="cls-19">
        <path class="cls-27" d="M295.62,487.25c-11.44,9.1-22.89,18.2-34.33,27.3-4.23,3.36-3.51,10.63,0,14.14,4.18,4.18,9.9,3.37,14.14,0,11.44-9.1,22.89-18.2,34.33-27.3,4.23-3.36,3.51-10.63,0-14.14-4.18-4.18-9.9-3.37-14.14,0h0Z"/>
      </g>
      <path class="cls-8" d="M269.15,501.92c.18-.23,3.74,4.49,10.11,5.66,5.51,1.01,7.72-1.63,21.83-6.06,10.46-3.28,13.7-3.23,16.17-1.62,2.63,1.72,2.85,4.19,5.66,4.85,3.19.75,4.72-2.03,8.89-2.83,4.91-.93,9.25,1.67,12.53,3.64,7.63,4.58,7.23,9.13,12.53,10.51,6.38,1.66,12.39-3.52,12.53-3.23.17.35-8.49,8.74-19.4,8.08-6.59-.4-9.42-3.86-15.36-2.02-2.4.74-3.3,1.73-8.21,3.35-3.68,1.21-5.57,1.81-7.79,1.56-3.78-.43-4.77-2.86-8.25-4.91-6.26-3.69-9.36-.09-19.81-2.02-1.8-.33-7.47-1.91-13.25-6.12-5.09-3.71-8.59-8.31-8.17-8.84Z"/>
    </g>
  </g>
  <path class="cls-23" d="M389.82,366.73c9.49-20.65,33.93-34.79,56.5-28.13,7.36,2.15,14,6.25,19.05,11.67-7.94-4.71-16.2-7.87-25.15-8.5-19.98-1.43-37.78,10.18-50.39,24.96h0Z"/>
  <path class="cls-23" d="M291.64,361.51c-5.46-6.57-11.31-12.53-17.72-17.72-6.39-5.2-13.36-9.55-20.74-13.03-3.71-1.7-7.5-3.21-11.39-4.47-3.89-1.27-7.87-2.24-11.91-3.04-8.1-1.58-16.42-2.16-24.96-2.08,8.17-2.55,16.94-3.32,25.6-2.59,4.33.37,8.66,1.11,12.88,2.25,2.1.59,4.2,1.22,6.25,1.99,2.07.71,4.05,1.66,6.07,2.5,7.92,3.73,15.22,8.81,21.35,14.98,6.11,6.17,11.22,13.33,14.56,21.21Z"/>
  <path class="cls-9" d="M251.65,235.41c-.52,15.21,1.29,37.18,14.82,56.51,18.51,26.44,46.85,30.94,119.84,53.7,20.04,6.25,50.6,16.11,88.11,29.64-.42,2.58-1.05,6.16-1.91,10.4,0,0-4.47,21.93-12.14,42.25-8.42,22.29-20.7,40.82-38.94,68.05-26.34,39.32-40.26,52.73-47.37,59.04-12.19,10.83-22.47,16.9-28.77,20.25-9.06,4.8-17.17,7.83-23.16,9.73.14,5.79,1.32,13.68,6.79,19.57,6.97,7.5,15.97,6.44,29.8,9.57,2.87.65,28.42,6.67,41.98,20.64,11.62,11.97,11.64,26.89,13.4,45.84,1.98,21.31,6.5,51.41,17.91,88.72,1.14-3.3,2.27-6.6,3.41-9.9,2.53,11.97,7.43,18.99,11.62,23.24,3.9,3.97,8.76,7.13,10.22,13.67.42,1.89,1.5,6.7-1.63,9.8-2.37,2.35-6.56,3.14-9.99,1.37-2.87-1.48-4.67-4.48-4.65-7.75-.09,1.14-.65,10.43,6.04,15.72,8.79,6.94,21.45.15,22.54-.46,13.34-7.41,14.01-25.02,14.05-26.42.29-12.49-6.73-16.32-10.86-31.23-2.09-7.54-3.75-19-.37-34.53,6.23,9.44,12.74,15.2,17.61,18.74,6.05,4.4,10.71,6.2,14.61,12.49,1.31,2.11,5.89,9.49,2.62,15.06-1.36,2.32-4.2,4.56-6.89,4.24-4.01-.47-7.83-6.64-7.37-15.56-1.07,1.27-7.68,9.36-5.61,19.49,2.24,10.97,13.12,16.73,20.97,18.13,16.4,2.92,31.53-11.11,37.32-25.29,4.22-10.33,4.36-22.26.4-32.69-5.02-13.23-19.86-21.76-21.77-35.77-1.86-13.64,8.13-21.33,16.62-37.07,17.32-32.1,10.92-67.86,7.28-88.16-7.86-43.92-28.5-52.69-22.46-83.11,4.82-24.25,12.8-39.23,12.8-39.23,5.21-7.88,11.03-15.91,12.11-25.29,1.42-12.27-5.79-24.16-15.21-32.16-14.18-12.04-7.12-38.85-9.47-56.6-2.16-16.29-6.1-32.34-11.89-47.73-7.62-20.26-16.56-34.6-28.04-53-10.85-17.41-26.37-39.49-48.96-60.02-11.76-10.69-25.11-20.66-43.35-23.01-3.8-.49-7-.54-9.18-.5-3.54-2.95-11.39-8.69-23.11-11.08-11.88-2.42-21.52-.14-25.96,1.21-9.44-4.15-27.12-10.43-49.94-9.79-28.32.79-48.84,11.82-57.85,17.4-4.86,3.01-12.27,1.22-17.69,1.44-8.55.36-17.06,1.54-25.38,3.51-50.73,11.99-98.15,58.4-100.36,112.3-1.73,42.34,17.41,79.64-10.1,117.52-13.57,18.69-27.11,36.02-27.85,60.29-.9,29.8,17.56,56.3,26.38,84.79,11.58,37.41,5.25,78.2-14.52,111.7-7.3,12.36-16.67,25.33-14.56,39.53,1.28,8.65,6.69,16.01,10.96,23.65,4.26,7.63,7.51,16.9,4.16,24.98-3.75,9.03-14.01,13-22.69,17.5-16.03,8.31-23.29,30.99-6.48,43.33,7.77,5.7,20.35,9.33,19.74,18.95-.31,4.9-5.2,9.01-10.08,8.48s-8.77-5.61-8.01-10.46c-2.63,5.48-.98,12.68,3.78,16.47,4.76,3.79,12.15,3.78,16.9,0,3.8-3.03,5.67-7.81,7.44-12.34,14.97-38.45,33.77-75.4,56.05-110.13,21.35-33.29,47.69-65.95,84.47-80.5,12.02-4.75,24.9-7.46,36.21-13.71,11.31-6.26,21.21-17.37,21.07-30.29-.2-17.7-17.64-29.25-30.7-41.2-22.37-20.45-35.15-48.62-49.78-74.59-7.36-13.07-15.23-26.01-25.21-37.27-9.26-10.43-27.69-17.99-30.49-32.28-1.54-7.9.15-18.38,6.48-22.5,4.71-3.06,9.55-1.03,14.46-.98,17.63.2,24.87-25.13,48.87-52.82,21.47-24.77,31.06-22.24,45.38-44.99,9.32-14.81,13.5-28.97,15.57-38.5Z"/>
  <g>
    <path class="cls-21" d="M379.01,555.32c.56,12.07,2.4,21.59,3.98,28.06,1.95,7.97,3.66,11.82,9.9,30.43,4.9,14.62,7.35,21.93,7.52,22.88,2.23,12.28-6,27.67-20.9,58.75-12.68,26.45-19.46,35.74-18.64,52.53.25,5.06,1.12,19.13,10.75,25.33.98.63,8.41,5.41,13.57,1.83,3.09-2.14,4.4-6.61,3.67-11.37,5.87,3.78,9.26,9.81,8.43,15.4-1.21,8.21-11.03,12.23-17.6,12.47-12.05.43-21.75-11.56-25.66-20.9-5.81-13.86-1.22-27.55,3.67-42.16,6.54-19.53,11.9-20.23,19.07-41.8,4.42-13.31,7.41-22.31,5.87-34.1-.77-5.87-4.79-14.55-12.83-31.9-6.34-13.69-10.29-19.03-12.83-30.06-1.68-7.3-2.03-13.52-2.06-17.65,3.88-2.34,8.01-5.06,12.28-8.19,4.41-3.23,8.34-6.46,11.83-9.55Z"/>
    <path class="cls-22" d="M379.01,555.32c.8,16.29,4.74,32.08,10.6,47.23,3.39,9.99,8.06,22.74,11.22,32.63,3.73,12.76-7.41,32.81-12.64,44.69-4.65,9.77-9.21,19.58-14.02,29.29-4.61,9.61-10.01,19.08-11.58,29.72-1.08,9.92-.33,21.95,6.07,29.93,7.25,8.22,20.47,9.71,18.77-4.82,0,0-.49-3.19-.49-3.19,3.58,2.18,7.21,4.77,9.43,8.46,3.77,5.61,3.3,13.57-2.04,18.11-3.57,3.24-8.23,5.01-12.97,5.6-11.41,1.28-20.95-7.72-26.22-16.86-6.67-10.82-6.12-23.95-2.61-35.68,2.56-8.66,5.23-17.31,9.32-25.39,2.71-5.34,6-10.3,8.54-15.68,2.58-5.33,4.56-10.88,6.42-16.51,3.32-9.68,6.29-19.87,4.81-30.14-.63-4.32-2.38-8.42-4.03-12.49-4.67-10.94-9.66-21.76-14.93-32.45-5.54-10.67-8.19-22.72-8.12-34.71,0,0,0-.2,0-.2l.16-.1c8.58-5.08,16.73-10.91,24.29-17.45h0ZM379.01,555.32c-7.39,6.73-15.4,12.79-23.94,18.04,0,0,.16-.29.16-.29.1,5.94.85,11.86,2.24,17.61,1.85,8.38,6.6,16.84,10.47,24.48,3.92,8.07,7.72,16.14,11.34,24.36,1.74,4.17,3.6,8.4,4.31,12.94,1.65,10.63-1.25,21.17-4.55,31.14-1.82,5.7-3.78,11.43-6.35,16.87-3.86,8.05-9.07,15.43-12.05,23.82-2.04,5.5-3.91,11.22-5.49,16.87-3.28,11.14-3.85,23.4,2.45,33.53,4.89,8.28,13.2,16.45,23.43,15.35,5.3-.7,11.05-3.16,13.73-7.96,3.4-6.3-1.16-13.64-6.69-17.1,0,0,2.21-1.44,2.21-1.44,1.09,5.81-1.54,13.6-8.34,14.23-6.12.38-11.51-2.81-15.4-7.18-6.97-8.7-7.78-21.42-6.58-32.09,1.64-10.91,7.18-20.72,11.95-30.46,4.9-9.63,9.57-19.38,14.33-29.1,2.35-4.86,4.69-9.73,6.87-14.66,3.15-7.34,6.4-14.84,6.8-22.87-.02-1.8-.06-4.04-.64-5.76-.18-.79-5.2-16.04-5.6-17.36-2.85-8.96-7.42-21.93-10.02-30.89-2.83-10.48-4.3-21.28-4.67-32.09h0Z"/>
  </g>
  <path class="cls-22" d="M320.67,222.84c49.33,3.08,96.45,29.47,126.04,68.88,2.47,3.56,5.29,7.51,7.44,11.28,9.58,15.07,13.96,33.11,23.33,48.09,3.12,4.94,6.89,9.49,11.57,12.92,2.16,1.55,5.23,3.23,7.56,4.51,7.8,4.37,15.43,9.04,22.8,14.11,4.82,3.45,9.88,6.88,13.42,11.71-3.78-4.61-8.95-7.78-13.86-11.05-8.75-5.54-17.94-10.55-27.12-15.36-12.28-6.52-19.31-19.29-24.82-31.47-6-13.58-11.4-27.31-20.2-39.36-28.94-41.11-76.19-68.63-126.16-74.28h0Z"/>
  <path class="cls-22" d="M303.83,200.82c34.9-17.65,76.25-19.9,111.46-1.79,15.74,7.87,29.49,19.35,41.51,32.08,9.58,10.26,18.32,21.11,26.65,32.42,17.32,24.21,29.46,52,36.31,80.91,2.8,11.88,4.75,23.98,5.75,36.14-1.82-13.81-4.49-27.51-8.41-40.84-11.45-41.14-33.38-75.68-62.49-106.56-11.76-12.56-25.23-23.8-40.57-31.71-34.61-18.24-75.02-16.56-110.21-.64h0Z"/>
  <path class="cls-22" d="M251.29,233.77c-3.21,24.25,3.16,50.35,21.95,66.95,12.1,11,27.25,17.86,42.4,23.63,23.03,8.31,46.59,15.32,70.33,21.29,15.92,3.74,32.13,6.76,47.69,11.98,25.19,8.74,58.17,19.46,75.32,40.7,10.02,13.12,17.05,30.15,13.74,46.9-1.52,8.35-6.68,15.33-10.84,22.4-4.19,6.97-7.54,14.35-10.71,21.84-4.78,11.08-7.92,23.01-7.17,35.13.92,20.41,10.83,38.98,20.71,56.42,2.08,3.46,4.39,6.77,6.86,10,4.97,6.51,10.81,12.98,13.01,21.15,3.22,12.17,2.03,25.47-3.61,36.74-4.06,7.36-10.4,12.67-14.91,19.63-6.59,9.95-14.6,20.04-15.92,32.25-.29,3.95.04,8.03,1.71,11.58,1.71,3.54,4.46,6.65,6.75,10.07,2.34,3.4,4.41,6.99,6.18,10.71,3.4,7.51,6.61,15.07,8.51,23.12.9,4.04,1.28,8.28.34,12.35-1.99,9.49-14.25,18.22-23.72,15.46-6.3-2.13-7.76-9.67-7.44-15.55-.43,8.37,3.42,17.53,13.52,15.45,7.72-1.62,15.15-7.64,16.87-15.53,1.61-8.07-1.46-16.08-4.35-23.53-1.54-3.78-3.08-7.57-4.89-11.2-1.8-3.64-3.87-7.13-6.22-10.44-2.35-3.4-5.12-6.47-6.98-10.23-1.86-3.89-2.23-8.24-1.96-12.41.72-8.4,4.83-15.96,9.19-22.95,4.41-6.93,8.92-13.88,14.3-20.1,2.65-3.13,5.26-6.18,7.06-9.71,1.8-3.52,3.02-7.38,3.85-11.29,1.56-7.78,1.46-16.09-.7-23.72-2.19-7.84-7.77-13.89-12.66-20.28-5.12-6.46-9.21-13.76-13.04-21.01-12.12-21.96-20.11-46.71-12.22-71.56,3.78-11.8,8.87-23.17,15.07-33.9,7.06-11.58,12.34-18.92,11.15-33.28-1.04-11.82-6.54-23.33-13.7-32.76-7.54-9.52-17.84-16.24-28.59-21.8-21.87-10.8-45.15-19.01-68.84-24.81-15.92-3.65-31.99-7.29-47.62-12.17-15.67-4.79-31.37-9.51-46.68-15.38-15.26-5.93-30.49-13.06-42.57-24.37-18.72-16.99-24.93-43.37-21.19-67.77h0Z"/>
  <path class="cls-22" d="M503.27,393.73c3.86,9.5,5.99,19.83,5.53,30.17-.26,5.15-.97,10.32-2.51,15.28-.72,2.49-1.7,4.91-2.75,7.28-1.1,2.35-2.35,4.63-3.7,6.85-5.51,8.83-12.78,16.24-18.57,24.61-5.87,8.3-10.04,17.75-11.76,27.72-.89,4.95-1.05,10.01-.61,15.05.41,5.04,1.26,10.06,2.31,15.05,2.12,9.99,4.85,19.89,7.49,29.81.66,2.49,1.38,4.93,2.06,7.39.69,2.46,1.5,4.88,2.24,7.32,1.62,4.84,3.33,9.64,5.35,14.31,1.99,4.69,4.35,9.17,6.6,13.88,2.28,4.69,3.83,10,4.26,15.23.48,5.23.34,10.5-.31,15.73-.77,5.23-2.36,10.3-4.42,15.11-2.06,4.82-4.63,9.31-6.99,13.85-1.22,2.25-2.33,4.54-3.47,6.82-.54,1.15-1.04,2.31-1.57,3.47l-.78,1.74-.68,1.77c-3.74,9.42-5.92,19.42-6.88,29.55-.31,2.52-.48,5.08-.67,7.64l-.51,7.67c-.32,5.11-.58,10.23-.62,15.33-.04,2.55.02,5.09.16,7.62.15,2.52.43,5.04,1.05,7.4.14.6.35,1.16.54,1.74.23.55.46,1.1.75,1.67.55,1.13,1.16,2.24,1.77,3.36,1.24,2.23,2.52,4.5,3.61,6.88,1.1,2.38,1.98,4.88,2.59,7.43.62,2.57.95,5.15,1.2,7.73.48,5.18.12,10.58-1.8,15.52-.97,2.46-2.32,4.77-4.01,6.79-1.68,2.02-3.61,3.81-5.7,5.38-2.09,1.56-4.38,2.84-6.77,3.89-2.38,1.05-4.93,1.77-7.52,2.06-2.59.29-5.27.14-7.76-.7-2.5-.81-4.73-2.39-6.35-4.43-1.66-2.02-2.72-4.44-3.43-6.92-.68-2.49-1.02-5.06-1.04-7.63.1,2.57.52,5.12,1.26,7.56.78,2.43,1.89,4.78,3.56,6.69,1.62,1.94,3.79,3.41,6.2,4.13,2.4.75,4.97.84,7.46.5,2.5-.34,4.94-1.09,7.23-2.16,2.29-1.06,4.48-2.35,6.48-3.91,3.96-3.11,7.33-7.07,9.02-11.79,1.73-4.7,2.04-9.83,1.5-14.84-.28-2.52-.64-5.05-1.26-7.46-.62-2.43-1.49-4.79-2.57-7.06-1.08-2.27-2.36-4.47-3.64-6.71-.64-1.12-1.27-2.25-1.86-3.43-.3-.57-.58-1.2-.85-1.83-.23-.64-.47-1.28-.63-1.93-.72-2.59-1.03-5.21-1.23-7.81-.18-2.6-.28-5.19-.27-7.78-.02-5.17.17-10.32.42-15.47.12-2.57.3-5.14.47-7.71.18-2.57.34-5.13.64-7.71.93-10.31,3.12-20.59,6.92-30.3,3.65-9.78,9.39-18.54,13.4-27.78,1.96-4.64,3.44-9.44,4.15-14.39.6-4.96.71-10.02.23-15.01-.41-5.01-1.76-9.74-3.93-14.3-2.15-4.57-4.57-9.2-6.57-13.98-2.04-4.77-3.76-9.66-5.38-14.57-.74-2.47-1.55-4.93-2.24-7.42-.68-2.49-1.4-4.97-2.05-7.46-2.6-9.94-5.29-19.86-7.39-29.99-1.03-5.06-1.91-10.19-2.27-15.4-.38-5.2-.15-10.49.85-15.64,1.91-10.28,6.39-20.01,12.48-28.39,6.03-8.45,13.35-15.75,18.88-24.31,1.37-2.14,2.64-4.34,3.77-6.62,1.08-2.3,2.09-4.63,2.85-7.06,1.61-4.83,2.42-9.9,2.79-14.99.32-5.1.04-10.23-.8-15.29-.81-5.06-2.16-10.03-3.95-14.85Z"/>
  <path class="cls-22" d="M468.04,416.29c1.09,16.03-.87,32.39-6.64,47.47-2.94,7.56-7.19,14.48-10.9,21.52-11.42,21.06-14.14,45.91-10.35,69.38,1.3,7.8,3.09,15.6,5.78,23.04,2.65,7.56,6.95,14.12,11.21,20.91,4.3,6.9,7.48,14.6,9.5,22.45,4.09,15.61,7.04,31.91,4.99,48.09-1.03,8.08-3.31,16-6.79,23.37-7.02,14.51-14.68,28.51-21.56,43.06-1.71,3.63-3.66,7.15-4.84,10.91-3.99,11.52-.02,24.26,7.95,33.2-8.47-8.76-12.78-21.64-9.03-33.53,1.13-3.94,3-7.54,4.6-11.2,3.34-7.3,6.8-14.54,10.32-21.76,6.91-14.28,15.13-28.33,16.78-44.36,1.91-15.84-1.09-31.72-5.18-47.02-2.03-7.67-5.09-14.93-9.3-21.65-2.05-3.4-4.27-6.77-6.25-10.34-4.03-7.1-6.65-14.92-8.51-22.83-6.81-27.41-5.16-57.73,9.01-82.59,3.89-7.07,8.16-13.82,11.21-21.19,6.15-14.74,8.43-30.97,7.99-46.92h0Z"/>
  <path class="cls-22" d="M411.25,511.35c2.48,11.82,3.52,24.04,3.05,36.14-.22,5.5-.83,11.07-1.64,16.48-.59,4.34-1.37,8.67-.82,12.75.53,4.11,2.54,7.95,5.07,11.21,2.72,3.46,6.24,6.11,8.92,9.76,1.75,2.37,2.93,5.22,3.41,8.13.94,3.92-.29,8.07-.7,11.87-.25,2.14-.43,4.3-.54,6.47-.45,8.66.18,17.43,1.28,26,1.83,13.02,7.11,25.35,8.66,38.47.91,6.56,1.38,13.15,1.45,19.76,0,2.2-.04,4.4-.12,6.59-.31-8.78-1.12-17.53-2.78-26.12-1.53-8.67-4.16-16.93-6.81-25.33-3.8-12.75-5.07-26.25-4.61-39.53.11-2.22.27-4.44.52-6.66.29-3.29,1.25-6.29.95-9.49-.58-8.45-6.87-11.89-11.86-18.18-1.4-1.83-2.58-3.82-3.53-5.92-2.01-4.14-2.4-9.08-1.81-13.57,3.61-19.4,4.9-39.14,1.92-58.83h0Z"/>
  <g>
    <path class="cls-21" d="M258.67,186.76c-23.03-10.92-49.95-12.95-74.12-4.57-27.74,9.61-51.83,33.19-60.12,61.64-3.81,13.09-4.88,27.29-1.99,40.66,4.86,22.51,7.76,44.55.92,67.09-4.86,16-13.99,30.29-23.43,43.94-7.76,11.23-17.48,22.07-21,35.58-4.06,15.62,2.81,30.87,7.37,45.54,10.98,35.35,16.69,75.21-4.31,108.13-11.44,17.93-10.86,40.46-6.45,60.49,2.4,10.88,6.14,21.46,10.95,31.51,3.4,7.11,7.45,14.08,8.89,21.83,2.7,14.55-7.67,23.75-17.44,32.68-11.5,10.51-26.11,17.23-34.56,30.89-2.72,4.41-4.49,9.58-4.01,14.74.68,7.24,5.57,13.33,7.99,20.19,1.55,4.4,2.07,9.17,1.5,13.8-.37,3.05-1.32,6.21-3.61,8.26-2.56,2.29-6.63,2.68-9.58.92-2.95-1.76-4.54-5.53-3.74-8.87-1.76,5.73-.67,12.49,3.54,16.75,2.26,2.29,4.79,3.47,7.32,3.73,5.22.54,9.52-3.93,12.8-7.84,11.58-13.83,16.12-29.46,16.12-29.46,1.92-6.61,11-24.04,29.17-58.91,11.88-22.8,16.22-28.87,21.56-44.7,1.34-3.97,5.45-16.14,7.08-27.68,4.91-34.67-12.79-44.3-16.85-73.96-6.32-46.14,34.7-55.63,37.45-113.98,1.82-38.55-16.14-33.52-14.74-76.06,1.08-33.14,12.38-48.5,22.94-114.21,1.75-10.87,2.97-19.59,3.51-24.34"/>
    <path class="cls-22" d="M258.67,186.76c-3.66-1.67-7.94-3.42-11.78-4.62-1.64-.59-4.37-1.29-6.07-1.78-1.77-.41-4.4-1.06-6.18-1.36-5.02-.98-10.6-1.59-15.7-1.72-1.67-.11-4.6-.01-6.32-.01,0,0-3.16.19-3.16.19l-1.58.09c-41.47,3.15-79.41,36.49-85.33,78.06-1.24,8.28-1.37,16.75-.02,25,1.56,8.29,3.49,16.56,4.52,24.95,1.65,12.64,1.83,25.58-.72,38.12-4.24,21.03-16.24,39.3-28.41,56.55-9.73,13.19-20.81,27.5-18.83,44.78.71,8.25,3.46,16.24,6.12,24.23,10.61,31.78,18.16,67.59,5.96,100.05-1.45,3.95-3.31,8.02-5.39,11.66-1.67,2.93-4.72,7.87-6.12,10.97-5.18,11.36-6.37,24.16-5.3,36.51,1.43,16.67,6.31,32.96,13.55,48.02,9.11,17.8,15.5,31.14-.5,47.78-2.96,3.14-6.1,5.99-9.26,8.84-9.54,8.54-20.78,14.44-29.12,24.02-5.13,5.87-9.63,13.74-7.87,21.72,1.23,5.91,5.21,11.4,7.35,17.23,2.78,7.57,3.74,20.59-3.77,25.28-7.22,4.18-16.07-2.06-14.21-10.42,0,0,2.77.76,2.77.76-.85,2.77-.98,5.79-.35,8.62,1.07,5.42,5.95,10.62,11.7,9.99,4.13-.67,7.57-4.52,10.25-7.79,2.95-3.6,5.59-7.44,7.9-11.49,2.98-5.22,5.53-10.71,7.41-16.42,0,0,.09-.27.09-.27l.02-.07v-.03c-.01.07-.01.15,0,.22,1.71-5.93,4.67-11.18,7.26-16.68,4.87-10.08,18.88-36.45,24.25-46.92,4.95-9.38,11.97-21.65,15.93-31.22,4.31-10.74,7.83-22.01,9.96-33.4,3.59-19.26-.08-33.08-8.22-50.39-7.23-16.07-11.44-34.71-6.32-52.03,4.98-17.17,17.4-30.65,25.14-46.46,7.96-15.55,11.54-33.19,11-50.61-.11-5.81-.99-11.59-2.75-17.09-1.74-5.52-4.55-10.68-6.75-16.18-6.74-16.54-5.79-35.04-3.2-52.37,3.02-17.37,8.63-34.14,12.57-51.29,4.06-17.03,7.49-34.45,10.04-51.79,0,0,2.58-17.4,2.58-17.4-1.47,10.38-3.35,24.69-5.14,34.81-3.83,23.16-9.58,45.95-15.48,68.64-2.86,11.35-4.89,22.91-5.23,34.62-1.73,38.82,15.7,39.76,15.04,72.42,0,23.35-7.15,43.04-19.79,62.41-14.65,22.48-22.59,37.58-15.51,65.04,2.92,11.38,8.94,21.55,12.63,32.75,5.87,17.11,2.9,35.71-2.31,52.59-3.3,11.31-7.87,22.37-13.56,32.67-5.6,10.42-18.98,36.05-24.48,46.74-5.14,10.39-11.04,20.64-14.95,31.53,0,0,.05-.38.05-.38-.01.15-.04.31-.08.46l-.07.23-.09.29-.19.58-.39,1.14c-1.88,5.29-4.26,10.38-7.04,15.25-2.37,4.18-5.11,8.17-8.15,11.89-3.17,3.83-6.8,7.94-12.02,8.8-7.41.88-13.49-5.43-14.89-12.17-.74-3.33-.6-6.83.39-10.09l2.77.76c-.81,3.32,1.44,7.34,4.89,8,1.69.39,3.58.11,5.06-.76,3.27-2,4.04-6.22,4.28-9.91,1.39-16.88-15.23-25.2-7.88-42.76,7.1-16.39,23.97-24.16,36.51-35.27,3.12-2.8,6.25-5.64,9.08-8.64,15.15-15.55,8.45-27.85.07-44.56-7.36-15.37-12.31-32-13.74-49.02-1.09-12.8.19-26.08,5.59-37.87,1.49-3.27,4.41-7.98,6.23-11.15,1.6-2.68,2.82-5.56,4.14-8.38,13.47-32.5,5.98-68.93-4.72-101.23-2.62-8-5.41-16.17-6.13-24.82-2.01-17.86,9.41-32.83,19.46-46.24,12.09-16.98,24.05-34.96,28.33-55.66,2.57-12.33,2.44-25.07.87-37.53-.99-8.39-2.87-16.61-4.4-24.92-1.34-8.44-1.18-17.07.16-25.47,6.3-41.93,44.78-75.41,86.71-78.26,0,0,1.59-.08,1.59-.08l3.17-.16c1.72-.02,4.62-.04,6.34.06,5.11.18,10.72.83,15.73,1.85,1.9.3,4.32,1,6.18,1.41,1.75.5,4.37,1.23,6.07,1.84,3.83,1.24,8.1,3.02,11.75,4.72h0Z"/>
  </g>
  <path class="cls-22" d="M342.68,575.07c-1.97,10.82-1.58,21.73,1.1,32.39-5.39-9.75-5.82-22.29-1.1-32.39h0Z"/>
  <g>
    <path class="cls-21" d="M245.92,200.49c-30.73-1.99-67.78,6.74-87.04,32.16-11.9,15.71-17.46,33.88-17.97,53.44-.79,30.8,6.26,65.74-12.36,92.76-4.63,6.72-9.86,13.13-13.23,20.56-7.2,15.87-5.9,34.71-.18,50.78,3.66,10.29,8.72,20.09,11.61,30.65,3.02,11.02,2.77,22.32.39,33.44-3.18,14.85-9.91,28.57-17.45,41.65-8.49,14.73-21.48,27.81-17.81,46.13,1.93,9.63,7.2,18.21,12.38,26.55,5.31,8.56,10.39,17.04,16.02,25.41,3.92,5.82,7.34,12.41,7.22,19.43-.09,5.77-5.95,12.11-5.07,17.35,4.77-.69,9.08-4.78,12.21-8.2,6.36-6.93,11.12-15.66,11.84-25.04,1.35-17.65-10.91-31.17-16.48-46.86-2.82-7.94-4.77-14.77-3.36-23.33,1.18-7.2,3.9-14.04,6.53-20.85,6.4-16.58,13.35-33.04,18.21-50.14,4.77-16.76,11.75-34.02,8.99-51.77-1.29-8.27-4.65-15.99-7.37-23.85-5.94-17.18-3.7-31.83-1.31-60.46,3.15-37.75,14.3-72.63,14.3-72.63h0"/>
    <path class="cls-22" d="M245.92,200.49c-24.22-1.21-49.55,3.36-69.99,16.91-15.26,10.15-25.61,26.46-30.55,43.92-6.83,23.71-1.84,48.56-2.98,72.86-.58,15.35-3.59,31.19-12.21,44.2-4.92,7.62-11.08,14.68-14.39,23.11-4.58,11.13-5.03,23.61-2.88,35.36,2.07,12.05,7.71,22.93,12.05,34.33,10.15,24.19,4.58,49.14-6.71,71.8-2.73,5.54-5.66,10.91-8.84,16.22-3.23,5.27-6.79,10.25-9.84,15.45-4.53,7.55-7.91,16.27-6.52,25.16,1.92,14.21,12.99,28.03,19.98,40.23,1.61,2.59,3.23,5.18,4.88,7.74,5.06,7.75,11.18,15.84,11.02,25.62-.14,4.92-3.16,8.89-4.61,13.32-.44,1.34-.68,2.67-.5,3.85l-1.58-1.16c3.83-.64,7.09-3.36,9.83-6.12,5.75-5.81,10.41-12.96,12.3-20.95,3.05-12.4-2.46-24.48-8.2-35.28-5.81-11.28-11.92-23.53-11.18-36.59,1.19-12.42,7.52-24.84,11.8-36.42,6.43-15.65,11.9-31.57,16.58-47.81,5.02-15.83,9.6-32.83,4.41-49.17-2.31-8.12-6.05-15.84-7.74-24.18-1.75-8.39-1.67-17-1.16-25.43,1.34-16.88,2.61-33.75,5.41-50.45,2.84-16.67,6.68-33.18,11.69-49.33-7.15,24.3-12.04,49.32-14.01,74.58-1.06,16.69-3.91,33.8-.46,50.33,2.44,11.35,8.57,21.78,9.9,33.44,1.82,13.87-2.16,27.71-6.12,40.8-4.58,16.3-9.99,32.38-16.32,48.08-4.09,11.28-10.28,23.77-11.44,35.75-.6,8.24,2.31,16.37,5.41,23.91,5.04,11.64,12.89,22.41,14.62,35.32,2.04,13.18-4.35,26.23-13.53,35.37-3.15,3.14-6.76,6.19-11.41,6.94,0,0-1.37.21-1.37.21l-.21-1.37c-.49-3.51,1.07-6.59,2.39-9.57,1.26-2.76,2.6-5.49,2.63-8.1.06-5.88-2.5-11.41-5.58-16.36-5.77-8.56-14.11-22.1-19.61-31.03-4.79-7.84-9.57-16.42-10.78-25.76-2.48-16.16,8.89-29.72,16.86-42.51,12.18-20.46,23.12-43.89,20.14-68.2-1.49-12.07-7.12-23.08-11.51-34.37-6.05-14.96-8.68-32.08-4.37-47.93,2.11-8.33,6.81-15.85,11.8-22.61,2.63-3.62,5.37-7.45,7.64-11.29,3.56-6.63,6.19-13.73,7.64-21.16,4.81-24.13.31-48.68,2.21-73.09,2.15-24.39,14.07-48.79,34.94-62.37,20.7-13.38,46.16-17.69,70.47-16.2h0Z"/>
  </g>
  <g>
    <path class="cls-21" d="M251.29,235.77c-2,9.44-6.2,23.83-16.11,38.38-16.57,24.33-32.05,24.06-49.44,48.17-7.03,9.76-21.67,30.06-19.01,53.87,2.45,22.01,17.14,24.37,25.99,55.14,2.2,7.64,6.96,24.84,3.8,45-5.05,32.26-24.46,34.35-30.42,64.02-3.91,19.47-1.38,47.57,14.58,67.18,16,19.66,34.24,16.98,45.63,39.93,1.8,3.62,10.41,21.1,2.54,32.32-.28.4-6.11,8.43-15.09,7.68-6.79-.56-12.1-5.88-14.07-11.49-1.3-3.72-.97-7.06-.63-8.87.39.45,8.28,9.33,13.14,7.24,4.35-1.87,5.02-11.96,2.5-18.74-5.98-16.09-28.87-10.71-53.74-26.87-18.25-11.86-36.12-34.37-35.62-57.48.2-9.37,6.49-20.12,19.06-41.24,23.01-38.68,31.57-41.96,35.08-61.07.82-4.45,3.96-23.9-4.72-44.09-7.13-16.58-14.44-15.56-23.1-32.55-3.47-6.82-14.69-31.3-6.82-55.12,3.71-11.23,8.53-12.86,27.82-37.8,9.99-12.91,17.6-23.98,22.57-31.5"/>
    <path class="cls-22" d="M251.29,235.77c-3.51,17.15-10.98,33.66-22.41,47.01-7.55,9.03-17.67,15.32-26.68,22.69-15.68,12.97-32.47,38.23-34.59,58.73-.94,8.53-.02,17.42,3.76,25.17,4,7.79,9.96,14.29,14.19,22.04,2.92,5.14,5.22,10.62,7.05,16.22,7.33,22.17,9.33,47.72-1.3,69.2-2.7,5.33-6.27,10.11-9.78,14.76-3.51,4.65-6.87,9.34-9.34,14.49-7.32,15.63-7.78,33.9-4.31,50.62,3.57,16.81,12.69,32.71,27.39,42,7.21,4.76,15.61,8.45,22.17,14.44,2.14,2.06,4.29,4.32,5.99,6.77,5.12,7.45,8.78,15.87,9.92,24.86.71,6.09-.3,12.9-4.7,17.57-6.75,7.63-17.75,9.25-25.37,1.81-4.64-4.32-6.94-11.06-5.68-17.29,0,0,.55-2.95.55-2.95,2.88,3.2,9.3,10.61,13.61,9.02,4.77-3.44,3.11-15.83-.13-20.14-4.57-6.46-12.99-7.91-20.17-10.07-10.37-2.75-20.85-6.2-29.99-12.03-9.19-5.81-17.23-13.3-23.79-21.94-9.37-12.76-17.01-30.04-12.04-46,3.56-10.22,9.5-19.34,14.87-28.64,5.46-9.19,11.1-18.31,17.12-27.16,5.78-8.85,12.8-17.16,17.33-26.68,2.13-4.76,3.39-9.89,4.09-15.11,1.97-15.61-.33-32.12-8.09-45.94-2.59-4.66-6.31-8.38-9.97-12.23-10.98-11.68-16.93-28.12-18.98-43.83-1.21-10.65-.11-21.86,4.68-31.56,1.25-2.41,2.85-4.6,4.52-6.69,15.73-18.16,30.73-36.96,44.03-57.01-11.71,17.86-24.46,35.06-38.32,51.34-3.39,4.1-7.06,8.07-9.46,12.77-2.34,4.7-3.63,9.98-4.31,15.18-2.44,19.35,5.52,44.5,19.03,58.69,3.7,3.84,7.63,7.75,10.28,12.47,8.07,14.14,10.53,31.03,8.61,47.08-.68,5.36-1.95,10.71-4.16,15.73-4.6,9.84-11.52,18.08-17.34,27.11-5.95,8.85-11.49,17.94-16.88,27.14-4.04,6.89-8.15,13.73-11.61,20.9-2.21,4.65-4.2,9.59-4.41,14.73-.07,28.53,24.75,54.63,50.38,64.26,9.93,4.05,20.96,5.14,30.56,10.16,3.74,2.02,6.92,5.5,8.4,9.56,3.61,8.83,1.63,27.94-11.83,18.65-2.34-1.63-4.33-3.49-6.23-5.58l2.57-.71c-.48,2.65-.33,5.4.52,7.91,2.42,7.56,11.24,13.14,18.9,9.72,4.88-2.05,9.06-6.36,10.15-11.71,1.2-5.31.26-11.08-1.46-16.46-2.67-8.09-6.83-15.8-13.1-21.6-6.48-5.89-14.42-9.31-21.79-14.21-4.96-3.26-9.57-7.2-13.4-11.8-18.37-22.1-22.41-58.33-10.46-84.29,5.07-10.67,13.9-18.9,19.24-29.26,10.45-20.83,8.57-45.77,1.56-67.43-1.76-5.51-3.98-10.86-6.79-15.9-4.43-8.33-11.27-15.44-15-24.26-5.4-13.14-3.63-28.3,1.65-41.17,2.23-5.46,5.07-10.64,8.22-15.59,6.38-9.82,13.59-19.3,22.84-26.6,9.11-7.3,19.21-13.39,26.85-22.33,11.54-13.2,19.15-29.54,22.84-46.64h0Z"/>
  </g>
  <path class="cls-22" d="M213.32,520.04c-9.13,17.24-4.35,28.06,3.55,44.23,3.26,7.34,7.19,14.08,10.15,21.61,2.85,7.59,2.39,16.27-.3,23.81,1.4-7.66,1.26-15.8-1.88-22.95-5.16-10.64-11.21-21.05-15.5-32.16-5.12-11.91-3.9-24.34,3.98-34.54h0Z"/>
</svg>